<svg width="55" height="50" viewBox="0 0 55 50" fill="none" xmlns="http://www.w3.org/2000/svg">
<path d="M5.98917 5.72875L5.98199 9.00283L6.00065 8.98702H3.22206V9.58949C3.22206 12.4001 3.22206 15.2112 3.22206 18.0227C3.23603 18.3295 3.16054 18.6337 3.00482 18.8983C2.8491 19.1628 2.61989 19.3762 2.34515 19.5124C1.79115 19.8 1.20989 19.8 0.729089 19.406C0.426258 19.1615 0.239682 18.7704 0 18.4455V6.92795C0.410473 6.02065 1.11086 5.68418 2.09973 5.72732C3.40147 5.78339 4.70752 5.74313 6.01213 5.74313L5.98917 5.72875ZM10.1513 48.2903C10.1685 49.3616 10.8086 49.9842 11.8736 49.9899C13.0217 49.9966 14.1699 49.9966 15.3181 49.9899C16.4017 49.9899 17.0404 49.3386 17.0576 48.2443C17.0676 47.3298 17.0576 46.4153 17.0576 45.4994C17.0576 45.347 17.0805 45.1946 17.092 45.058H37.8912C37.9077 45.1046 37.9197 45.1528 37.9271 45.2018C37.9271 46.2083 37.9271 47.2148 37.9357 48.2213C37.9458 49.3501 38.5844 49.9942 39.6982 50C40.7545 50 41.8108 50 42.8671 50C44.2851 50 44.8406 49.4407 44.842 48.01C44.842 47.0279 44.842 46.0472 44.842 45.0565L45.5295 44.9314C47.1627 44.6223 48.5879 43.3023 48.8463 41.6617C49.0199 40.5602 48.974 39.4243 49.0285 38.2553H48.3425C45.5323 38.2553 42.7217 38.2553 39.9106 38.2553C38.5385 38.2553 37.8396 37.3523 38.1883 36.0223C38.6332 34.2872 39.082 32.5536 39.5345 30.8214C39.7929 29.8293 40.3153 29.4252 41.3444 29.4238C43.6914 29.4238 46.0356 29.4238 48.3769 29.4238H48.951V24.2876H6.05663V29.4151C8.60845 29.4151 11.1129 29.4151 13.6188 29.4151C14.688 29.4151 15.1975 29.8106 15.4688 30.8329C15.9137 32.5488 16.3572 34.2647 16.7992 35.9806C17.1523 37.3509 16.4663 38.2467 15.0598 38.2467C12.2486 38.2467 9.43752 38.2467 6.62641 38.2467H6.015C6.015 39.1468 5.98199 39.988 6.015 40.8248C6.09394 42.477 6.85174 43.7409 8.32571 44.5015C8.87109 44.7891 9.49541 44.9127 10.1441 45.1313C10.1441 46.1464 10.1441 47.2206 10.1527 48.2932L10.1513 48.2903ZM32.268 29.4137C33.3244 29.4137 33.9903 30.0464 34.0032 31.1075C34.0233 32.9174 34.0233 34.7277 34.0032 36.5385C33.9903 37.5967 33.3186 38.2424 32.2723 38.2438C29.089 38.2495 25.9048 38.2495 22.7195 38.2438C21.6689 38.2438 20.9973 37.6011 20.9843 36.5442C20.9662 34.7344 20.9662 32.9241 20.9843 31.1133C20.9958 30.0507 21.6589 29.418 22.7152 29.4137C24.3241 29.4137 25.9344 29.4137 27.5447 29.4137C29.1206 29.4151 30.695 29.4123 32.2695 29.4166L32.268 29.4137ZM5.99491 8.98558C5.99491 12.9915 5.99491 16.9961 5.99491 20.9992H25.8526V8.96832H6.40251C6.25899 8.96832 6.11547 8.98989 5.97195 9.00139L5.99491 8.98558ZM48.9941 8.98558C48.8864 8.98558 48.7802 8.96688 48.674 8.96688C42.2863 8.96688 35.8991 8.96688 29.5124 8.96688C29.3919 8.96688 29.2727 8.97839 29.1393 8.98414V20.9934H48.9783V8.97264L48.9941 8.98558ZM48.9654 5.75176C48.9654 5.41242 48.9654 5.07164 48.9826 4.73086C49.1476 2.01324 47.0293 -0.0228132 44.2751 0.000193031C35.3667 0.0720876 26.4568 0.0260751 17.547 0.0260751C15.1315 0.0260751 12.716 0.0131341 10.3006 0.0260751C8.16209 0.0418919 6.4427 1.48841 6.09825 3.59492C5.98343 4.29518 6.03079 5.02275 6.00496 5.73738L5.98917 5.72444C6.22168 5.72444 6.45418 5.7345 6.68669 5.7345H48.9826L48.9654 5.75176ZM48.9826 5.73738C48.9826 6.81868 48.9864 7.90045 48.9941 8.9827L48.9783 8.96688H51.7755V9.63407C51.7755 12.4135 51.7755 15.1944 51.7755 17.9738C51.7755 18.9674 52.4687 19.6993 53.3787 19.6993C54.2886 19.6993 54.9847 18.9804 54.9962 17.9868C55.0048 17.3225 54.9962 16.6596 54.9962 15.9953C54.9962 13.1617 54.9962 10.3276 54.9962 7.49305C54.9962 6.47214 54.3675 5.75895 53.4174 5.74745C51.932 5.73163 50.4465 5.74745 48.9596 5.75751L48.9826 5.73738ZM13.2126 34.9884C13.0433 34.3299 12.8639 33.7116 12.7318 33.0846C12.6601 32.7395 12.5122 32.6303 12.1577 32.6346C10.7814 32.6576 9.40356 32.6446 8.02718 32.6446H6.0351V34.9884H13.2126ZM48.9367 34.9812V32.6403C46.8384 32.6403 44.7817 32.6403 42.7265 32.6518C42.6421 32.6627 42.5615 32.6937 42.4916 32.7422C42.4217 32.7908 42.3644 32.8554 42.3246 32.9308C42.1194 33.5937 41.9615 34.2723 41.7778 34.9769L48.9367 34.9812ZM24.2509 32.6806V34.9812H30.7682V32.6806H24.2509Z" />
</svg>
