<svg width="92" height="50" viewBox="0 0 92 50" fill="none" xmlns="http://www.w3.org/2000/svg">
<path d="M0.0192048 36.5674C0.681628 35.5085 1.78567 35.6802 2.8993 35.6611V32.904C2.7169 32.8277 2.49609 32.7514 2.29448 32.6465C2.01762 32.5225 1.79158 32.3084 1.65369 32.0396C1.5158 31.7707 1.47431 31.4632 1.53606 31.1677C1.56649 30.8495 1.71321 30.5534 1.9485 30.3354C2.18379 30.1174 2.49132 29.9926 2.81291 29.9847C3.85855 29.9275 4.90656 29.9275 5.9522 29.9847C6.29007 29.9872 6.61338 30.1217 6.85229 30.3591C7.09121 30.5966 7.22654 30.9179 7.22905 31.2536C7.30585 32.2076 6.70103 32.6369 5.8466 32.8659V35.6039H14.4389V4.77008C14.4389 1.67907 16.1574 0 19.2391 0H87.1326C90.3103 0 92 1.68861 92 4.85594V39.4009C92 42.6064 90.3103 44.2759 87.0558 44.2759H77.4555C77.8253 42.4074 77.6885 40.4747 77.0593 38.676C76.4301 36.8772 75.3309 35.277 73.8746 34.0393C72.8242 33.0984 71.5897 32.3831 70.2484 31.9382C68.907 31.4933 67.4876 31.3285 66.0791 31.4539C64.5542 31.5657 63.0704 31.9965 61.7248 32.7181C60.3792 33.4398 59.2024 34.4358 58.2714 35.6411C57.3404 36.8464 56.6763 38.2337 56.3227 39.7119C55.9691 41.1902 55.934 42.726 56.2196 44.2187H50.1713C50.5385 42.3225 50.3845 40.3631 49.7256 38.5465C49.0667 36.73 47.9273 35.1236 46.4272 33.8962C45.3717 32.9841 44.1407 32.2948 42.8089 31.87C41.477 31.4452 40.0722 31.294 38.6797 31.4253C37.1579 31.5501 35.6797 31.9925 34.3416 32.7235C33.0036 33.4546 31.8357 34.4579 30.9143 35.6679C29.9929 36.8779 29.3387 38.2675 28.9944 39.7458C28.6501 41.2242 28.6235 42.758 28.9162 44.2473H27.9562C19.3159 44.2473 10.6756 44.2473 2.08327 44.2473C1.68191 44.2879 1.27693 44.2208 0.91052 44.053C0.544114 43.8852 0.229689 43.6229 0 43.2933V42.2248C0.233991 41.9024 0.550679 41.6483 0.917083 41.4889C1.28349 41.3295 1.6862 41.2706 2.08327 41.3185C5.693 41.3185 9.31232 41.3185 12.9317 41.3185H14.4965L14.3045 38.4564H13.3061C9.57153 38.4564 5.83701 38.4564 2.10248 38.4564C1.70091 38.4991 1.29519 38.4329 0.928406 38.265C0.561619 38.097 0.247444 37.8335 0.0192048 37.5024V36.5674ZM38.8237 17.802C38.8237 16.4091 38.8237 15.0067 38.8237 13.6138C38.8331 13.225 38.7625 12.8385 38.6165 12.4777C38.4705 12.1169 38.252 11.7895 37.9744 11.5154C37.6968 11.2413 37.3659 11.0263 37.0019 10.8835C36.6379 10.7408 36.2484 10.6732 35.8573 10.685C33.0412 10.685 30.2282 10.685 27.4186 10.685C27.029 10.6746 26.6414 10.7428 26.2792 10.8856C25.917 11.0284 25.5877 11.2427 25.3113 11.5157C25.0348 11.7886 24.817 12.1144 24.671 12.4734C24.5249 12.8324 24.4537 13.2171 24.4616 13.6043C24.4616 16.4027 24.4616 19.198 24.4616 21.9901C24.4467 22.3853 24.5143 22.7794 24.6603 23.1474C24.8062 23.5153 25.0274 23.8493 25.3097 24.1281C25.5921 24.4068 25.9295 24.6245 26.3007 24.7671C26.6719 24.9098 27.0689 24.9745 27.4666 24.9571C30.2379 24.9571 33.0187 24.9571 35.8092 24.9571C36.2068 24.9758 36.604 24.9124 36.9757 24.7709C37.3474 24.6294 37.6855 24.4128 37.9688 24.1349C38.252 23.857 38.4743 23.5238 38.6214 23.1563C38.7686 22.7888 38.8375 22.3949 38.8237 21.9996C38.843 20.5972 38.8237 19.2044 38.8237 17.802ZM60.3861 17.8592C60.3861 16.4663 60.3861 15.0639 60.3861 13.6615C60.4023 13.2663 60.336 12.8721 60.1912 12.5036C60.0464 12.1352 59.8264 11.8006 59.5449 11.5209C59.2635 11.2412 58.9268 11.0225 58.556 10.8786C58.1852 10.7348 57.7885 10.6688 57.3908 10.685H49.0481C48.6506 10.665 48.2532 10.7271 47.881 10.8675C47.5088 11.0078 47.17 11.2233 46.8858 11.5003C46.6017 11.7773 46.3784 12.1098 46.23 12.4768C46.0817 12.8439 46.0116 13.2375 46.024 13.6329C46.024 16.4282 46.024 19.233 46.024 22.0282C46.0148 22.4154 46.0847 22.8003 46.2296 23.1598C46.3745 23.5193 46.5912 23.8458 46.8668 24.1196C47.1423 24.3934 47.4709 24.6088 47.8326 24.7528C48.1944 24.8967 48.5817 24.9662 48.9713 24.9571C51.7874 24.9571 54.6003 24.9571 57.41 24.9571C57.8078 24.9707 58.2041 24.9022 58.574 24.756C58.9438 24.6098 59.2791 24.389 59.5588 24.1075C59.8384 23.826 60.0563 23.49 60.1987 23.1206C60.3411 22.7512 60.4049 22.3566 60.3861 21.9615C60.3957 20.5972 60.3861 19.2234 60.3861 17.8592ZM67.5672 17.8592C67.5672 19.2902 67.5672 20.7212 67.5672 22.1427C67.5672 22.9018 67.8706 23.6298 68.4107 24.1665C68.9508 24.7032 69.6834 25.0048 70.4473 25.0048C73.321 25.0048 76.201 25.0048 79.0876 25.0048C79.8514 25.0048 80.584 24.7032 81.1241 24.1665C81.6642 23.6298 81.9677 22.9018 81.9677 22.1427C81.9677 19.3188 81.9677 16.4949 81.9677 13.671C81.9677 12.912 81.6642 12.184 81.1241 11.6473C80.584 11.1105 79.8514 10.809 79.0876 10.809C76.2459 10.809 73.401 10.809 70.5529 10.809C70.1632 10.8024 69.7763 10.8744 69.4155 11.0207C69.0547 11.167 68.7275 11.3845 68.4538 11.6601C68.18 11.9357 67.9654 12.2636 67.8229 12.624C67.6804 12.9845 67.613 13.3698 67.6247 13.7569C67.548 15.0257 67.548 16.4282 67.548 17.821L67.5672 17.8592ZM31.6139 30.7098C32.3339 30.7098 33.0443 30.7098 33.7644 30.7098C34.1463 30.7098 34.5126 30.559 34.7826 30.2907C35.0527 30.0223 35.2044 29.6583 35.2044 29.2788C35.2044 28.8992 35.0527 28.5352 34.7826 28.2669C34.5126 27.9985 34.1463 27.8477 33.7644 27.8477C32.3531 27.8477 30.9419 27.8477 29.5402 27.8477C29.352 27.8427 29.1647 27.8748 28.9891 27.9423C28.8135 28.0098 28.6532 28.1113 28.5174 28.2409C28.3817 28.3705 28.2732 28.5256 28.1982 28.6972C28.1233 28.8688 28.0835 29.0535 28.081 29.2406C28.0768 29.4354 28.113 29.629 28.1873 29.8094C28.2616 29.9897 28.3724 30.1529 28.5128 30.2889C28.6533 30.4249 28.8204 30.5307 29.0037 30.5999C29.1871 30.669 29.3827 30.6999 29.5786 30.6907C30.2314 30.7002 30.9227 30.6716 31.6139 30.6716V30.7098ZM53.1955 30.7098C53.9155 30.7098 54.6355 30.7098 55.3555 30.7098C55.7349 30.7098 56.0987 30.56 56.367 30.2935C56.6353 30.0269 56.786 29.6653 56.786 29.2883C56.7899 29.101 56.7556 28.9148 56.685 28.7411C56.6144 28.5674 56.509 28.4097 56.3752 28.2777C56.2415 28.1457 56.0821 28.042 55.9068 27.973C55.7316 27.904 55.544 27.8712 55.3555 27.8764C53.9155 27.8764 52.4754 27.8764 51.045 27.8764C50.8565 27.8712 50.6689 27.904 50.4937 27.973C50.3184 28.042 50.159 28.1457 50.0253 28.2777C49.8915 28.4097 49.7861 28.5674 49.7155 28.7411C49.6449 28.9148 49.6106 29.101 49.6145 29.2883C49.6133 29.4753 49.6494 29.6607 49.7208 29.8338C49.7922 30.0068 49.8976 30.164 50.0307 30.2963C50.1637 30.4285 50.3219 30.5332 50.4961 30.6042C50.6702 30.6752 50.8568 30.7111 51.045 30.7098C51.7554 30.7003 52.4754 30.6716 53.1955 30.6716V30.7098ZM74.7002 30.7098H76.8507C77.0459 30.715 77.2401 30.6809 77.4217 30.6096C77.6034 30.5383 77.7686 30.4313 77.9076 30.295C78.0466 30.1587 78.1564 29.9958 78.2305 29.8163C78.3046 29.6367 78.3414 29.4442 78.3387 29.2502C78.3363 29.0635 78.2964 28.8792 78.2213 28.7081C78.1463 28.537 78.0376 28.3825 77.9017 28.2537C77.7658 28.1248 77.6054 28.0243 77.4298 27.9578C77.2543 27.8914 77.0672 27.8605 76.8795 27.8668C75.4682 27.8668 74.0666 27.8668 72.6553 27.8668C72.4599 27.8575 72.2646 27.8885 72.0818 27.9577C71.8989 28.0269 71.7324 28.1329 71.5927 28.2691C71.453 28.4052 71.3431 28.5686 71.2699 28.7489C71.1967 28.9292 71.1618 29.1226 71.1673 29.3169C71.1773 29.6948 71.3375 30.0534 71.6127 30.3144C71.8879 30.5753 72.2558 30.7175 72.6361 30.7098C73.3082 30.7003 74.009 30.6716 74.7002 30.6812V30.7098ZM39.5726 49.9809C38.0079 49.9866 36.4767 49.5304 35.1732 48.6703C33.8696 47.8102 32.8525 46.5848 32.2506 45.1495C31.6487 43.7142 31.4893 42.1336 31.7924 40.6082C32.0956 39.0827 32.8477 37.6811 33.9535 36.5809C35.0592 35.4808 36.4688 34.7316 38.0035 34.4285C39.5382 34.1254 41.129 34.2819 42.574 34.8783C44.0191 35.4746 45.2534 36.4839 46.1206 37.7782C46.9877 39.0725 47.4486 40.5935 47.4448 42.1484C47.4322 44.2176 46.5982 46.1981 45.124 47.6595C43.6498 49.1208 41.6548 49.9448 39.5726 49.9523V49.9809ZM44.5744 42.1675C44.5819 41.1789 44.2943 40.2101 43.7478 39.3839C43.2014 38.5577 42.4207 37.911 41.5044 37.5257C40.5881 37.1404 39.5774 37.0337 38.6002 37.2192C37.6229 37.4047 36.7229 37.874 36.014 38.5678C35.3051 39.2615 34.8192 40.1486 34.6176 41.1168C34.4161 42.085 34.508 43.0909 34.8817 44.0072C35.2554 44.9235 35.8941 45.7091 36.7171 46.2647C37.5402 46.8203 38.5105 47.1208 39.5054 47.1284C40.843 47.1335 42.128 46.611 43.0784 45.6755C44.0287 44.7401 44.5667 43.4681 44.5744 42.1389V42.1675ZM74.7578 42.1675C74.7521 43.7207 74.2836 45.2373 73.4113 46.5261C72.539 47.8149 71.3021 48.818 69.8567 49.4089C68.4113 49.9998 66.8221 50.1519 65.2898 49.8461C63.7574 49.5404 62.3505 48.7904 61.2467 47.6908C60.1429 46.5912 59.3916 45.1914 59.0876 43.6679C58.7836 42.1444 58.9405 40.5656 59.5387 39.1306C60.1368 37.6957 61.1492 36.469 62.4482 35.6053C63.7472 34.7416 65.2746 34.2797 66.8375 34.2778C68.9364 34.2778 70.9496 35.1057 72.4346 36.5797C73.9197 38.0537 74.7552 40.0531 74.7578 42.1389V42.1675ZM71.8777 42.1675C71.8909 41.1785 71.6086 40.2079 71.0665 39.3783C70.5244 38.5488 69.7469 37.8978 68.8323 37.5075C67.9177 37.1173 66.9071 37.0055 65.9286 37.1862C64.95 37.3668 64.0473 37.832 63.3349 38.5226C62.6224 39.2133 62.1321 40.0984 61.926 41.0661C61.7199 42.0338 61.8074 43.0404 62.1772 43.9587C62.5471 44.877 63.1827 45.6656 64.0037 46.2247C64.8248 46.7839 65.7943 47.0884 66.7895 47.0998C68.1214 47.1126 69.4041 46.6009 70.3575 45.6768C71.3109 44.7526 71.8575 43.4909 71.8777 42.1675ZM27.3898 22.0378H35.8668V13.5757H27.3514L27.3898 22.0378ZM48.9617 13.6043V22.0569H57.4676V13.6043H48.9617ZM70.4953 22.0473H79.0011V13.5852H70.4953V22.0473Z" />
</svg>
