<svg width="95" height="50" viewBox="0 0 95 50" fill="none" xmlns="http://www.w3.org/2000/svg">
<path d="M27.2516 50V48.7826C27.2516 32.9659 27.2516 17.1492 27.2516 1.33244C27.2516 -0.112501 27.2648 -0.0966245 28.6892 0.0859781C36.302 1.06162 43.9156 2.03197 51.5301 2.99703L74.2759 5.88162C80.7796 6.70466 87.2806 7.54357 93.7896 8.32691C94.6881 8.43277 95.0026 8.69741 95 9.65012C94.9647 19.8829 94.9647 30.1157 95 40.3485C95 41.2377 94.7357 41.5315 93.8636 41.6373C85.7875 42.6271 77.7167 43.6618 69.6459 44.6834C61.9662 45.6519 54.2856 46.6223 46.6041 47.5944C40.6263 48.3548 34.6476 49.1187 28.6681 49.8862C28.2479 49.9471 27.825 49.963 27.2516 50ZM31.4086 24.8829C31.4086 30.9908 31.4086 37.0987 31.4086 43.2066C31.4086 44.7522 31.9529 45.2285 33.4646 45.0459C34.6089 44.9057 35.7532 44.7601 36.9001 44.6172C45.4959 43.5375 54.0909 42.4568 62.685 41.3753C71.4429 40.2691 80.2008 39.1603 88.9588 38.0488C90.4677 37.8582 90.8298 37.4878 90.8298 35.9661C90.8298 28.6355 90.8298 21.3058 90.8298 13.977C90.8298 12.4897 90.4862 12.106 89.038 11.926C84.6335 11.3756 80.2211 10.8251 75.8007 10.2747L33.6416 4.95273C31.8367 4.72514 31.4086 5.11946 31.4086 6.96666C31.4068 12.9423 31.4068 18.9179 31.4086 24.8935V24.8829ZM24.482 25.0681C24.482 32.7304 24.482 40.3909 24.482 48.0496C24.482 49.4495 24.482 49.4575 23.1105 49.1717C20.0158 48.5233 16.9292 47.8485 13.8293 47.2319C13.203 47.1075 13.0365 46.8402 13.0365 46.2421C13.0488 32.0767 13.0488 17.9113 13.0365 3.74597C13.0365 3.08966 13.2532 2.83825 13.9006 2.70858C17.13 2.06285 20.3515 1.38361 23.565 0.670837C24.4424 0.475003 24.4873 0.951356 24.4873 1.59179C24.4873 5.98131 24.4873 10.3726 24.4873 14.7656L24.482 25.0681ZM15.6316 24.9649C15.6316 27.7648 15.6316 30.5656 15.6316 33.3673C15.6316 34.5449 16.0994 35.1457 16.9926 35.151C17.8858 35.1563 18.3959 34.5476 18.3959 33.3911C18.3959 27.7913 18.3959 22.1897 18.3959 16.5864C18.3959 15.4272 17.9043 14.8053 17.019 14.7974C16.1337 14.7895 15.6342 15.3981 15.6316 16.5599C15.6281 19.3686 15.6281 22.1738 15.6316 24.9755V24.9649ZM10.2801 25.0761C10.2801 31.7803 10.2801 38.4793 10.2801 45.1729C10.2801 46.467 10.2801 46.4697 9.00634 46.2077C6.33456 45.6546 3.66543 45.075 0.985724 44.5537C0.221982 44.4055 0 44.072 0 43.3019C0.0246653 31.0914 0.0246653 18.8808 0 6.67025C0 5.81017 0.311836 5.53494 1.07822 5.38675C3.75792 4.85746 6.42705 4.29113 9.10147 3.73803C10.2537 3.49985 10.2854 3.51838 10.2854 4.6828C10.2836 11.4894 10.2819 18.2907 10.2801 25.0867V25.0761ZM5.1427 24.9279C5.1427 27.4023 5.1427 29.8767 5.1427 32.3511C5.1427 33.4096 5.67124 34.058 6.48784 34.0739C7.30444 34.0898 7.90168 33.4414 7.90433 32.4066C7.9149 27.4578 7.9149 22.5099 7.90433 17.5629C7.90433 16.5229 7.32822 15.8745 6.49312 15.8877C5.65803 15.901 5.14799 16.5387 5.1427 17.6052C5.13742 20.0558 5.1427 22.4985 5.1427 24.9385V24.9279ZM41.1469 40.2294C41.1469 41.1107 41.4403 41.3383 42.2489 41.1848C43.0213 41.0165 43.8062 40.912 44.5957 40.8725C45.4942 40.8566 45.6739 40.4385 45.6686 39.634C45.6395 35.2436 45.6554 30.8532 45.6554 26.4654C45.6554 21.0853 45.6554 15.7051 45.6686 10.3223C45.6686 9.51251 45.4862 9.09702 44.593 9.08379C43.8371 9.03607 43.085 8.93971 42.3414 8.79533C41.2394 8.63919 41.1654 8.69741 41.1654 9.83007C41.1654 14.8794 41.1654 19.9288 41.1654 24.9782C41.1628 30.0751 41.1813 35.1589 41.1469 40.24V40.2294ZM34.186 26.566V40.8196C34.186 42.1613 34.186 42.1666 35.5576 42.0237C36.1152 41.9681 36.6702 41.8385 37.2252 41.8305C38.1448 41.8305 38.4249 41.4309 38.4223 40.4941C38.3879 30.6626 38.4012 20.8286 38.4012 10.9945C38.4012 10.3673 38.3694 9.7401 38.4012 9.11555C38.4329 8.49099 38.1844 8.27134 37.6268 8.21312C36.834 8.13373 36.0412 8.0808 35.2775 7.92466C34.371 7.73941 34.1517 8.06756 34.157 8.94617C34.1913 14.2575 34.1755 19.5689 34.1755 24.8829L34.186 26.566ZM48.4196 39.3111C48.4196 40.0759 48.5914 40.4253 49.4265 40.2718C50.2687 40.1148 51.1193 40.0079 51.9741 39.9516C52.6823 39.9013 52.9017 39.6102 52.899 38.893C52.8761 29.6182 52.8761 20.3425 52.899 11.066C52.899 10.4361 52.7722 10.0815 52.056 10.0444C51.2339 9.99462 50.4162 9.88762 49.6089 9.72422C48.6892 9.54426 48.4091 9.84331 48.4196 10.7828C48.4619 15.5013 48.4381 20.2225 48.4381 24.9437C48.4249 29.7391 48.4381 34.5264 48.4117 39.3111H48.4196ZM55.6422 38.3849C55.6422 39.2053 55.8457 39.5387 56.731 39.3508C57.6057 39.1963 58.4877 39.0868 59.3737 39.0227C59.9233 38.9645 60.1665 38.7289 60.1665 38.1335C60.1506 29.388 60.1506 20.6416 60.1665 11.8943C60.1665 11.2538 59.9022 11.0077 59.3208 10.9522C58.4658 10.9031 57.6148 10.7987 56.7732 10.6399C55.8298 10.4282 55.6316 10.7987 55.6369 11.6535C55.666 16.11 55.6501 20.5639 55.6501 25.0205C55.6501 29.4771 55.658 33.931 55.6342 38.3849H55.6422ZM62.9043 37.3978C62.8911 38.4061 63.2611 38.5913 64.1226 38.4272C64.8279 38.2629 65.5474 38.1672 66.2711 38.1414C67.278 38.1414 67.4339 37.6492 67.4286 36.7759C67.3943 32.0944 67.4128 27.4102 67.4128 22.7287C67.4128 19.463 67.3996 16.1974 67.4128 12.937C67.4128 12.2489 67.2304 11.9102 66.4826 11.8784C65.6617 11.8284 64.8456 11.7187 64.0407 11.5502C63.1686 11.3835 62.8937 11.6667 62.9017 12.5691C62.944 16.724 62.9202 20.8815 62.9202 25.0364C62.9202 29.1912 62.9519 33.2747 62.8964 37.3978H62.9043ZM70.1718 36.6277C70.1718 37.3554 70.3568 37.6598 71.139 37.5169C72.0138 37.3643 72.8959 37.2565 73.7817 37.194C74.4397 37.1384 74.6564 36.85 74.6485 36.1831C74.6141 33.444 74.6353 30.7023 74.6353 27.9633C74.6353 23.2765 74.6168 18.5871 74.6511 13.9003C74.6511 13.1487 74.4344 12.8205 73.6839 12.7702C72.8616 12.728 72.0431 12.6299 71.2341 12.4765C70.362 12.3018 70.1585 12.6379 70.177 13.4557C70.2061 17.2824 70.177 21.1144 70.177 24.9437C70.1744 28.8287 70.185 32.7348 70.1638 36.6277H70.1718ZM77.3969 35.6882C77.3969 36.4821 77.6242 36.7706 78.4408 36.6118C79.3102 36.4451 80.1982 36.3472 81.0835 36.2757C81.694 36.2228 81.9265 35.9581 81.9239 35.3283C81.908 28.4353 81.908 21.5405 81.9239 14.6439C81.9239 14.0035 81.6596 13.7574 81.0703 13.7071C80.251 13.6383 79.4344 13.5324 78.6205 13.4186C77.4286 13.2519 77.4075 13.2598 77.4075 14.5063C77.4075 18.0013 77.4075 21.4981 77.4075 24.9967C77.3996 28.564 77.4128 32.1235 77.389 35.6882H77.3969ZM88.0602 16.8563C88.0364 14.0141 88.4408 14.7948 85.8139 14.3078C84.9656 14.1517 84.6591 14.3846 84.6644 15.3134C84.704 21.3499 84.6855 27.3864 84.6855 33.4229C84.6855 35.7623 84.6855 35.7305 87.0269 35.5215C87.8198 35.45 88.084 35.1907 88.084 34.3756C88.0417 31.2422 88.0655 28.1062 88.0655 24.9729C88.055 22.2682 88.0708 19.5662 88.0523 16.8563H88.0602Z" />
</svg>
