<svg width="73" height="50" viewBox="0 0 73 50" fill="none" xmlns="http://www.w3.org/2000/svg">
<path d="M43.0747 41.6013H28.8715C28.5847 43.9705 27.4248 46.1461 25.6201 47.6996C23.8154 49.2531 21.4967 50.072 19.1207 49.995C15.6577 49.7964 11.1162 47.3676 10.3544 41.5516C9.74587 41.5516 9.11758 41.5814 8.49424 41.5516C7.18283 41.5451 5.87353 41.4455 4.5761 41.2536C3.34995 40.9942 2.24233 40.3384 1.42294 39.3866C0.603561 38.4348 0.117619 37.2395 0.039578 35.9839C0.0148423 35.6462 0 35.3035 0 34.9608C0 25.5687 0 16.1816 0 6.78948C0 4.42532 0.76186 2.48333 2.77535 1.14728C3.95545 0.392509 5.33449 0.0117694 6.73306 0.0545954C11.5582 0.0545954 16.38 0.0545954 21.1985 0.0545954C29.1832 0.0545954 37.1728 0.168831 45.1575 0.00492887C49.1528 -0.0900905 53.0601 1.19119 56.2292 3.6356C57.3689 4.47187 58.4469 5.3898 59.4547 6.3822C63.1651 10.0526 66.821 13.7876 70.5264 17.463C71.2834 18.1734 71.8857 19.0336 72.2952 19.9893C72.7047 20.945 72.9127 21.9754 72.906 23.0158C72.906 26.9047 73 30.7937 73 34.6826C73 38.8646 70.3088 41.5218 66.1185 41.5516C64.6344 41.5516 63.1502 41.5516 61.5968 41.5516C61.4383 42.9918 60.955 44.3769 60.1835 45.6015C59.412 46.8262 58.3726 47.8582 57.1444 48.6192C55.4335 49.6849 53.4183 50.1497 51.4156 49.9404C47.1759 49.5878 44.2621 46.6922 43.0747 41.6013ZM51.9301 23.9892H59.5982C60.6668 23.9892 61.6166 23.6614 62.1064 22.6681C62.5962 21.6748 62.1064 20.7311 61.5078 19.8917C61.4181 19.7759 61.3188 19.6679 61.211 19.5689C57.8469 16.2577 54.4845 12.9615 51.1237 9.68011C50.5746 9.11978 49.9179 8.67723 49.1934 8.37927C48.4689 8.08131 47.6916 7.93416 46.9088 7.94672C46.0777 7.94672 45.2515 7.94672 44.4352 7.94672C42.1348 7.94672 40.9722 9.12384 40.9722 11.4234C40.9722 14.3836 40.9722 17.3421 40.9722 20.299C40.9722 22.7078 42.2288 23.9495 44.6331 23.9545L51.9301 23.9892ZM52.1132 47.2335C52.9326 47.2613 53.7494 47.1264 54.5167 46.8363C55.284 46.5462 55.9866 46.1068 56.5842 45.5433C57.1819 44.9798 57.6627 44.3032 57.9991 43.5526C58.3355 42.8019 58.5208 41.9919 58.5445 41.1692C58.7226 37.7818 55.868 34.9061 52.4248 34.8465C48.8481 34.7819 46.0975 37.5087 45.9936 41.2039C45.9194 44.328 48.7689 47.1342 52.1132 47.2186V47.2335ZM19.5165 47.2335C20.3712 47.2407 21.2189 47.0779 22.0106 46.7543C22.8023 46.4308 23.5223 45.9529 24.129 45.3484C24.7358 44.7439 25.2172 44.0247 25.5455 43.2324C25.8738 42.44 26.0424 41.5902 26.0417 40.7321C25.9018 39.1335 25.1613 37.6483 23.9703 36.5779C22.7794 35.5076 21.2274 34.9323 19.6294 34.969C18.0314 35.0057 16.5071 35.6515 15.3662 36.7753C14.2252 37.8992 13.5529 39.4168 13.4859 41.0202C13.4688 41.8267 13.6121 42.6287 13.9073 43.379C14.2025 44.1294 14.6437 44.8131 15.2052 45.3902C15.7667 45.9674 16.4372 46.4263 17.1775 46.7403C17.9177 47.0542 18.7129 47.2168 19.5165 47.2186V47.2335ZM19.561 11.5426H25.4036C26.7937 11.5426 28.1839 11.5426 29.5691 11.5426C29.9501 11.5431 30.3168 11.3964 30.5931 11.1329C30.8694 10.8694 31.0341 10.5092 31.0532 10.1271C31.0855 9.74529 30.973 9.3653 30.7382 9.06322C30.5033 8.76114 30.1635 8.55927 29.7867 8.49803C29.4742 8.45002 29.1578 8.43173 28.8418 8.4434H10.6561C10.3148 8.4434 9.97344 8.4434 9.63208 8.4434C9.33755 8.45453 9.05214 8.54904 8.8088 8.71601C8.56546 8.88298 8.37409 9.11561 8.25678 9.38707C7.76206 10.45 8.55855 11.5277 9.83986 11.5377C13.0802 11.5327 16.3206 11.5277 19.561 11.5277V11.5426ZM22.0346 16.3157C19.561 16.3157 17.1171 16.3157 14.6584 16.3157C14.4509 16.3057 14.2435 16.3374 14.0483 16.4091C13.8532 16.4807 13.6744 16.5908 13.5223 16.7329C13.3702 16.875 13.2479 17.0461 13.1626 17.2363C13.0774 17.4265 13.0309 17.6319 13.0258 17.8404C13.0297 18.2616 13.1995 18.664 13.4979 18.9599C13.7964 19.2558 14.1993 19.4212 14.6188 19.4199C14.8117 19.4199 15.0096 19.4199 15.2026 19.4199H26.9669C27.8178 19.4199 28.6736 19.4199 29.5245 19.4199C29.7575 19.4251 29.9886 19.3764 30.1999 19.2775C30.4111 19.1787 30.5969 19.0324 30.7427 18.8499C30.8886 18.6674 30.9907 18.4537 31.0411 18.2252C31.0915 17.9968 31.0889 17.7598 31.0334 17.5325C30.9435 17.1601 30.7231 16.8326 30.4123 16.6101C30.1016 16.3875 29.7215 16.2848 29.3415 16.3206C26.9174 16.2958 24.4834 16.3008 22.0445 16.3008L22.0346 16.3157ZM24.3795 26.7011C25.9379 26.7011 27.4913 26.7011 29.0496 26.7011C30.3655 26.7011 31.0779 26.1299 31.068 25.1217C31.0581 24.1134 30.3507 23.5869 29.015 23.577H20.0458C19.7297 23.5693 19.4135 23.5892 19.1009 23.6366C18.7609 23.7059 18.4548 23.8899 18.2335 24.1581C18.0122 24.4262 17.8889 24.7624 17.8843 25.1106C17.8797 25.4588 17.994 25.7982 18.2081 26.0722C18.4222 26.3462 18.7233 26.5383 19.0613 26.6166C19.3491 26.664 19.6406 26.6839 19.932 26.6762C21.4162 26.7011 22.8954 26.7011 24.3795 26.7011ZM52.3754 38.0799C51.7601 38.0935 51.1626 38.2892 50.6576 38.6423C50.1526 38.9955 49.7627 39.4903 49.5366 40.065C49.3106 40.6396 49.2584 41.2685 49.3868 41.8727C49.5151 42.477 49.8183 43.0298 50.2582 43.4618C50.698 43.8939 51.2552 44.186 51.8597 44.3016C52.4642 44.4172 53.0893 44.3511 53.6566 44.1116C54.2239 43.8721 54.7081 43.4699 55.0487 42.9553C55.3893 42.4407 55.5711 41.8367 55.5712 41.2188C55.5608 40.3766 55.2189 39.5727 54.6201 38.9827C54.0213 38.3928 53.2143 38.0646 52.3754 38.0699V38.0799ZM22.9696 41.2387C23.0002 40.5854 22.835 39.9378 22.4951 39.3799C22.1552 38.8219 21.6564 38.3791 21.0632 38.1088C20.47 37.8386 19.8096 37.7532 19.1675 37.8638C18.5254 37.9744 17.9312 38.2759 17.4616 38.7292C16.992 39.1826 16.6688 39.7669 16.5336 40.4067C16.3984 41.0465 16.4576 41.7123 16.7034 42.318C16.9492 42.9237 17.3704 43.4414 17.9125 43.8042C18.4546 44.1669 19.0926 44.3581 19.744 44.3528C20.5805 44.3546 21.3849 44.0296 21.9869 43.4465C22.5889 42.8634 22.9413 42.0681 22.9696 41.2288V41.2387Z" />
</svg>
