<svg width="45" height="50" viewBox="0 0 45 50" fill="none" xmlns="http://www.w3.org/2000/svg">
<path d="M2.14286 0C0.964286 0 0 0.938194 0 2.08333V37.4924C0 38.6375 0.964286 39.5757 2.14286 39.5757H3.21429V37.4924H4.28571V41.4854H5.40714V42.1799H4.28571H2.85714C2.46429 42.1799 2.14286 42.4924 2.14286 42.8743V44.6104C2.14286 44.9924 2.46429 45.3049 2.85714 45.3049H5.40714V49.25C5.40714 49.6625 5.75429 50 6.17857 50H13.2071C13.6314 50 13.9786 49.6625 13.9786 49.25V47.3882H11.7857C11.1943 47.3882 10.7143 46.9222 10.7143 46.3465C10.7143 45.7708 11.1943 45.3049 11.7857 45.3049H33.2143C33.8057 45.3049 34.2857 45.7708 34.2857 46.3465C34.2857 46.9222 33.8057 47.3882 33.2143 47.3882H31.1214V49.25C31.1214 49.6625 31.4686 50 31.8929 50H38.9214C39.3457 50 39.6929 49.6625 39.6929 49.25V45.3049H42.1429C42.5357 45.3049 42.8571 44.9924 42.8571 44.6104V42.8743C42.8571 42.4924 42.5357 42.1799 42.1429 42.1799H40.7143H39.6929V41.4854H40.7143V37.4924H41.7857V39.5757H42.8571C44.0357 39.5757 45 38.6375 45 37.4924V2.08333C45 0.938194 44.0357 0 42.8571 0H2.14286ZM10.9171 24.3243L11.7514 20.1194C11.8629 19.5569 12.4364 19.0965 13.0257 19.0965H31.9736C32.5629 19.0965 33.1364 19.5569 33.2479 20.1194L34.0821 24.3243C34.1943 24.8861 33.8036 25.3472 33.2143 25.3472H11.7857C11.1964 25.3472 10.8057 24.8861 10.9171 24.3243ZM5.53571 27.7778C5.24143 27.7778 5 27.5431 5 27.2569V25.1736C5 24.8875 5.24143 24.6528 5.53571 24.6528H6.60714C6.90143 24.6528 7.25 24.8625 7.38286 25.1187L7.97429 26.2701C8.10714 26.5264 8.45571 26.7361 8.75 26.7361L8.15286 27.7778H5.53571ZM12.8571 35.6118C12.8571 36.1847 12.375 36.6535 11.7857 36.6535H7.5C6.91071 36.6535 6.42857 36.1847 6.42857 35.6118V33.5285C6.42857 32.9556 6.91071 32.4868 7.5 32.4868H11.7857C12.375 32.4868 12.8571 32.9556 12.8571 33.5285V35.6118ZM28.9286 39.9076H16.0714V38.866H28.9286V39.9076ZM28.9286 36.8118H16.0714V35.7701H28.9286V36.8118ZM38.5714 35.6118C38.5714 36.1847 38.0893 36.6535 37.5 36.6535H33.2143C32.625 36.6535 32.1429 36.1847 32.1429 35.6118V33.5285C32.1429 32.9556 32.625 32.4868 33.2143 32.4868H37.5C38.0893 32.4868 38.5714 32.9556 38.5714 33.5285V35.6118ZM40 27.2569C40 27.5431 39.7586 27.7778 39.4643 27.7778H36.8471L36.25 26.7361C36.5443 26.7361 36.8929 26.5264 37.0257 26.2701L37.6171 25.1187C37.75 24.8625 38.0986 24.6528 38.3929 24.6528H39.4643C39.7586 24.6528 40 24.8875 40 25.1736V27.2569Z" />
</svg>
