<svg width="55" height="50" viewBox="0 0 55 50" fill="none" xmlns="http://www.w3.org/2000/svg">
<path d="M12.8495 41.2299C13.858 40.2118 14.8797 39.1936 15.8752 38.1622C15.9943 38.0277 16.0597 37.8533 16.0586 37.6729V29.0117C16.0643 28.9104 16.0643 28.8089 16.0586 28.7076H6.88974C5.99291 28.766 5.09406 28.6305 4.25326 28.3101C3.41247 27.9897 2.64912 27.4918 2.01426 26.8496C1.37941 26.2075 0.88768 25.4359 0.571941 24.5865C0.256202 23.737 0.123736 22.8293 0.183404 21.9241V12.205C0.183404 10.8827 0.432272 10.6844 1.67661 10.6844H16.0848C16.0848 9.48104 16.0848 8.33061 16.0848 7.18019C16.0848 7.03474 15.8883 6.8364 15.7311 6.75706C12.6661 5.19672 9.60982 3.64959 6.56228 2.1157C6.31669 2.01748 6.05341 1.97244 5.78948 1.98348H1.67661C1.49347 1.99686 1.30962 1.99686 1.12648 1.98348C0.881052 1.95145 0.65547 1.83058 0.491655 1.64332C0.327841 1.45605 0.23692 1.21512 0.235789 0.965288C0.239182 0.840246 0.266957 0.717093 0.317514 0.602889C0.36807 0.488685 0.440414 0.385671 0.530429 0.299709C0.620444 0.213748 0.726361 0.146534 0.842118 0.101914C0.957875 0.0572944 1.08121 0.0361464 1.20507 0.039668C2.5149 0.039668 3.82473 0.039668 5.13457 0.039668C6.19587 -0.00223086 7.24788 0.254117 8.17339 0.780164C10.518 2.00992 12.9019 3.18679 15.2727 4.37688L16.0586 4.74713V3.42481C16.0586 2.68431 16.0586 1.9438 16.0586 1.2033C16.0586 0.462797 16.386 0 17.2374 0H37.7756C38.9151 0 39.1771 0.264454 39.1771 1.41487V4.68101L39.832 4.39009L47.9922 0.290912C48.236 0.142072 48.5084 0.0473961 48.7913 0.0132159H54.1223C54.3303 -0.00922989 54.5388 0.0515979 54.7029 0.182642C54.867 0.313687 54.9736 0.504489 54.9998 0.714044C55.0049 1.08276 54.8848 1.44211 54.6593 1.73224C54.4114 1.90872 54.1104 1.99283 53.8079 1.97024C52.3802 1.97024 50.9525 1.97024 49.5248 1.97024C49.1993 1.9743 48.8782 2.04634 48.5817 2.18182C45.6084 3.67604 42.6481 5.1967 39.6617 6.6777C39.5007 6.73146 39.3631 6.8399 39.2724 6.98455C39.1816 7.12921 39.1433 7.30115 39.164 7.4711C39.164 8.51574 39.164 9.56037 39.164 10.6711H53.6769C54.7641 10.6711 54.9868 10.962 54.9868 11.9934C54.9868 15.3389 54.9868 18.6844 54.9868 22.0166C55.0238 22.8949 54.8798 23.7713 54.5638 24.5904C54.2478 25.4095 53.7667 26.1534 53.151 26.775C52.5353 27.3965 51.7984 27.8822 50.987 28.2012C50.1757 28.5203 49.3076 28.6657 48.4376 28.6282C45.5822 28.6282 42.7136 28.6282 39.8582 28.6282H39.0985C39.0985 28.8663 39.0985 29.0514 39.0985 29.2365C39.0985 31.9605 39.0985 34.6845 39.0985 37.3952C39.1149 37.7143 39.2398 38.0178 39.4522 38.2547C40.369 39.2332 41.3383 40.1853 42.3862 41.2432C42.3862 40.9523 42.3862 40.7804 42.3862 40.6085C42.3862 39.1407 42.3862 37.6861 42.3862 36.2183C42.3497 35.656 42.4324 35.0923 42.6287 34.5648C42.8249 34.0372 43.1303 33.5579 43.5243 33.1588C43.9184 32.7597 44.3923 32.4499 44.9142 32.2501C45.4362 32.0503 45.9943 31.9651 46.5515 32.0001H50.9001C51.4316 31.9875 51.9601 32.0838 52.4537 32.2833C52.9472 32.4829 53.3955 32.7814 53.7714 33.161C54.1474 33.5405 54.4431 33.9931 54.6407 34.4913C54.8384 34.9896 54.9338 35.5231 54.9213 36.0597C54.9213 39.3522 54.9213 42.6713 54.9213 45.9506C54.9317 46.4782 54.8378 47.0026 54.645 47.4931C54.4522 47.9836 54.1644 48.4303 53.7985 48.8071C53.4326 49.184 52.9958 49.4832 52.5139 49.6875C52.0319 49.8918 51.5145 49.997 50.9918 49.9969C49.42 49.9969 47.8482 49.9969 46.2764 49.9969C45.7577 50.0181 45.2405 49.9294 44.7578 49.7367C44.2751 49.5439 43.8378 49.2513 43.4738 48.8777C43.1099 48.504 42.8274 48.0576 42.6446 47.5672C42.4618 47.0767 42.3827 46.5531 42.4124 46.03C42.4824 45.363 42.3791 44.6891 42.1127 44.0746C41.8463 43.4602 41.4259 42.9264 40.893 42.5258C40.1333 41.8911 39.4784 41.1109 38.7187 40.3308C38.5877 40.6217 38.496 40.8333 38.3912 41.0448C37.9113 42.1034 37.1401 43.0003 36.1693 43.6287C35.1985 44.257 34.0693 44.5902 32.9161 44.5886C29.5236 44.6548 26.1312 44.5886 22.7387 44.5886C21.3362 44.6784 19.9423 44.3103 18.763 43.5388C17.5836 42.7673 16.6814 41.6333 16.1895 40.3043C15.5756 40.997 14.924 41.6548 14.2379 42.2746C13.6319 42.7121 13.1507 43.3029 12.8426 43.9876C12.5345 44.6724 12.4104 45.4269 12.4827 46.1754C12.4879 46.6626 12.3972 47.146 12.2157 47.5974C12.0342 48.0489 11.7656 48.4595 11.4256 48.8052C11.0856 49.1509 10.6808 49.425 10.2349 49.6114C9.78906 49.7978 9.31091 49.8929 8.8283 49.8911C7.12552 49.8911 5.43584 49.8911 3.73306 49.8911C2.73003 49.8601 1.77862 49.4351 1.08138 48.7065C0.384136 47.9779 -0.00385445 47.0034 2.88717e-05 45.9903C2.88717e-05 42.6052 2.88717e-05 39.22 2.88717e-05 35.8349C2.88717e-05 34.7828 0.414025 33.7738 1.15095 33.0298C1.88787 32.2859 2.88736 31.8679 3.92952 31.8679C5.52752 31.8679 7.11241 31.8679 8.7104 31.8679C9.71357 31.8643 10.678 32.2586 11.3959 32.966C12.1138 33.6734 12.5276 34.6372 12.5482 35.6497C12.5482 37.1969 12.5482 38.744 12.5482 40.2911V40.9523L12.8495 41.2299ZM11.7099 23.2993H16.7921C17.6827 23.2993 18.0102 22.9687 18.0233 22.0695C18.0233 20.4695 18.0233 18.8563 18.0233 17.2563C18.0233 16.3306 17.6697 15.9339 16.7135 15.9339H6.68018C5.7633 15.9339 5.37035 16.291 5.37035 17.2563C5.37035 18.8298 5.37035 20.3902 5.37035 21.9505C5.37035 22.9951 5.67161 23.2728 6.68018 23.2728L11.7099 23.2993ZM43.4865 23.2993H48.5162C49.4724 23.2993 49.826 22.9687 49.826 21.977V17.3488C49.826 16.3571 49.4855 16.0265 48.5162 16.0265H38.6008C37.6315 16.0265 37.2909 16.3703 37.2909 17.3488V22.1092C37.2909 23.0613 37.6184 23.4315 38.6008 23.4315L43.4865 23.2993ZM21.3241 22.3208C21.3241 24.053 21.3241 25.7852 21.3241 27.5043C21.3241 28.2448 21.6908 28.6679 22.2934 28.6679C22.8959 28.6679 23.2757 28.2315 23.2757 27.5043C23.2757 24.0794 23.2757 20.6679 23.2757 17.2431C23.2757 16.4893 22.8566 16.0133 22.2541 16.0397C21.6516 16.0662 21.3241 16.5025 21.3241 17.2563C21.3241 18.9356 21.3241 20.6546 21.3241 22.3208ZM31.8944 22.3208C31.8944 24.053 31.8944 25.7852 31.8944 27.5175C31.8797 27.6563 31.8941 27.7968 31.9368 27.9296C31.9796 28.0624 32.0496 28.1846 32.1423 28.2882C32.235 28.3918 32.3484 28.4745 32.475 28.5308C32.6016 28.5871 32.7385 28.6158 32.8768 28.615C33.0153 28.6182 33.1528 28.5911 33.2799 28.5354C33.4069 28.4797 33.5205 28.3967 33.6127 28.2924C33.7049 28.188 33.7735 28.0646 33.8138 27.9308C33.8541 27.797 33.8651 27.656 33.8461 27.5175C33.8461 24.0266 33.8461 20.5488 33.8461 17.0711C33.8707 16.8527 33.8187 16.6325 33.699 16.4489C33.5793 16.2652 33.3996 16.1298 33.1912 16.0662C32.51 15.8017 31.8813 16.291 31.8813 17.1373C31.9206 18.9224 31.9337 20.6546 31.9337 22.3737L31.8944 22.3208ZM26.6551 22.3208V27.4382C26.6551 28.1919 27.0218 28.615 27.6113 28.6282C28.2007 28.6415 28.6199 28.1919 28.6199 27.4249V17.2298C28.6199 16.4629 28.24 16.0001 27.6244 16.0001C27.0088 16.0001 26.6682 16.4761 26.6551 17.2431V22.3208ZM7.45297 18.01V21.2761H16.0848V18.01H7.45297ZM39.2426 18.01V21.2893H47.7958V18.01H39.2426Z" />
</svg>
