<svg className="w-[50px] h-[50px] lg:w-[65px] lg:h-[65px]" width="65" height="65" viewBox="0 0 65 65" fill="none" xmlns="http://www.w3.org/2000/svg">
                    <rect width="65" height="65" rx="4" fill="#253A86" />
                    <g clip-path="url(#clip0_474_2419)">
                        <path d="M41.3918 53.0001C46.6941 52.9009 50.6626 49.2785 50.9855 44.5759C51.0685 43.3703 50.729 42.4586 49.6387 41.9718C46.8879 40.7438 44.1186 39.555 41.3476 38.37C41.0354 38.2258 40.685 38.1908 40.3511 38.2704C40.0172 38.3501 39.7188 38.5398 39.5026 38.8099C38.9623 39.4394 38.4648 40.1055 38.0138 40.8037C37.1042 42.1834 36.4659 42.3856 35.1265 41.472C32.7281 39.8321 30.4274 38.0517 28.5899 35.7472C26.6435 33.3136 25.0402 30.6646 24.1049 27.6431C23.8208 26.7314 24.1049 26.1454 24.9665 25.7804C25.7393 25.4758 26.4944 25.1271 27.2283 24.7358C28.3537 24.0955 28.5862 23.5339 28.3777 22.2703C28.2191 21.3174 28.0788 20.3589 27.8685 19.4173C27.4645 17.6257 27.0807 15.8248 26.5623 14.065C26.2413 12.9736 25.5162 12.178 24.2728 12.0488C19.8043 11.5845 15.9706 14.1081 14.5758 18.4269C13.574 21.5158 13.9762 24.528 15.0389 27.4971C16.5886 31.829 19.0332 35.6349 21.8504 39.2087C25.3834 43.6885 29.2651 47.7865 34.1745 50.7668C36.4991 52.1858 38.9713 52.9908 41.3918 53.0001Z" fill="white" />
                        <path d="M41.392 53C38.9752 53 36.503 52.1857 34.1784 50.7741C29.269 47.7938 25.3873 43.6959 21.8543 39.216C19.0371 35.6423 16.5925 31.8364 15.0428 27.5044C13.9801 24.5353 13.5779 21.5232 14.5797 18.4343C15.98 14.1136 19.8083 11.5919 24.2767 12.0562C25.5201 12.1853 26.2452 12.981 26.5662 14.0724C27.0846 15.8321 27.4684 17.6293 27.8724 19.4246C28.0827 20.3606 28.223 21.3247 28.3816 22.2776C28.5901 23.5413 28.3576 24.1029 27.2322 24.7431C26.4989 25.1344 25.7444 25.4831 24.9722 25.7877C24.118 26.1509 23.8265 26.7387 24.1106 27.6504C25.046 30.6719 26.6492 33.3134 28.5956 35.7546C30.4406 38.0591 32.7283 39.8394 35.1322 41.4793C36.4716 42.3929 37.11 42.1907 38.0195 40.811C38.4688 40.1079 38.9651 39.4367 39.5047 38.8023C39.7209 38.5322 40.0193 38.3424 40.3532 38.2628C40.687 38.1832 41.0375 38.2182 41.3496 38.3624C44.117 39.5474 46.8844 40.7361 49.6407 41.9642C50.7311 42.451 51.0705 43.3626 50.9875 44.5682C50.6591 49.2784 46.6907 52.9008 41.392 53Z" fill="white" />
                    </g>
                    <defs>
                        <clipPath id="clip0_474_2419">
                            <rect width="37" height="41" fill="white" transform="translate(14 12)" />
                        </clipPath>
                    </defs>
                </svg>