<svg width="20" height="20" viewBox="0 0 20 20" fill="none" xmlns="http://www.w3.org/2000/svg">
<path d="M19.4872 16.1867L3.81314 0.512691C3.12955 -0.170897 2.02128 -0.170897 1.33876 0.512691L0.512691 1.33748C-0.170897 2.02128 -0.170897 3.12955 0.512691 3.81207L16.1867 19.4861C16.8705 20.1697 17.9788 20.1697 18.6613 19.4861L19.4861 18.6613C20.171 17.9788 20.171 16.8703 19.4872 16.1867Z" fill="#F44336"/>
<path d="M16.1867 0.512653L0.512691 16.1867C-0.170897 16.8703 -0.170897 17.9788 0.512691 18.6613L1.33748 19.4861C2.02128 20.1697 3.12955 20.1697 3.81207 19.4861L19.4872 3.8131C20.171 3.12951 20.171 2.02125 19.4872 1.33873L18.6624 0.513935C17.9788 -0.170935 16.8705 -0.170935 16.1867 0.512653Z" fill="#F44336"/>
</svg>
