<svg width="18" height="20" viewBox="0 0 18 20" fill="none" xmlns="http://www.w3.org/2000/svg">
<path d="M16.1186 15.8348C14.9667 17.0775 13.492 17.762 11.9659 17.762C9.4647 17.762 7.29901 15.9605 6.27977 13.3563H13.2273C13.8297 13.3563 14.3182 12.8554 14.3182 12.2375C14.3182 11.6196 13.8297 11.1186 13.2273 11.1186H5.72541C5.68251 10.7528 5.65908 10.3797 5.65908 9.99972C5.65908 9.57113 5.68851 9.15099 5.74339 8.74097H13.2273C13.8297 8.74097 14.3182 8.24 14.3182 7.62211C14.3182 7.00422 13.8297 6.5032 13.2273 6.5032H6.33781C7.3789 3.97535 9.50998 2.23749 11.9659 2.23749C13.492 2.23749 14.9667 2.92202 16.1186 4.16455C16.5332 4.61214 17.2233 4.63054 17.6607 4.20485C18.0974 3.77898 18.1147 3.07079 17.7001 2.62297C16.1324 0.931505 14.0961 0 11.9662 0C8.32934 0 5.22057 2.70911 4.01419 6.50353H1.09088C0.488442 6.50353 0 7.0045 0 7.62239C0 8.24028 0.488442 8.74125 1.09088 8.74125H3.54675C3.50255 9.15413 3.47727 9.57344 3.47727 10C3.47727 10.3786 3.49655 10.7512 3.53183 11.1189H1.09088C0.488442 11.1189 0 11.6199 0 12.2378C0 12.8557 0.488442 13.3566 1.09088 13.3566H3.97089C5.14437 17.2244 8.28455 20 11.9659 20C14.096 20 16.1319 19.0683 17.6995 17.3771C18.1145 16.9291 18.0974 16.221 17.6604 15.7952C17.2239 15.3693 16.5332 15.3871 16.1186 15.8348Z" fill="#009443"/>
</svg>
