<svg width="40" height="40" viewBox="0 0 40 40" fill="none" xmlns="http://www.w3.org/2000/svg">
<circle cx="20" cy="20" r="19.5" stroke="white" stroke-dasharray="2 2"/>
<path d="M16 20.5195C16 19.5132 16 18.5295 16 17.5248C16.5601 17.5248 17.1094 17.5248 17.6921 17.5248C17.6921 17.4295 17.6913 17.3553 17.6921 17.2807C17.6992 16.5794 17.6802 15.8769 17.7202 15.1775C17.7637 14.4094 18.0186 13.7037 18.5328 13.1086C19.0774 12.4776 19.793 12.1246 20.6099 12.0719C21.7107 12.0008 22.8177 12.0199 23.9387 12C23.9387 12.993 23.9387 13.9502 23.9387 14.9385C23.8785 14.9385 23.8096 14.9385 23.7407 14.9385C23.1945 14.9385 22.6479 14.9369 22.1017 14.9389C21.5618 14.9409 21.2792 15.208 21.2729 15.7367C21.2658 16.3201 21.2713 16.9039 21.2713 17.5127C22.1801 17.5127 23.0774 17.5127 24 17.5127C23.8947 18.5252 23.7926 19.5101 23.6881 20.5156C22.883 20.5156 22.0902 20.5156 21.2788 20.5156C21.2788 23.353 21.2788 26.1685 21.2788 29C20.08 29 18.9001 29 17.6921 29C17.6921 28.9172 17.6921 28.8352 17.6921 28.7528C17.6921 26.09 17.6901 23.4272 17.6964 20.7644C17.6968 20.5711 17.6541 20.5059 17.4475 20.5148C17.0402 20.5324 16.6313 20.5199 16.2232 20.5199C16.1528 20.5195 16.0819 20.5195 16 20.5195Z" fill="white"/>
</svg>
