<svg width="60" height="46" viewBox="0 0 60 46" fill="none" xmlns="http://www.w3.org/2000/svg">
<g clip-path="url(#clip0_325_2289)">
<path d="M53.75 45.3428H6.25C2.805 45.3428 0 42.5574 0 39.1365V6.86348C0 3.44254 2.805 0.657135 6.25 0.657135H53.75C57.195 0.657135 60 3.44254 60 6.86348V39.1365C60 42.5574 57.195 45.3428 53.75 45.3428ZM6.25 3.13967C4.1825 3.13967 2.5 4.81042 2.5 6.86348V39.1365C2.5 41.1896 4.1825 42.8603 6.25 42.8603H53.75C55.8175 42.8603 57.5 41.1896 57.5 39.1365V6.86348C57.5 4.81042 55.8175 3.13967 53.75 3.13967H6.25Z" fill="#253A86"/>
<path d="M18.75 23C15.305 23 12.5 20.2146 12.5 16.7937C12.5 13.3727 15.305 10.5873 18.75 10.5873C22.195 10.5873 25 13.3727 25 16.7937C25 20.2146 22.195 23 18.75 23ZM18.75 13.0699C16.6825 13.0699 15 14.7406 15 16.7937C15 18.8467 16.6825 20.5175 18.75 20.5175C20.8175 20.5175 22.5 18.8467 22.5 16.7937C22.5 14.7406 20.8175 13.0699 18.75 13.0699Z" fill="#253A86"/>
<path d="M28.75 35.4127C28.06 35.4127 27.5 34.8566 27.5 34.1714V31.6889C27.5 29.6358 25.8175 27.9651 23.75 27.9651H13.75C11.6825 27.9651 10 29.6358 10 31.6889V34.1714C10 34.8566 9.44 35.4127 8.75 35.4127C8.06 35.4127 7.5 34.8566 7.5 34.1714V31.6889C7.5 28.268 10.305 25.4825 13.75 25.4825H23.75C27.195 25.4825 30 28.268 30 31.6889V34.1714C30 34.8566 29.44 35.4127 28.75 35.4127Z" fill="#253A86"/>
<path d="M51.25 15.5524H36.25C35.56 15.5524 35 14.9963 35 14.3111C35 13.6259 35.56 13.0698 36.25 13.0698H51.25C51.94 13.0698 52.5 13.6259 52.5 14.3111C52.5 14.9963 51.94 15.5524 51.25 15.5524Z" fill="#253A86"/>
<path d="M51.25 25.4825H36.25C35.56 25.4825 35 24.9265 35 24.2413C35 23.5561 35.56 23 36.25 23H51.25C51.94 23 52.5 23.5561 52.5 24.2413C52.5 24.9265 51.94 25.4825 51.25 25.4825Z" fill="#253A86"/>
<path d="M51.25 35.4127H36.25C35.56 35.4127 35 34.8566 35 34.1714C35 33.4863 35.56 32.9302 36.25 32.9302H51.25C51.94 32.9302 52.5 33.4863 52.5 34.1714C52.5 34.8566 51.94 35.4127 51.25 35.4127Z" fill="#253A86"/>
</g>
<defs>
<clipPath id="clip0_325_2289">
<rect width="60" height="46" fill="white"/>
</clipPath>
</defs>
</svg>
