<svg width="21" height="20" viewBox="0 0 21 20" fill="none" xmlns="http://www.w3.org/2000/svg">
<path d="M4.70024 20C4.47016 20 4.24169 19.9287 4.0467 19.7885C3.68348 19.5269 3.5138 19.0773 3.61266 18.6434L4.96364 12.7292L0.381959 8.73605C0.0451737 8.44386 -0.0834839 7.98115 0.0547871 7.55776C0.193058 7.13517 0.569257 6.83598 1.01467 6.79506L7.0768 6.24811L9.47355 0.674012C9.65028 0.264478 10.0528 0 10.4999 0C10.9471 0 11.3496 0.264478 11.5263 0.673057L13.9231 6.24811L19.9842 6.79506C20.4306 6.83502 20.8068 7.13517 20.9451 7.55776C21.0833 7.98035 20.9555 8.44386 20.6187 8.73605L16.037 12.7284L17.388 18.6424C17.487 19.0773 17.3172 19.5269 16.9541 19.7877C16.5919 20.0486 16.1088 20.0686 15.7273 19.8408L10.4999 16.7363L5.27255 19.8425C5.09583 19.9468 4.89892 20 4.70024 20ZM10.4999 15.3989C10.6986 15.3989 10.8954 15.452 11.0722 15.5563L16.0056 18.4886L14.7306 12.9065C14.6396 12.5093 14.7753 12.0945 15.0842 11.8257L19.4103 8.05519L13.6867 7.53865C13.2746 7.50123 12.9202 7.24376 12.7592 6.86639L10.4999 1.60613L8.23793 6.86719C8.07867 7.24201 7.72426 7.49948 7.31313 7.5369L1.58875 8.05344L5.91472 11.824C6.22459 12.0935 6.36013 12.5075 6.26833 12.9058L4.99425 18.4877L9.92762 15.5563C10.1043 15.452 10.3013 15.3989 10.4999 15.3989ZM7.0305 6.35591C7.0305 6.35591 7.0305 6.35686 7.02954 6.35766L7.0305 6.35591ZM13.9676 6.35336L13.9686 6.35511C13.9686 6.35416 13.9686 6.35416 13.9676 6.35336Z" fill="white"/>
</svg>
