<svg width="40" height="40" viewBox="0 0 40 40" fill="none" xmlns="http://www.w3.org/2000/svg">
<circle cx="20" cy="20" r="19.5" stroke="white" stroke-dasharray="2 2"/>
<path d="M23.5905 15.8974C22.8871 12.5469 21.387 10.4272 19.9996 10.4272C18.6122 10.4272 17.1121 12.5469 16.4087 15.8974H23.5905Z" fill="white"/>
<path d="M15.999 19.9997C15.9989 20.9145 16.0583 21.8282 16.177 22.7348H23.8215C23.9402 21.8282 23.9997 20.9145 23.9995 19.9997C23.9997 19.085 23.9402 18.1713 23.8215 17.2646H16.177C16.0583 18.1713 15.9989 19.085 15.999 19.9997Z" fill="white"/>
<path d="M16.4087 24.1016C17.1121 27.452 18.6122 29.5717 19.9996 29.5717C21.387 29.5717 22.8871 27.452 23.5905 24.1016H16.4087Z" fill="white"/>
<path d="M24.9561 15.8982H29.1564C28.5253 14.4252 27.5664 13.1244 26.3566 12.1001C25.1468 11.0758 23.7197 10.3565 22.1899 10C23.4547 11.1412 24.4468 13.2513 24.9561 15.8982Z" fill="white"/>
<path d="M29.6361 17.2646H25.1691C25.2791 18.172 25.3341 19.0854 25.3338 19.9997C25.3339 20.9141 25.2787 21.8275 25.1685 22.7348H29.6354C30.1216 20.9455 30.1223 19.0539 29.6361 17.2646Z" fill="white"/>
<path d="M22.1899 29.9998C23.72 29.6434 25.1473 28.9243 26.3573 27.9C27.5674 26.8757 28.5265 25.5747 29.1577 24.1016H24.9575C24.4468 26.7484 23.4547 28.8586 22.1899 29.9998Z" fill="white"/>
<path d="M15.0435 24.1016H10.8433C11.4745 25.5747 12.4336 26.8757 13.6437 27.9C14.8537 28.9243 16.281 29.6434 17.8111 29.9998C16.545 28.8586 15.5529 26.7484 15.0435 24.1016Z" fill="white"/>
<path d="M17.8101 10C16.28 10.3563 14.8527 11.0755 13.6427 12.0998C12.4326 13.1241 11.4735 14.4251 10.8423 15.8982H15.0426C15.5533 13.2513 16.5453 11.1412 17.8101 10Z" fill="white"/>
<path d="M14.6663 19.9997C14.6662 19.0854 14.7214 18.172 14.8316 17.2646H10.3647C9.87845 19.0539 9.87845 20.9455 10.3647 22.7348H14.8316C14.7214 21.8275 14.6662 20.9141 14.6663 19.9997Z" fill="white"/>
</svg>
