<svg width="50" height="50" viewBox="0 0 50 50" fill="none" xmlns="http://www.w3.org/2000/svg">
<path d="M10.1074 26.6115C10.1074 26.8057 10.1846 26.992 10.3219 27.1294C10.4593 27.2667 10.6456 27.3439 10.8398 27.3439H12.793C12.9872 27.3439 13.1735 27.2667 13.3109 27.1294C13.4482 26.992 13.5254 26.8057 13.5254 26.6115V25.879H10.1074V26.6115Z" />
<path d="M38.916 22.4609H37.4512V24.4141H38.916V22.4609Z" />
<path d="M12.5488 22.4609H11.084V24.4141H12.5488V22.4609Z" />
<path d="M36.4746 26.6115C36.4746 26.8057 36.5518 26.992 36.6891 27.1294C36.8265 27.2667 37.0128 27.3439 37.207 27.3439H39.1602C39.3544 27.3439 39.5407 27.2667 39.6781 27.1294C39.8154 26.992 39.8926 26.8057 39.8926 26.6115V25.879H36.4746V26.6115Z" />
<path d="M30.127 27.7832C30.1264 27.4596 29.9977 27.1494 29.7689 26.9206C29.54 26.6918 29.2298 26.563 28.9063 26.5625H21.0938C20.7702 26.563 20.46 26.6918 20.2312 26.9206C20.0023 27.1494 19.8736 27.4596 19.873 27.7832V33.3985H30.127V27.7832ZM27.9297 30.4688H22.0703C21.8761 30.4688 21.6898 30.3916 21.5524 30.2542C21.4151 30.1169 21.3379 29.9306 21.3379 29.7363C21.3379 29.5421 21.4151 29.3558 21.5524 29.2184C21.6898 29.0811 21.8761 29.0039 22.0703 29.0039H27.9297C28.1239 29.0039 28.3102 29.0811 28.4476 29.2184C28.585 29.3558 28.6621 29.5421 28.6621 29.7363C28.6621 29.9306 28.585 30.1169 28.4476 30.2542C28.3102 30.3916 28.1239 30.4688 27.9297 30.4688Z" />
<path d="M41.8457 33.3986C42.7522 33.3986 43.6216 33.0385 44.2626 32.3975C44.9036 31.7565 45.2637 30.8871 45.2637 29.9806V21.837C44.4282 22.2481 43.5093 22.4617 42.5782 22.4611H40.3809V24.4142H40.625C40.8193 24.4142 41.0056 24.4914 41.1429 24.6287C41.2803 24.7661 41.3574 24.9524 41.3574 25.1466V26.6115C41.3569 27.1941 41.1253 27.7526 40.7133 28.1646C40.3014 28.5766 39.7428 28.8082 39.1602 28.8087H37.2071C36.6245 28.8082 36.0659 28.5766 35.6539 28.1646C35.242 27.7526 35.0103 27.1941 35.0098 26.6115V25.1466C35.0098 24.9524 35.087 24.7661 35.2243 24.6287C35.3617 24.4914 35.548 24.4142 35.7422 24.4142H35.9864V22.4611H14.0137V24.4142H14.2578C14.4521 24.4142 14.6384 24.4914 14.7757 24.6287C14.9131 24.7661 14.9902 24.9524 14.9902 25.1466V26.6115C14.9897 27.1941 14.7581 27.7526 14.3461 28.1646C13.9342 28.5766 13.3756 28.8082 12.793 28.8087H10.8398C10.2573 28.8082 9.69867 28.5766 9.28672 28.1646C8.87476 27.7526 8.6431 27.1941 8.64258 26.6115V25.1466C8.64258 24.9524 8.71975 24.7661 8.8571 24.6287C8.99446 24.4914 9.18075 24.4142 9.375 24.4142H9.61914V22.4611H7.42188C6.4907 22.4617 5.57185 22.2481 4.73633 21.837V29.9806C4.73633 30.8871 5.09643 31.7565 5.73743 32.3975C6.37842 33.0385 7.2478 33.3986 8.1543 33.3986H18.4082V27.7833C18.4092 27.0714 18.6925 26.3889 19.1959 25.8855C19.6993 25.3821 20.3818 25.0988 21.0938 25.0978H28.9063C29.6182 25.0988 30.3007 25.3821 30.8041 25.8855C31.3075 26.3889 31.5908 27.0714 31.5918 27.7833V33.3986H41.8457Z" />
<path d="M17.1533 39.7461H14.0108L11.9414 36.2061C11.6994 35.7968 11.3549 35.4576 10.9418 35.2222C10.5288 34.9867 10.0614 34.863 9.58595 34.8633H3.87696C3.40164 34.8632 2.93451 34.9869 2.52162 35.2224C2.10874 35.4579 1.76436 35.7969 1.52246 36.2061L0 38.8096H8.42091C8.55052 38.8093 8.67794 38.8429 8.79051 38.9072C8.90307 38.9714 8.99685 39.064 9.06251 39.1758L10.752 42.0654C10.8172 42.1765 10.8516 42.3029 10.8516 42.4317C10.8516 42.5604 10.8172 42.6869 10.752 42.7979L9.06251 45.6875C8.99685 45.7993 8.90307 45.8919 8.79051 45.9561C8.67794 46.0204 8.55052 46.054 8.42091 46.0537H0L1.52246 48.6573C1.76436 49.0664 2.10874 49.4054 2.52162 49.6409C2.93451 49.8764 3.40164 50.0002 3.87696 50H9.58595C10.0614 50.0003 10.5288 49.8766 10.9418 49.6412C11.3549 49.4057 11.6994 49.0666 11.9414 48.6573L14.0108 45.1172H17.1533C17.0141 44.7253 16.9431 44.3124 16.9434 43.8965V40.9668C16.9431 40.5509 17.0141 40.138 17.1533 39.7461Z" />
<path d="M40.9375 45.6875L39.2481 42.7979C39.1828 42.6869 39.1484 42.5604 39.1484 42.4317C39.1484 42.3029 39.1828 42.1765 39.2481 42.0654L40.9375 39.1758C41.0032 39.064 41.0969 38.9714 41.2095 38.9072C41.3221 38.8429 41.4495 38.8093 41.5791 38.8096H50L48.4776 36.2061C48.2357 35.7969 47.8913 35.4579 47.4784 35.2224C47.0655 34.9869 46.5984 34.8632 46.1231 34.8633H40.4141C39.9386 34.863 39.4713 34.9867 39.0582 35.2222C38.6451 35.4576 38.3006 35.7968 38.0586 36.2061L35.9893 39.7461H32.8467C32.9859 40.138 33.0569 40.5509 33.0566 40.9668V43.8965C33.0569 44.3124 32.9859 44.7253 32.8467 45.1172H35.9893L38.0586 48.6573C38.3006 49.0666 38.6451 49.4057 39.0582 49.6412C39.4713 49.8766 39.9386 50.0003 40.4141 50H46.1231C46.5984 50.0002 47.0655 49.8764 47.4784 49.6409C47.8913 49.4054 48.2357 49.0664 48.4776 48.6573L50 46.0537H41.5791C41.4495 46.054 41.3221 46.0204 41.2095 45.9561C41.0969 45.8919 41.0032 45.7993 40.9375 45.6875Z" />
<path d="M29.3945 38.7697H20.6055C20.0229 38.7702 19.4643 39.0018 19.0523 39.4138C18.6404 39.8257 18.4087 40.3843 18.4082 40.9669V43.8966C18.4087 44.4792 18.6404 45.0378 19.0523 45.4498C19.4643 45.8617 20.0229 46.0934 20.6055 46.0939H29.3945C29.9771 46.0934 30.5357 45.8617 30.9477 45.4498C31.3596 45.0378 31.5913 44.4792 31.5918 43.8966V40.9669C31.5913 40.3843 31.3596 39.8257 30.9477 39.4138C30.5357 39.0018 29.9771 38.7702 29.3945 38.7697ZM23.5352 43.1642H22.5586C22.3643 43.1642 22.1781 43.087 22.0407 42.9497C21.9033 42.8123 21.8262 42.626 21.8262 42.4318C21.8262 42.2375 21.9033 42.0512 22.0407 41.9139C22.1781 41.7765 22.3643 41.6993 22.5586 41.6993H23.5352C23.7294 41.6993 23.9157 41.7765 24.0531 41.9139C24.1904 42.0512 24.2676 42.2375 24.2676 42.4318C24.2676 42.626 24.1904 42.8123 24.0531 42.9497C23.9157 43.087 23.7294 43.1642 23.5352 43.1642ZM27.4414 43.1642H26.4648C26.2706 43.1642 26.0843 43.087 25.9469 42.9497C25.8096 42.8123 25.7324 42.626 25.7324 42.4318C25.7324 42.2375 25.8096 42.0512 25.9469 41.9139C26.0843 41.7765 26.2706 41.6993 26.4648 41.6993H27.4414C27.6357 41.6993 27.822 41.7765 27.9593 41.9139C28.0967 42.0512 28.1738 42.2375 28.1738 42.4318C28.1738 42.626 28.0967 42.8123 27.9593 42.9497C27.822 43.087 27.6357 43.1642 27.4414 43.1642Z" />
<path d="M36.2305 13.1836H39.1602C39.3544 13.1836 39.5407 13.1064 39.6781 12.9691C39.8154 12.8317 39.8926 12.6454 39.8926 12.4512C39.8926 12.2569 39.8154 12.0706 39.6781 11.9333C39.5407 11.7959 39.3544 11.7188 39.1602 11.7188H36.2305C36.0362 11.7188 35.8499 11.7959 35.7126 11.9333C35.5752 12.0706 35.498 12.2569 35.498 12.4512C35.498 12.6454 35.5752 12.8317 35.7126 12.9691C35.8499 13.1064 36.0362 13.1836 36.2305 13.1836Z" />
<path d="M20.6055 13.1836H29.3945C29.5888 13.1836 29.7751 13.1064 29.9124 12.9691C30.0498 12.8317 30.127 12.6454 30.127 12.4512C30.127 12.2569 30.0498 12.0706 29.9124 11.9333C29.7751 11.7959 29.5888 11.7188 29.3945 11.7188H20.6055C20.4112 11.7188 20.2249 11.7959 20.0876 11.9333C19.9502 12.0706 19.873 12.2569 19.873 12.4512C19.873 12.6454 19.9502 12.8317 20.0876 12.9691C20.2249 13.1064 20.4112 13.1836 20.6055 13.1836Z" />
<path d="M7.42188 20.9961H42.5782C43.8084 20.9961 44.9883 20.5074 45.8582 19.6375C46.7281 18.7676 47.2168 17.5877 47.2168 16.3574V7.32422H2.7832V16.3574C2.7832 17.5877 3.27192 18.7676 4.14184 19.6375C5.01176 20.5074 6.19163 20.9961 7.42188 20.9961ZM36.2305 10.2539H39.1602C39.7429 10.2539 40.3018 10.4854 40.7139 10.8975C41.126 11.3095 41.3574 11.8684 41.3574 12.4512C41.3574 13.0339 41.126 13.5928 40.7139 14.0049C40.3018 14.417 39.7429 14.6485 39.1602 14.6485H36.2305C35.6477 14.6485 35.0889 14.417 34.6768 14.0049C34.2647 13.5928 34.0332 13.0339 34.0332 12.4512C34.0332 11.8684 34.2647 11.3095 34.6768 10.8975C35.0889 10.4854 35.6477 10.2539 36.2305 10.2539ZM20.6055 10.2539H29.3946C29.9773 10.2539 30.5362 10.4854 30.9483 10.8975C31.3603 11.3095 31.5918 11.8684 31.5918 12.4512C31.5918 13.0339 31.3603 13.5928 30.9483 14.0049C30.5362 14.417 29.9773 14.6485 29.3946 14.6485H20.6055C20.0227 14.6485 19.4638 14.417 19.0518 14.0049C18.6397 13.5928 18.4082 13.0339 18.4082 12.4512C18.4082 11.8684 18.6397 11.3095 19.0518 10.8975C19.4638 10.4854 20.0227 10.2539 20.6055 10.2539ZM10.8398 10.2539H13.7695C14.3523 10.2539 14.9112 10.4854 15.3232 10.8975C15.7353 11.3095 15.9668 11.8684 15.9668 12.4512C15.9668 13.0339 15.7353 13.5928 15.3232 14.0049C14.9112 14.417 14.3523 14.6485 13.7695 14.6485H10.8398C10.2571 14.6485 9.69821 14.417 9.28615 14.0049C8.87408 13.5928 8.64258 13.0339 8.64258 12.4512C8.64258 11.8684 8.87408 11.3095 9.28615 10.8975C9.69821 10.4854 10.2571 10.2539 10.8398 10.2539Z" />
<path d="M10.8398 13.1836H13.7695C13.9638 13.1836 14.1501 13.1064 14.2874 12.9691C14.4248 12.8317 14.502 12.6454 14.502 12.4512C14.502 12.2569 14.4248 12.0706 14.2874 11.9333C14.1501 11.7959 13.9638 11.7188 13.7695 11.7188H10.8398C10.6456 11.7188 10.4593 11.7959 10.3219 11.9333C10.1846 12.0706 10.1074 12.2569 10.1074 12.4512C10.1074 12.6454 10.1846 12.8317 10.3219 12.9691C10.4593 13.1064 10.6456 13.1836 10.8398 13.1836Z" />
<path d="M16.4551 3.66212C16.4551 3.46787 16.5322 3.28157 16.6696 3.14422C16.807 3.00686 16.9933 2.92969 17.1875 2.92969H32.8125C33.0068 2.92969 33.1931 3.00686 33.3304 3.14422C33.4678 3.28157 33.5449 3.46787 33.5449 3.66212V5.85939H36.4746V2.19727C36.4741 1.61468 36.2424 1.05609 35.8305 0.644137C35.4185 0.232181 34.86 0.000517172 34.2774 0L15.7227 0C15.1401 0.000517172 14.5815 0.232181 14.1695 0.644137C13.7576 1.05609 13.5259 1.61468 13.5254 2.19727V5.85939H16.4551V3.66212Z" />
</svg>
