<svg width="50" height="50" viewBox="0 0 50 50" fill="none" xmlns="http://www.w3.org/2000/svg">
<path d="M48.9583 17.846C48.4375 15.9729 47.6042 14.204 46.6667 12.539C45.2083 10.0416 43.3333 7.75234 41.1458 5.87929C39.6875 4.63059 38.125 3.59001 36.4583 2.75754C33.75 1.40479 30.9375 0.468262 27.9167 0.156087C26.0417 -0.0520291 24.1667 -0.0520291 22.2917 0.156087C19.2708 0.468262 16.4583 1.30073 13.75 2.65349C12.0833 3.48595 10.5208 4.52653 8.95833 5.77523C6.66667 7.64828 4.79167 9.93756 3.33333 12.435C2.39583 13.9958 1.66667 15.7648 1.04167 17.6379C0.3125 19.9272 0 22.4246 0 24.922V26.0666C0.104167 28.0437 0.416667 30.0208 0.9375 31.8939C1.66667 34.4953 2.91667 36.9927 4.47917 39.282C5.625 40.9469 6.97917 42.4037 8.4375 43.7565C10.4167 45.5255 12.7083 46.9823 15.2083 48.0229C17.0833 48.8554 18.9583 49.3757 20.9375 49.6878C22.2917 49.8959 23.6458 50 25 50C26.25 50 27.6042 49.8959 28.8542 49.6878C30.8333 49.3757 32.8125 48.8554 34.6875 48.0229C37.1875 46.9823 39.375 45.6296 41.4583 43.8606C42.9167 42.6119 44.2708 41.051 45.4167 39.4901C46.9792 37.3049 48.2292 34.8075 48.9583 32.206C49.4792 30.333 49.8958 28.3559 50 26.3788C50 25.9625 50 25.5463 50 25.026C50 22.5286 49.6875 20.1353 48.9583 17.846ZM46.1458 26.0666C46.1458 26.8991 46.0417 27.7315 45.8333 28.564C41.7708 28.3559 32.8125 27.4194 32.8125 24.4017C32.7083 21.384 41.5625 20.0312 45.5208 19.615C45.9375 21.384 46.25 23.153 46.25 24.922C46.1458 25.3382 46.1458 25.6504 46.1458 26.0666ZM45 18.2622L33.8542 19.5109C33.125 19.615 32.7083 18.5744 33.4375 18.1582L42.3958 13.0593C42.7083 13.5796 43.0208 14.0999 43.3333 14.6202C44.0625 15.6608 44.5833 16.9095 45 18.2622ZM38.5417 8.68887C36.25 12.0187 31.0417 19.3028 28.4375 17.846C25.8333 16.3892 29.0625 8.06452 30.625 4.52654C31.9792 4.94277 33.3333 5.46306 34.6875 6.19147C36.0417 6.81582 37.3958 7.75234 38.5417 8.68887ZM20.9375 28.9802C21.3542 28.4599 22.0833 28.3559 22.6042 28.7721C23.125 29.1883 23.2292 29.9168 22.8125 30.437C22.3958 30.9573 21.6667 31.0614 21.1458 30.6452C20.7292 30.2289 20.625 29.5005 20.9375 28.9802ZM19.6875 24.922C19.0625 24.7138 18.75 24.0895 18.9583 23.4651C19.1667 22.8408 19.7917 22.5286 20.4167 22.7367C21.0417 22.9449 21.3542 23.5692 21.1458 24.1936C20.9375 24.8179 20.3125 25.1301 19.6875 24.922ZM25 23.153C26.0417 23.153 26.7708 23.9854 26.7708 24.922C26.7708 25.9625 25.9375 26.691 25 26.691C23.9583 26.691 23.2292 25.8585 23.2292 24.922C23.2292 23.8814 23.9583 23.153 25 23.153ZM23.8542 20.1353C23.8542 19.5109 24.375 18.9906 25 18.9906C25.625 18.9906 26.1458 19.5109 26.1458 20.1353C26.1458 20.7596 25.625 21.2799 25 21.2799C24.375 21.384 23.8542 20.8637 23.8542 20.1353ZM27.0833 30.333C26.6667 29.8127 26.7708 29.0843 27.2917 28.6681C27.8125 28.2518 28.5417 28.4599 28.9583 28.9802C29.375 29.5005 29.2708 30.2289 28.75 30.6452C28.2292 30.9573 27.5 30.8533 27.0833 30.333ZM28.8542 24.1936C28.6458 23.5692 28.9583 22.9449 29.5833 22.7367C30.2083 22.5286 30.8333 22.8408 31.0417 23.4651C31.25 24.0895 30.9375 24.7138 30.3125 24.922C29.6875 25.1301 29.0625 24.8179 28.8542 24.1936ZM27.5 3.90219C28.0208 4.00624 28.6458 4.1103 29.1667 4.21436L24.6875 14.4121C24.375 15.1405 23.3333 14.9324 23.3333 14.0999V3.90219C23.9583 3.90219 24.4792 3.79813 25 3.79813C25.8333 3.79813 26.6667 3.79813 27.5 3.90219ZM15.5208 6.08741C16.25 5.67118 16.9792 5.359 17.8125 5.15088C19.5833 8.79292 23.2292 16.9095 20.7292 18.4703C18.2292 20.0312 12.6042 13.0593 10.2083 9.93757C10.625 9.52133 11.0417 9.1051 11.5625 8.79292C12.7083 7.64828 14.0625 6.71176 15.5208 6.08741ZM9.16667 10.9781L15.7292 20.0312C16.1458 20.6556 15.4167 21.488 14.7917 21.0718L5.83333 15.9729C6.04167 15.4527 6.35417 14.9324 6.66667 14.4121C7.39583 13.0593 8.22917 12.0187 9.16667 10.9781ZM3.85417 24.922C3.85417 23.6733 3.95833 22.4246 4.16667 21.2799C8.22917 21.488 17.0833 22.4246 17.1875 25.4422C17.2917 28.4599 8.4375 29.8127 4.47917 30.2289C4.0625 28.8762 3.85417 27.3153 3.85417 25.8585C3.85417 25.5463 3.85417 25.2341 3.85417 24.922ZM7.60417 36.8887C6.45833 35.2237 5.625 33.4547 5 31.5817L16.1458 30.333C16.875 30.2289 17.2917 31.2695 16.5625 31.6857L7.60417 36.8887ZM11.4583 41.051C13.6458 37.7211 18.9583 30.437 21.5625 31.8939C24.1667 33.3507 20.9375 41.6753 19.375 45.3174C18.4375 45.1093 17.6042 44.7971 16.7708 44.3809C14.7917 43.5484 13.0208 42.4037 11.4583 41.051ZM21.5625 45.7336C21.25 45.7336 21.0417 45.6296 20.7292 45.6296L25.2083 35.4318C25.5208 34.7034 26.5625 34.9116 26.5625 35.744V46.0458C25 46.1498 23.3333 46.0458 21.5625 45.7336ZM38.8542 40.8429C37.1875 42.2997 35.2083 43.5484 33.125 44.3809C32.8125 44.4849 32.5 44.589 32.1875 44.693C30.4167 41.051 26.6667 32.8304 29.2708 31.2695C31.875 29.7086 37.3958 36.6805 39.7917 39.8023C39.4792 40.3226 39.1667 40.5307 38.8542 40.8429ZM42.2917 37.0968C41.875 37.7211 41.3542 38.3455 40.8333 38.8658L34.2708 29.8127C33.8542 29.1883 34.5833 28.3559 35.2083 28.7721L44.1667 33.871C43.5417 35.1197 42.9167 36.1603 42.2917 37.0968Z" />
</svg>
