<svg width="50" height="50" viewBox="0 0 50 50" fill="none" xmlns="http://www.w3.org/2000/svg">
<path d="M33.3333 0H16.6667C7.3208 0 0 10.9812 0 25C0 39.0187 7.3208 50 16.6667 50H33.3334C42.6792 50 50 39.0187 50 25C50 10.9812 42.6792 0 33.3333 0ZM8.51455 9.37705L11.0271 11.8896C11.4208 12.2833 11.9521 12.5 12.5 12.5C12.6354 12.5 12.7729 12.4875 12.9083 12.4583L19.3813 11.1646C19.1396 11.7208 18.9083 12.2875 18.6958 12.8729C18.6854 12.9041 18.6708 12.9333 18.6604 12.9646C18.4333 13.5938 18.2312 14.2479 18.0416 14.9125L11.1104 16.4604L6.94365 12.1021C7.4167 11.1167 7.9458 10.2083 8.51455 9.37705ZM5.32705 16.4396L8.91035 20.1896C9.3083 20.6062 9.8541 20.8333 10.4166 20.8333C10.5666 20.8333 10.7208 20.8166 10.8708 20.7833L17.0833 19.3958C17 19.9708 16.9354 20.5562 16.8771 21.1458C16.8458 21.4438 16.8104 21.7354 16.7875 22.0375C16.7708 22.2646 16.7542 22.4917 16.7417 22.7229L8.98965 24.7563L4.5459 20.1083C4.7375 18.8375 4.99795 17.6125 5.32705 16.4396ZM4.1917 25.7646L6.82715 28.5229C7.22715 28.9396 7.7709 29.1666 8.3334 29.1666C8.51045 29.1666 8.6876 29.1437 8.8626 29.0979L16.7334 27.0333C16.7479 27.3438 16.7646 27.6541 16.7876 27.9625C16.8105 28.2646 16.8459 28.5563 16.8771 28.8542C16.9438 29.5292 17.0251 30.1959 17.1251 30.85C17.1313 30.8854 17.1334 30.9208 17.1376 30.9542L8.5668 33.2229L4.87305 31.7125C4.47295 29.827 4.2375 27.8292 4.1917 25.7646ZM6.4792 36.8708L7.63545 37.3438C7.8875 37.4479 8.15625 37.5 8.425 37.5C8.6042 37.5 8.7833 37.4771 8.9583 37.4312L18.0229 35.0292C18.2187 35.7146 18.4271 36.3875 18.6604 37.0354C18.6708 37.0667 18.6854 37.0959 18.6958 37.1271C18.9521 37.8334 19.2312 38.5188 19.5291 39.1792L9.225 41.5812C8.17295 40.252 7.24375 38.6667 6.4792 36.8708ZM16.6667 45.8333C15.45 45.8333 14.2709 45.5145 13.15 44.9458L21.3062 43.0458C21.4167 43.0187 21.5021 42.95 21.6063 42.9083C21.7729 43.1541 21.952 43.3812 22.1271 43.6166C22.2604 43.7958 22.3875 43.9854 22.525 44.1583C22.9896 44.7438 23.4708 45.3 23.9771 45.8083C23.9854 45.8166 23.9916 45.825 24 45.8333H16.6667ZM23.9771 4.1917C23.4708 4.7 22.9896 5.25625 22.525 5.8417C22.3917 6.01045 22.2687 6.18965 22.1396 6.36465L13.1854 8.15625L11.3104 6.2792C12.9459 4.94375 14.7605 4.1667 16.6667 4.1667H24C23.9917 4.175 23.9854 4.1833 23.9771 4.1917ZM33.3333 41.6667C27.8625 41.6667 25 33.2833 25 25C25 16.7167 27.8625 8.3333 33.3333 8.3333C38.8041 8.3333 41.6666 16.7166 41.6666 25C41.6666 33.2834 38.8042 41.6667 33.3333 41.6667Z" />
<path d="M33.3327 12.5C31.864 12.5 29.166 17.2458 29.166 25C29.166 32.7542 31.864 37.5 33.3327 37.5C34.8015 37.5 37.4994 32.7542 37.4994 25C37.4994 17.2458 34.8015 12.5 33.3327 12.5Z" />
</svg>
