<svg width="50" height="50" viewBox="0 0 50 50" fill="none" xmlns="http://www.w3.org/2000/svg">
<path d="M33.1474 6.42688L33.5926 7.61613L34.0377 6.42688C34.2237 5.93024 34.5139 5.47925 34.889 5.10437C35.2641 4.72949 35.7152 4.43942 36.2119 4.25376L37.3947 3.8086L36.2119 3.36344C35.7156 3.17728 35.2649 2.88689 34.8902 2.51185C34.5155 2.1368 34.2256 1.6858 34.0399 1.18925L33.5947 0L33.1474 1.18925C32.9618 1.6858 32.6718 2.1368 32.2971 2.51185C31.9225 2.88689 31.4718 3.17728 30.9754 3.36344L29.7861 3.8086L30.9754 4.25376C31.4717 4.43968 31.9224 4.72986 32.2971 5.10473C32.6718 5.4796 32.9617 5.93045 33.1474 6.42688Z" />
<path d="M41.402 10.8L41.7386 11.7011L42.0719 10.8C42.2127 10.4233 42.4327 10.0812 42.7171 9.79678C43.0014 9.5124 43.3436 9.29239 43.7203 9.15161L44.6214 8.81397L43.7203 8.47634C43.3436 8.33556 43.0014 8.11555 42.7171 7.83117C42.4327 7.54679 42.2127 7.20468 42.0719 6.82795L41.7343 5.92688L41.3977 6.82795C41.2566 7.2045 41.0365 7.54646 40.7522 7.83079C40.4678 8.11513 40.1259 8.33525 39.7493 8.47634L38.8472 8.81397L39.7493 9.15161C40.1267 9.29218 40.4695 9.51207 40.7546 9.79643C41.0397 10.0808 41.2605 10.423 41.402 10.8Z"/>
<path d="M46.4397 5.79355L46.7763 6.6957L47.1139 5.79355C47.255 5.417 47.4751 5.07505 47.7594 4.79071C48.0438 4.50637 48.3857 4.28625 48.7623 4.14516L49.6634 3.8086L48.7623 3.47097C48.3856 3.33019 48.0434 3.11018 47.7591 2.8258C47.4747 2.54142 47.2547 2.19931 47.1139 1.82258L46.7763 0.921509L46.4397 1.82258C46.2986 2.19913 46.0785 2.54109 45.7942 2.82542C45.5098 3.10976 45.1679 3.32988 44.7913 3.47097L43.8892 3.8086L44.7913 4.14516C45.1677 4.28662 45.5094 4.50687 45.7937 4.79116C46.078 5.07545 46.2982 5.41721 46.4397 5.79355Z" />
<path d="M41.9438 46.6698V48.9096C41.9438 49.0532 41.9722 49.1955 42.0274 49.3281C42.0825 49.4607 42.1633 49.5812 42.2651 49.6825C42.3669 49.7838 42.4877 49.864 42.6206 49.9185C42.7535 49.973 42.8959 50.0006 43.0395 49.9999H47.2331C47.5223 49.9999 47.7996 49.8851 48.0041 49.6806C48.2085 49.4761 48.3234 49.1988 48.3234 48.9096V44.5924C47.6312 45.2879 46.8019 45.8317 45.8882 46.1894C44.9744 46.547 43.9963 46.7106 43.0159 46.6698H41.9438Z" fill="#7E9DB8"/>
<path d="M1.35352 44.5291V48.9097C1.35352 49.1989 1.46839 49.4762 1.67286 49.6807C1.87734 49.8851 2.15467 50 2.44384 50H6.63738C6.92656 50 7.20388 49.8851 7.40836 49.6807C7.61283 49.4762 7.72771 49.1989 7.72771 48.9097V46.6699H6.72233C5.72695 46.7128 4.73379 46.5442 3.80835 46.1752C2.88291 45.8062 2.04623 45.2451 1.35352 44.5291Z" />
<path d="M1.38477 40.1613C1.38477 43.2516 3.5353 45.0527 6.7224 45.0527H43.0138C46.1966 45.0527 48.3514 43.2516 48.3514 40.1613V39.2688H1.38477V40.1613Z" />
<path d="M48.8462 20.2688L46.158 19.8022C45.9433 19.7647 45.7223 19.8008 45.5306 19.9046C45.339 20.0084 45.188 20.1739 45.1021 20.3742L44.2656 22.2656L43.9258 21.7473L41.5688 16.1828C41.1886 15.2801 40.585 14.489 39.8146 13.884C39.0443 13.279 38.1327 12.8801 37.1656 12.7247C33.0958 12.1068 28.9841 11.8066 24.8677 11.8269C20.7516 11.8077 16.6403 12.1089 12.571 12.728C11.6029 12.8826 10.6902 13.2812 9.91893 13.8862C9.14761 14.4912 8.54309 15.2827 8.16236 16.186L5.81075 21.7419L5.47634 22.2527L4.63441 20.3688C4.54854 20.1685 4.39756 20.003 4.20592 19.8992C4.01428 19.7954 3.7932 19.7593 3.57849 19.7968L0.889248 20.2688C0.640821 20.309 0.414839 20.4364 0.251863 20.6281C0.0888874 20.8198 -0.000409167 21.0634 1.40956e-06 21.3151V21.843C5.19798e-05 22.0853 0.0829318 22.3203 0.234894 22.5091C0.386857 22.6978 0.59877 22.8289 0.835485 22.8806L4.5172 23.7226L2.75376 26.4108C1.86132 27.7718 1.38593 29.3639 1.38602 30.9914V37.6581H48.3516V30.9914C48.3513 29.3638 47.8755 27.7717 46.9828 26.4108L45.2129 23.7097L48.9011 22.8785C49.1378 22.8267 49.3497 22.6956 49.5016 22.5069C49.6536 22.3182 49.7365 22.0832 49.7365 21.8409V21.3129C49.7364 21.0615 49.6467 20.8183 49.4836 20.627C49.3204 20.4357 49.0945 20.3087 48.8462 20.2688ZM9.65161 16.8161C9.92328 16.1637 10.3576 15.5918 10.913 15.1549C11.4685 14.718 12.1267 14.4307 12.8247 14.3204C16.8102 13.7155 20.8367 13.4211 24.8677 13.4398C28.8988 13.4211 32.9253 13.7155 36.9107 14.3204C37.6083 14.4311 38.2658 14.7184 38.8209 15.1551C39.3759 15.5917 39.81 16.1632 40.0817 16.8151L41.8935 21.0882H7.83978L9.65161 16.8161ZM6.23118 32.4075C5.91509 32.3614 5.62011 32.2215 5.38449 32.0058C5.14887 31.7901 4.98345 31.5086 4.90968 31.1978C4.81247 30.8354 4.77435 30.4596 4.79677 30.0849C4.88387 29.1172 5.18817 28.6409 5.80323 28.6409C5.80323 28.6409 10.0204 28.9032 10.5903 29.0785C11.1602 29.2538 13.3473 33.4118 13.3473 33.4118L6.23118 32.4075ZM33.2462 34.0204L24.8161 34.5021L16.4892 34.0323L14.3656 29.528C14.3656 29.528 21.8462 30.1796 24.8667 30.1796C27.8871 30.1796 35.3699 29.528 35.3699 29.528L33.2462 34.0204ZM44.8247 31.2021C44.7509 31.5129 44.5855 31.7944 44.3499 32.0101C44.1143 32.2258 43.8193 32.3657 43.5032 32.4118L36.3871 33.4161C36.3871 33.4161 38.5753 29.2581 39.1451 29.0828C39.715 28.9075 43.9312 28.6452 43.9312 28.6452C44.5473 28.6452 44.8505 29.1258 44.9376 30.0892C44.96 30.4639 44.9219 30.8397 44.8247 31.2021Z" />
</svg>
