<svg width="95" height="50" viewBox="0 0 95 50" fill="none" xmlns="http://www.w3.org/2000/svg">
<path d="M10.813 13.1385V13.1705L10.9932 24.0788C11.0092 25.025 11.7912 25.78 12.7344 25.7641C13.6727 25.748 14.4198 24.9837 14.4198 24.0516C14.4198 24.042 14.4198 24.0324 14.4198 24.023L14.2379 13.1132C14.2218 12.1669 13.4415 11.4135 12.4966 11.4294C11.563 11.4436 10.813 12.2066 10.813 13.1385Z" />
<path d="M15.2993 42.4672C15.6474 42.4672 15.981 42.3906 16.2793 42.2566C15.4448 41.8795 14.8622 41.0418 14.8622 40.0651C14.8622 39.0899 15.4448 38.2522 16.2793 37.8754C15.9808 37.7414 15.6474 37.6646 15.2993 37.6646C13.9714 37.6646 12.8975 38.7388 12.8975 40.0649C12.8975 41.3911 13.9714 42.4672 15.2993 42.4672Z"/>
<path d="M19.7327 40.0667C19.7327 42.2885 17.9309 44.0903 15.7093 44.0903C13.4862 44.0903 11.6829 42.2887 11.6829 40.0667C11.6829 37.8438 13.4862 36.0417 15.7093 36.0417C17.9309 36.0417 19.7327 37.8436 19.7327 40.0667ZM7.83984 40.0667C7.83984 44.411 11.3635 47.9351 15.7094 47.9351C20.0521 47.9351 23.5743 44.4112 23.5743 40.0667C23.5743 35.721 20.0519 32.199 15.7094 32.199C11.3635 32.199 7.83984 35.7208 7.83984 40.0667Z" />
<path d="M24.8559 40.0667C24.8559 45.118 20.7591 49.2115 15.708 49.2115C10.6569 49.2115 6.56052 45.118 6.56052 40.0667C6.56052 35.0141 10.6571 30.9204 15.708 30.9204C20.7591 30.9204 24.8559 35.0141 24.8559 40.0667ZM5.7749 40.0667C5.7749 45.5523 10.2227 50 15.7096 50C21.1947 50 25.6427 45.5523 25.6427 40.0667C25.6427 34.58 21.1949 30.1338 15.7096 30.1338C10.2227 30.1338 5.7749 34.5798 5.7749 40.0667Z" />
<path d="M35.9888 25.0218H39.1249C39.6593 25.0218 40.095 24.5875 40.095 24.0514C40.095 23.7833 39.9866 23.5407 39.8108 23.3636C39.635 23.1882 39.3926 23.0797 39.1249 23.0797H35.9888C35.4521 23.0797 35.0151 23.5153 35.0151 24.0514C35.0151 24.5877 35.4521 25.0218 35.9888 25.0218Z" />
<path d="M40.4206 25.51H34.693V24.0514V22.5912H40.4206V24.0514V25.51ZM30.4352 20.0183V9.99772C30.4844 9.99772 30.529 9.996 30.5769 9.996H42.7541V20.0183C38.6381 20.0183 33.8901 20.0183 30.4352 20.0183ZM16.8744 16.2122C16.8744 12.6931 21.6494 10.3692 28.7881 10.0391V20.0183C26.8603 20.0183 25.628 20.0183 25.628 20.0183C25.628 20.0183 16.8744 20.0183 16.8744 16.2122ZM16.6063 6.12266C16.6063 -0.602497 29.0562 1.68601 29.0562 1.68601C29.0562 1.68601 19.6657 1.74192 19.4122 6.12266H16.6063ZM56.3882 21.1117C56.5174 21.1708 62.0009 23.6573 62.0009 30.9301V35.7878L60.6443 37.1459C60.6443 37.1459 60.6443 35.6235 60.6443 30.0413C60.6443 25.4417 57.4957 22.1332 56.3882 21.1117ZM16.6063 7.69294L61.5544 8.662H16.6063V7.69294ZM56.0087 17.8623V9.99619H60.0681V17.1012C57.6571 16.4659 56.0087 17.8623 56.0087 17.8623ZM54.1744 10.8787V17.8623C54.1744 17.8623 53.9207 20.0185 51.2559 20.0185C50.4464 20.0185 47.754 20.0185 44.4059 20.0185V9.99619H47.7031L54.1744 10.8787ZM50.3874 24.0514V25.51H44.6594V24.0514V22.5912H50.3874V24.0514ZM84.3423 25.6619C84.2885 23.1289 83.5222 18.8312 78.9609 18.8312C72.4994 18.8312 60.898 18.8312 60.898 18.8312V9.88284H66.5333C66.5333 9.88284 64.5454 5.90419 55.2631 4.24755C45.9827 2.58938 29.5751 0.434722 29.5751 0.434722C29.5751 0.434722 15.1572 -2.21605 15.1572 5.57371V26.233C15.2419 26.2296 15.328 26.2233 15.4127 26.2202C17.2286 26.1662 19.0656 26.329 20.8611 26.8189C22.6502 27.3024 24.3769 28.1321 25.8662 29.2769C27.3582 30.416 28.5966 31.8497 29.5638 33.4101C30.5167 34.9455 31.2204 36.5974 31.7328 38.289H66.7171L68.0388 36.5617L72.9779 30.1401C73.9098 28.9608 75.0928 27.9473 76.4204 27.2197C77.7514 26.4871 79.2058 26.0385 80.658 25.8149C81.893 25.6253 83.1284 25.5916 84.3423 25.6619Z" />
<path d="M50.0637 24.0514C50.0637 23.7818 49.9551 23.5392 49.7778 23.3636C49.6024 23.1882 49.3583 23.0797 49.0914 23.0797H45.9556C45.4162 23.0797 44.9819 23.5137 44.9819 24.0514C44.9819 24.5877 45.4162 25.0218 45.9556 25.0218H49.0914C49.6265 25.0218 50.0637 24.5877 50.0637 24.0514Z" />
<path d="M75.6066 32.617C76.3625 31.6596 77.2919 30.8661 78.3529 30.2839C79.4108 29.6993 80.6 29.3259 81.8383 29.1363C83.0789 28.9445 84.3679 28.9319 85.6576 29.045C86.9505 29.1601 88.2431 29.4008 89.5195 29.7345C91.7605 30.3139 93.7013 30.5611 94.0107 29.9149C94.1654 29.5892 93.8338 29.0739 93.1454 28.5583C92.4609 28.0428 91.4126 27.5304 90.1785 27.2082C88.7825 26.8442 87.3495 26.5761 85.8887 26.4452C84.4288 26.3175 82.932 26.3272 81.4393 26.557C79.9504 26.7852 78.4586 27.245 77.0955 27.9969C75.7289 28.7436 74.515 29.7824 73.5618 30.9923L68.495 37.5836L65.972 40.8747L65.341 41.6998L65.0554 42.0699C64.993 42.1484 64.8945 42.2504 64.8003 42.3427C64.4091 42.7197 63.9435 43.0449 63.4552 43.275C62.962 43.5063 62.4446 43.6465 61.9114 43.6915C61.7762 43.7028 61.65 43.7077 61.5033 43.7077H60.9844H59.9468H55.8022H47.51H32.1537L32.1311 43.5142C32.0722 43.055 32.0021 42.5983 31.9175 42.1449C31.7499 41.2387 31.5362 40.3397 31.2716 39.4541C30.7428 37.6842 30.0088 35.954 29.0145 34.3504C28.0219 32.7483 26.7498 31.2763 25.218 30.1071C23.6921 28.9342 21.919 28.0834 20.0824 27.5869C18.2422 27.0841 16.3557 26.9166 14.4946 26.9725C12.6243 27.0317 10.7107 27.3633 8.91543 28.1171C7.12151 28.8606 5.47789 30.0481 4.2201 31.5386C2.95464 33.0275 2.05605 34.7703 1.4912 36.5927C1.39547 36.9102 1.31888 37.2277 1.26143 37.5375L1.24209 37.6541L1.23252 37.7115L1.22927 37.7401L1.22601 37.7544H1.22754C1.23233 37.7565 1.23712 37.7628 1.2419 37.7674C1.25301 37.7782 1.26431 37.7946 1.2756 37.8151C1.28996 37.8375 1.30279 37.8647 1.32022 37.8994C1.32654 37.9248 1.32175 37.9426 1.31696 37.9679C1.3026 38.0144 1.27082 38.0673 1.21778 38.1274C1.21778 38.1567 1.09179 38.1872 1.00696 38.2203C0.917737 38.2523 0.831574 38.2856 0.753261 38.3208C0.595294 38.3894 0.458007 38.4644 0.346377 38.5408C0.124458 38.697 0 38.8698 0 39.0501C0 39.2301 0.124267 39.4007 0.346377 39.5573C0.458007 39.6355 0.595294 39.709 0.753261 39.7791C0.831574 39.8145 0.917737 39.848 1.00696 39.8798C1.10117 39.9116 1.16493 39.9435 1.36617 39.9721C1.70948 40.0314 2.11464 40.0839 2.57093 40.1299L2.92228 40.1637L3.10591 40.1794L3.1982 40.1875C3.21237 40.1896 3.23017 40.1907 3.24281 40.1907L3.25258 40.1542C3.30849 39.9531 3.36574 39.7281 3.42337 39.4886C3.4519 39.3687 3.48254 39.2462 3.508 39.1185C3.535 38.9887 3.56047 38.8585 3.59091 38.7273C3.62117 38.595 3.65467 38.464 3.68837 38.3283L3.69469 38.3026L3.69795 38.2913L3.70427 38.2676L3.71863 38.223L3.74888 38.1305L3.98822 37.3594C4.4558 35.8403 5.20102 34.4105 6.20818 33.2295C7.21035 32.0456 8.48404 31.1227 9.92355 30.5228C11.3615 29.9193 12.9525 29.6325 14.5789 29.5796C16.2146 29.53 17.8538 29.6819 19.3939 30.1027C20.9356 30.5209 22.3782 31.2182 23.631 32.1793C24.8838 33.1368 25.9448 34.3544 26.7974 35.7267C27.648 37.0994 28.2974 38.6187 28.7713 40.2022C29.0076 40.9934 29.2008 41.801 29.3511 42.6169C29.4258 43.0234 29.4898 43.4318 29.5392 43.8406L29.5933 44.3002C29.6156 44.519 29.6347 44.7373 29.6475 44.9609L29.705 46.3175H47.5094H55.8016H59.9463H60.9839H61.5028C61.7002 46.3175 61.9209 46.3091 62.1298 46.2917C62.9739 46.2216 63.8068 45.9934 64.5677 45.6344C65.3275 45.2734 66.0093 44.798 66.6138 44.2169C66.7695 44.0691 66.9094 43.9222 67.0676 43.7349L67.1377 43.6455L67.1788 43.5913L67.2575 43.4895L67.4155 43.2836L68.0441 42.4601L70.5622 39.1721L75.6066 32.617Z"/>
<path d="M82.9575 42.4672C83.31 42.4672 83.642 42.3906 83.9407 42.2566C83.1059 41.8795 82.5204 41.0418 82.5204 40.0651C82.5204 39.0899 83.1059 38.2522 83.9407 37.8754C83.642 37.7414 83.31 37.6646 82.9575 37.6646C81.6331 37.6646 80.5557 38.7388 80.5557 40.0649C80.5557 41.3911 81.6331 42.4672 82.9575 42.4672Z" />
<path d="M87.3908 40.0667C87.3908 42.2885 85.5905 44.0903 83.3692 44.0903C81.1447 44.0903 79.3443 42.2887 79.3443 40.0667C79.3443 37.8438 81.1445 36.0417 83.3692 36.0417C85.5905 36.0417 87.3908 37.8436 87.3908 40.0667ZM83.3692 32.199C79.022 32.199 75.501 35.721 75.501 40.0667C75.501 44.411 79.022 47.9351 83.3692 47.9351C87.7146 47.9351 91.2371 44.4112 91.2371 40.0667C91.2371 35.7208 87.7148 32.199 83.3692 32.199Z" />
<path d="M83.3691 49.2113C78.318 49.2113 74.221 45.1178 74.221 40.0665C74.221 35.0139 78.318 30.9202 83.3691 30.9202C88.4204 30.9202 92.5155 35.0139 92.5155 40.0665C92.5155 45.1178 88.4204 49.2113 83.3691 49.2113ZM83.3691 30.1338C77.8807 30.1338 73.4341 34.58 73.4341 40.0667C73.4341 45.5523 77.8807 50 83.3691 50C88.8541 50 93.3007 45.5523 93.3007 40.0667C93.3009 34.5798 88.8543 30.1338 83.3691 30.1338Z"/>
</svg>
