<svg width="105" height="50" viewBox="0 0 105 50" fill="none" xmlns="http://www.w3.org/2000/svg">
<path d="M87.3881 41.7916L86.8755 41.7631L87.2769 38.1091C87.3615 37.3384 87.2037 36.5604 86.8253 35.8836L84.8172 32.2921C84.3969 31.5405 83.7294 30.9576 82.928 30.6425L72.6104 26.5862L52.5798 17.3702C47.9483 15.2393 42.9546 14.1615 37.9063 14.2031L15.1646 14.3907C14.5645 14.3957 13.982 14.5942 13.5038 14.9567L5.19931 21.2515C4.48653 21.7919 4.07626 22.6414 4.09644 23.5357L4.16945 26.778C4.18848 27.6229 3.82315 28.4307 3.17632 28.9745L2.53605 29.5127C1.9076 30.041 1.5439 30.8196 1.54227 31.6407L1.53143 37.0217L0.907243 36.987C0.47531 36.963 0.102439 37.2967 0.0783172 37.7286L0.00121327 39.1179C-0.022741 39.5498 0.310939 39.9227 0.742705 39.9467L4.63057 40.1627L4.61285 40.483L5.90979 40.5551L6.50954 40.5884L6.5622 39.64C6.79466 35.4565 10.3872 32.2422 14.5706 32.4747C18.7539 32.707 21.9684 36.2995 21.7361 40.483L21.6832 41.4314L22.283 41.4647L23.5801 41.5368L23.5978 41.2165L64.3231 43.4791L64.3052 43.7993L65.6021 43.8714L66.202 43.9047L66.2547 42.9563C66.4872 38.7728 70.0798 35.5585 74.2631 35.791C78.4464 36.0233 81.6609 39.6158 81.4284 43.7993L81.3757 44.7477L81.9753 44.781L83.2724 44.8531L83.2903 44.5328L87.2238 44.7513C87.6555 44.7753 88.0284 44.4416 88.0525 44.0098L88.1297 42.6203C88.1536 42.1886 87.8199 41.8156 87.3881 41.7916ZM18.2701 19.4953L12.8509 18.3492L12.3064 17.8507L14.46 16.2183C14.6652 16.0626 14.9202 15.9758 15.1775 15.9737L18.3649 15.9474L18.2701 19.4953ZM24.1864 23.3706L19.8451 22.5125L20.0478 21.4871L24.389 22.3452L24.1864 23.3706ZM37.2472 23.3998L35.9709 23.2386L19.9393 19.8482L19.671 15.9367L37.3996 15.7903L37.2472 23.3998ZM39.2635 15.8062C39.5076 15.8143 39.752 15.8216 39.9941 15.835C43.6531 16.0383 47.2248 16.8508 50.6323 18.2502C48.6537 18.2651 47.0016 19.816 46.8903 21.8193C46.8263 22.9703 47.285 24.0288 48.0589 24.7661L40.0341 23.752L39.2635 15.8062ZM45.4073 27.4038L41.0222 26.8098L41.1625 25.774L45.5477 26.3681L45.4073 27.4038ZM52.507 25.3282C53.5981 24.7174 54.3633 23.5796 54.4378 22.2386C54.4949 21.2109 54.1354 20.2569 53.507 19.5393L63.4784 24.1271L65.3846 26.9555L52.507 25.3282Z" />
<path d="M14.5169 33.4499C11.0714 33.2585 8.09664 35.7364 7.60089 39.0835C7.57087 39.284 7.54873 39.4875 7.53724 39.6943C7.33432 43.3455 10.13 46.4703 13.7823 46.6732C17.4336 46.8761 20.5579 44.0802 20.7606 40.4289C20.7721 40.2222 20.7729 40.0174 20.7657 39.8149C20.6433 36.4334 17.9618 33.6412 14.5169 33.4499ZM18.4413 40.3C18.3098 42.6669 16.2777 44.4856 13.911 44.354C11.5439 44.2225 9.72494 42.1899 9.85651 39.8231C9.86339 39.6977 9.87702 39.5675 9.89833 39.4247C10.2256 37.2163 12.1556 35.6451 14.3881 35.7691C16.6199 35.8931 18.3637 37.6686 18.4446 39.899C18.4494 40.0397 18.4486 40.1715 18.4413 40.3Z" />
<path d="M14.2593 38.0884C13.2334 38.0313 12.3464 38.7522 12.1959 39.7681C12.1854 39.838 12.1789 39.898 12.1759 39.952C12.1154 41.04 12.9519 41.9744 14.0402 42.0348C15.1278 42.0952 16.0619 41.2593 16.1222 40.1712C16.1255 40.1139 16.1257 40.0513 16.1234 39.983C16.0865 38.9599 15.2849 38.1453 14.2593 38.0884Z" />
<path d="M74.2093 36.7662C70.7637 36.5748 67.789 39.0527 67.2931 42.3999C67.2633 42.6004 67.2411 42.8038 67.2296 43.0105C67.0267 46.6619 69.8224 49.7867 73.4747 49.9896C77.126 50.1925 80.2501 47.3966 80.453 43.7452C80.4645 43.5385 80.4653 43.3338 80.4581 43.1313C80.3357 39.7497 77.6542 36.9576 74.2093 36.7662ZM78.1337 43.6164C78.0021 45.9832 75.9701 47.8018 73.6034 47.6703C71.2363 47.5389 69.4173 45.5062 69.5489 43.1394C69.5558 43.0141 69.5694 42.8838 69.5907 42.7411C69.918 40.5326 71.848 38.9614 74.0805 39.0854C76.3123 39.2094 78.0561 40.9849 78.1368 43.2153C78.1417 43.356 78.1407 43.4878 78.1337 43.6164Z" />
<path d="M73.9517 41.4047C72.9258 41.3477 72.0388 42.0685 71.8882 43.0844C71.8778 43.1543 71.8713 43.2144 71.8683 43.2683C71.8078 44.3564 72.6443 45.2907 73.7325 45.3511C74.8202 45.4115 75.7541 44.5756 75.8146 43.4875C75.8177 43.4303 75.818 43.3677 75.8157 43.2993C75.7787 42.2762 74.9773 41.4616 73.9517 41.4047Z" />
<path d="M89.8545 28.5872L92.0053 24.5421L87.9644 26.1789L87.8192 21.309L85.0233 25.376L83.0237 22.1017L82.4418 25.4677L78.9263 22.7909L80.3145 27.3057L81.1174 27.0588L80.4975 25.0429L83.0337 26.9741L83.4709 24.4454L84.9817 26.9192L87.0563 23.9015L87.1608 27.4106L90.1788 26.1882L88.5003 29.3451L91.6153 29.5376L88.484 31.6652L90.2379 33.2291L88.4648 33.31L88.5031 34.1491L92.3356 33.9742L89.8465 31.7548L94.1204 28.8509L89.8545 28.5872Z" />
<path d="M39.417 43.3804L39.4338 43.0448L62.4871 44.1986L62.4703 44.5343L39.417 43.3804Z" />
<path d="M34.4316 43.119L34.4484 42.7834L38.3792 42.9801L38.3624 43.3158L34.4316 43.119Z" />
<path d="M46.0635 44.9276L46.0803 44.592L60.4709 45.3122L60.4541 45.6479L46.0635 44.9276Z" />
<path d="M58.4976 18.7663L58.6366 18.4606L77.0883 26.855L76.9492 27.1608L58.4976 18.7663Z" />
<path d="M67.0024 21.3494L67.1415 21.0436L76.3128 25.216L76.1737 25.5218L67.0024 21.3494Z" />
<path d="M64.0195 19.9895L64.1586 19.6838L65.8658 20.4604L65.7267 20.7662L64.0195 19.9895Z" />
<path d="M103.774 10.2857C103.612 9.75288 103.049 9.45185 102.517 9.61312C101.984 9.77445 101.683 10.3371 101.844 10.8699L102.127 11.8026L101.801 14.6564L99.0762 14.82C98.887 14.8313 98.7048 14.8959 98.5506 15.006L97.1492 16.0074C92.4081 13.5791 95.5172 14.3227 93.568 10.2064C93.5422 10.1518 93.5173 10.1004 93.4918 10.047L95.5249 8.68009L96.1554 8.89787C96.5837 9.04576 97.052 8.82741 97.214 8.40433C97.376 7.98119 97.1732 7.50586 96.7557 7.32992L95.6689 6.87198C95.432 6.77217 95.1624 6.78634 94.9373 6.91045L92.6118 8.19237L92.5053 8.10464C92.4199 7.94824 92.3376 7.80045 92.2585 7.66187L94.3879 6.34505C94.6316 6.19437 94.7816 5.92985 94.7859 5.64342L94.8319 2.60489L95.3703 2.21126C95.7361 1.94386 95.8239 1.43459 95.5688 1.06023C95.3137 0.685877 94.8077 0.581375 94.4249 0.82384L93.4289 1.45534C93.2118 1.59296 93.0697 1.82246 93.0433 2.07813L92.7696 4.71934L89.9742 5.50659C89.6965 5.5848 89.4912 5.79399 89.4057 6.04831C88.8633 5.59536 88.3372 5.17689 88.2916 5.12217C88.2048 5.01806 88.5253 4.03361 88.7242 3.67963C88.9232 3.32564 88.9984 1.79286 88.9984 1.79286C88.9984 1.79286 88.4668 1.2185 88.4923 1.36196C88.5177 1.5054 87.4697 3.64897 87.4049 3.79705C87.3401 3.94512 87.2946 3.87469 87.15 3.70118C87.0054 3.52765 87.2333 2.14989 87.3339 1.81905C87.4346 1.48821 86.8909 0.412368 86.8909 0.412368L86.6037 0.248971C86.5958 0.152969 86.5381 0.0640729 86.4436 0.0227492C86.3068 -0.0371365 86.1472 0.0252858 86.0874 0.162175C86.0613 0.221657 86.0596 0.285037 86.0758 0.343024L84.9335 2.81971L83.8638 3.28591C83.8638 3.28591 83.5824 3.99271 83.2909 5.01186C83.2051 5.31181 83.2463 5.74185 83.3466 6.19909C83.2788 6.14282 83.2384 6.1062 83.2384 6.1062C82.6909 6.95453 83.0873 7.86301 83.3526 8.3319C83.4054 8.42515 83.4799 8.48475 83.5679 8.52053C83.9221 8.66466 84.5018 8.40584 84.8318 8.24398C85.1092 8.10784 85.3216 7.47794 85.2344 7.12021C85.7256 7.16558 85.4641 8.30349 85.0797 8.4921C84.848 8.60581 84.4927 8.76783 84.179 8.80428L84.2566 10.7622L86.5456 9.63015L84.6025 11.5559C84.6025 11.5559 85.3013 15.3041 93.6839 21.2795C93.6846 21.2797 93.6852 21.2798 93.6859 21.28C94.6776 22.275 96.3933 23.3772 98.5989 22.7849C101.344 22.0475 102.841 18.5072 102.047 18.1734C101.254 17.8396 101.524 19.8127 98.9375 21.0949C98.211 21.4551 97.2144 21.4549 96.3349 21.1056C96.4067 21.074 96.4756 21.041 96.5424 21.0072C96.9821 20.8937 97.4572 20.7379 97.9769 20.5291C98.0232 20.5105 98.0656 20.4867 98.1052 20.4597C98.2628 20.3727 98.3994 20.2432 98.4945 20.0755L100.279 16.9292C100.309 16.8751 100.334 16.8194 100.354 16.7626L102.767 16.6179C103.256 16.5885 103.653 16.2123 103.708 15.7259L104.153 11.824C104.169 11.6875 104.156 11.5492 104.116 11.4177L103.774 10.2857ZM85.866 5.35367L85.1983 5.02768L84.8125 5.57595L84.4966 5.35367L84.8468 4.85602L84.363 4.61981L84.5324 4.27269L85.0719 4.5361L85.4037 4.06461L85.7196 4.28688L85.4235 4.70775L86.0354 5.00654L85.866 5.35367Z" />
<path d="M85.2236 13.9501L84.9941 14.0541C86.1539 16.6117 88.3563 18.6121 89.9998 19.8398L90.1506 19.6379C88.5309 18.4279 86.3612 16.4589 85.2236 13.9501Z" />
<path d="M92.1691 20.9693C92.1626 20.9658 91.512 20.6106 90.6032 19.9672L90.4575 20.1729C91.3796 20.8256 92.0423 21.1872 92.0488 21.1908L92.1691 20.9693Z" />
<path d="M86.1632 17.2437L86.3602 17.0866C85.9739 16.6025 85.66 16.13 85.4272 15.6824L85.2036 15.7987C85.4439 16.2608 85.7668 16.7469 86.1632 17.2437Z" />
<path d="M86.676 17.4666L86.4854 17.6313C88.1506 19.5595 90.3988 21.0766 90.4213 21.0917L90.5617 20.8824C90.5394 20.8675 88.3194 19.3694 86.676 17.4666Z" />
</svg>
