<svg width="76" height="63" viewBox="0 0 76 63" fill="none" xmlns="http://www.w3.org/2000/svg">
<path d="M18.0006 42.7538C12.2478 42.7538 7.56738 47.295 7.56738 52.8768C7.56738 58.4588 12.2477 63 18.0006 63C23.7535 63 28.4337 58.4588 28.4337 52.8768C28.4337 47.295 23.7534 42.7538 18.0006 42.7538Z" />
<path d="M57.1896 42.7538C51.4368 42.7538 46.7563 47.295 46.7563 52.8768C46.7563 58.4588 51.4367 63 57.1896 63C62.9425 63 67.6228 58.4588 67.6228 52.8768C67.6227 47.295 62.9423 42.7538 57.1896 42.7538Z" />
<path d="M21.0798 17.3781C20.0957 16.528 20.008 15.065 20.8841 14.1101C21.7601 13.1551 23.2678 13.0701 24.2521 13.9201C29.5227 18.4725 33.8723 23.428 37.2613 28.7282C38.7848 26.8899 39.824 24.7085 40.2356 22.4345C41.238 16.8971 38.4931 12.086 34.4757 8.03494C27.6418 1.14389 17.7966 -1.42278 8.74837 0.754742C7.91044 0.956408 7.25024 1.58166 7.02197 2.38947C3.83949 13.6547 8.69216 25.5918 18.7869 31.7734C23.6478 34.7498 29.1714 34.5785 33.6387 31.8566C30.4331 26.6754 26.2324 21.8285 21.0798 17.3781Z" />
<path d="M74.0182 38.0117L59.2021 32.8666C54.7647 27.4261 52.045 23.2826 45.2128 20.4461C45.1236 25.2634 43.0234 29.7214 39.7379 32.988C40.6632 34.7486 41.4898 36.5426 42.2128 38.3694C42.8128 39.886 41.6549 41.5143 39.9862 41.5143C39.0272 41.5143 38.1229 40.9494 37.7587 40.0287C37.2101 38.6424 36.5954 37.2759 35.9185 35.929C25.0428 42.3239 13.0196 36.4079 6.22833 25.9511C-0.163616 35.4136 0.000390763 34.9239 0.000390763 35.8618V52.8767C0.000390763 54.1551 1.06852 55.1914 2.38595 55.1914H2.98219C1.51418 46.1915 8.71721 38.1244 17.9988 38.1244C27.2788 38.1244 34.4836 46.1898 33.0153 55.1914H42.1737C40.7057 46.1915 47.9088 38.1244 57.1904 38.1244C66.4703 38.1244 73.6753 46.1897 72.207 55.1914H73.2144C74.5319 55.1914 75.6 54.1551 75.6 52.8767V40.1909C75.5998 39.2134 74.9669 38.3411 74.0182 38.0117Z" />
</svg>
