<svg width="78" height="50" viewBox="0 0 78 50" fill="none" xmlns="http://www.w3.org/2000/svg">
<path d="M46.5998 32.1H31.3998C30.0998 32.1 28.7998 32.6 27.7998 33.6C26.7998 34.6 26.2998 35.9 26.2998 37.2V46.1H51.6998V37.2C51.6998 35.8 51.1998 34.5 50.1998 33.6C49.1998 32.7 47.9998 32.1 46.5998 32.1Z" />
<path d="M77.4 14.6C77.3 14.5 77.2 14.4 77.1 14.3C77 14.2 76.9 14.2 76.7 14.2H66.3L62 2.4C61.7 1.7 61.2 1.1 60.6 0.6C60 0.2 59.2 0 58.4 0H19.1C18.3 0 17.5 0.2 16.9 0.7C16.2 1.2 15.7 1.8 15.5 2.6L11.7 14.3H0.8C0.7 14.3 0.5 14.3 0.4 14.4C0.3 14.5 0.2 14.6 0.1 14.7C0.1 14.7 0 14.8 0 15C0 15.2 0 15.3 0.1 15.4L2.6 20.9C2.7 21 2.8 21.2 2.9 21.2C3 21.3 3.2 21.3 3.3 21.3H6.2C3.9 24 3.6 27.8 3.6 31.2V45.3C3.6 45.5 3.7 45.7 3.8 45.9C4 46 4.2 46.1 4.4 46.1H24.8V37.2C24.8 35.4 25.5 33.7 26.8 32.4C28 31.1 29.7 30.4 31.5 30.4H46.7C48.5 30.4 50.2 31.1 51.4 32.4C52.6 33.7 53.3 35.4 53.4 37.2V46.1H73.8C74 46.1 74.2 46 74.4 45.9C74.5 45.7 74.6 45.5 74.6 45.3V31.3C74.7 29.1 74.4 26.9 73.8 24.7C73.4 23.5 72.8 22.4 72 21.4H74.4C74.6 21.4 74.7 21.4 74.8 21.3C74.9 21.2 75 21.1 75.1 21L77.6 15.5C77.7 15.4 77.7 15.2 77.7 15.1C77.7 15 77.4 14.7 77.4 14.6ZM21.4 36.8C21.4 37 21.3 37.2 21.2 37.4C21.1 37.5 20.9 37.6 20.6 37.6H20.5L11 36.3C10.8 36.3 10.6 36.2 10.5 36C10.4 35.9 10.3 35.7 10.3 35.5V31.3C10.3 31.2 10.3 31.1 10.4 31C10.4 30.9 10.5 30.8 10.6 30.7C10.7 30.6 10.8 30.6 10.9 30.5C11 30.5 11.1 30.5 11.2 30.5L20.7 31.8C20.9 31.8 21.1 31.9 21.2 32.1C21.3 32.2 21.4 32.4 21.4 32.6V36.8ZM38.3 20.5C30.4 20.6 22.6 19.4 15.1 17.1C14.9 17 14.7 16.9 14.6 16.7C14.5 16.5 14.5 16.3 14.5 16.1L17.3 7.1C17.5 6.3 18 5.6 18.7 5.1C19.4 4.6 20.2 4.3 21 4.3H56.4C57.2 4.3 58 4.6 58.7 5.1C59.4 5.6 59.9 6.3 60.1 7.1L62.9 16.1C62.9 16.2 62.9 16.3 62.9 16.4C62.9 16.5 62.9 16.6 62.8 16.7C62.8 16.8 62.7 16.9 62.6 16.9C62.5 17 62.4 17 62.3 17C54.5 19.4 46.4 20.6 38.3 20.5ZM67.7 35.5C67.7 35.7 67.6 35.9 67.5 36C67.4 36.1 67.2 36.2 67 36.3L57.5 37.6H57.4C57.2 37.6 57 37.5 56.8 37.4C56.7 37.3 56.6 37 56.6 36.8V32.6C56.6 32.4 56.7 32.2 56.8 32.1C56.9 32 57.1 31.9 57.3 31.8L66.8 30.5C66.9 30.5 67 30.5 67.1 30.5C67.2 30.5 67.3 30.6 67.4 30.7C67.5 30.8 67.6 30.9 67.6 31C67.6 31.1 67.7 31.2 67.7 31.3V35.5Z" />
<path d="M3.6001 47.6C3.6001 48.3 3.8001 48.9 4.3001 49.3C4.7001 49.8 5.3001 50 6.0001 50H12.6001C13.2001 50 13.8001 49.8 14.2001 49.3C14.6001 48.9 14.9001 48.3 14.9001 47.7H4.4001C4.1001 47.7 3.8001 47.7 3.6001 47.6Z" />
<path d="M63 47.7C63 48.3 63.3 48.9 63.7 49.3C64.1 49.7 64.7 50 65.3 50H72C72.6 50 73.2 49.7 73.7 49.3C74.1 48.9 74.4 48.2 74.4 47.6C74.1 47.7 73.9 47.7 73.6 47.7H63Z" />
<path d="M0 26.5L2 27.3L11.2 34.8C11.2 34.8 16 35.8 19.8 34.8C23.6 33.8 25.2 29.6 29.1 27C33 24.4 39.4 30.5 40.1 32.6C40.8 34.7 52.3 36.2 53.6 32.7C54.9 29.2 59.3 24.9 63.2 27.6C67.1 30.3 74.4 36.3 78.2 35.4V50H0V26.5Z" fill="#F1F1F1"/>
<path d="M78 37.1C73.4 37.1 71.1 34.5 69.1 32.3C67.2 30.2 65.6 28.5 62.4 28.5C59.2 28.5 57.6 30.3 55.7 32.3C53.7 34.6 51.4 37.1 46.8 37.1C42.2 37.1 39.9 34.5 37.9 32.3C36 30.2 34.4 28.5 31.2 28.5C28 28.5 26.4 30.3 24.5 32.3C22.5 34.6 20.2 37.1 15.6 37.1C11 37.1 8.7 34.5 6.7 32.3C4.8 30.2 3.2 28.5 0 28.5V25.5C4.6 25.5 6.9 28.1 8.9 30.3C10.8 32.4 12.4 34.1 15.6 34.1C18.8 34.1 20.4 32.3 22.3 30.3C24.3 28 26.6 25.5 31.2 25.5C35.8 25.5 38.1 28.1 40.1 30.3C42 32.4 43.6 34.1 46.8 34.1C50 34.1 51.6 32.3 53.5 30.3C55.5 28 57.8 25.5 62.4 25.5C67 25.5 69.3 28.1 71.3 30.3C73.2 32.4 74.8 34.1 78 34.1V37.1Z" />
<path d="M78 43.5C73.4 43.5 71.1 40.9 69.1 38.7C67.2 36.6 65.6 34.9 62.4 34.9C59.2 34.9 57.6 36.7 55.7 38.7C53.7 41 51.4 43.5 46.8 43.5C42.2 43.5 39.9 40.9 37.9 38.7C36 36.6 34.4 34.9 31.2 34.9C28 34.9 26.4 36.7 24.5 38.7C22.5 41 20.2 43.5 15.6 43.5C11 43.5 8.7 40.9 6.7 38.7C4.8 36.6 3.2 34.9 0 34.9V31.9C4.6 31.9 6.9 34.5 8.9 36.7C10.8 38.8 12.4 40.5 15.6 40.5C18.8 40.5 20.4 38.7 22.3 36.7C24.3 34.4 26.6 31.9 31.2 31.9C35.8 31.9 38.1 34.5 40.1 36.7C42 38.8 43.6 40.5 46.8 40.5C50 40.5 51.6 38.7 53.5 36.7C55.5 34.4 57.8 31.9 62.4 31.9C67 31.9 69.3 34.5 71.3 36.7C73.2 38.8 74.8 40.5 78 40.5V43.5Z" />
<path d="M78 50C73.4 50 71.1 47.4 69.1 45.2C67.2 43.1 65.6 41.4 62.4 41.4C59.2 41.4 57.6 43.2 55.7 45.2C53.7 47.5 51.4 50 46.8 50C42.2 50 39.9 47.4 37.9 45.2C36 43.1 34.4 41.4 31.2 41.4C28 41.4 26.4 43.2 24.5 45.2C22.5 47.5 20.2 50 15.6 50C11 50 8.7 47.4 6.7 45.2C4.8 43.1 3.2 41.4 0 41.4V38.4C4.6 38.4 6.9 41 8.9 43.2C10.8 45.3 12.4 47 15.6 47C18.8 47 20.4 45.2 22.3 43.2C24.3 40.9 26.6 38.4 31.2 38.4C35.8 38.4 38.1 41 40.1 43.2C42 45.3 43.6 47 46.8 47C50 47 51.6 45.2 53.5 43.2C55.5 40.9 57.8 38.4 62.4 38.4C67 38.4 69.3 41 71.3 43.2C73.2 45.3 74.8 47 78 47V50Z" />
</svg>
