<svg width="113" height="50" viewBox="0 0 113 50" fill="none" xmlns="http://www.w3.org/2000/svg">
<path d="M1.12183 41.8781H5.65079C5.64919 41.9574 5.64471 42.0361 5.64471 42.1158V43.0639H7.0057H7.56566V42.1158C7.56566 37.0264 11.7601 32.8859 16.9156 32.8859C22.0711 32.8859 26.2655 37.0264 26.2655 42.1158V43.0639H26.8254H28.1864V42.1158C28.1864 42.0361 28.1819 41.9574 28.1803 41.8781H84.2682C84.2666 41.9574 84.2621 42.0361 84.2621 42.1158V43.0639H85.6231H86.1831V42.1158C86.1831 37.0264 90.3775 32.8859 95.533 32.8859C100.688 32.8859 104.883 37.0264 104.883 42.1158V43.0639H105.443H106.804V42.1158C106.804 42.0361 106.8 41.9574 106.798 41.8781H111.378C112.874 41.8781 112.874 36.5081 111.378 36.5081H110.803C110.625 32.0667 109.94 24.9653 107.387 24.6907V24.0709C107.392 24.0709 107.396 24.0731 107.401 24.0731C107.848 24.0731 107.848 21.4781 107.401 21.4781C106.955 21.4781 106.593 22.059 106.593 22.7754C106.593 23.2179 106.731 23.6079 106.942 23.8418V24.6793C103.561 24.6471 91.0274 24.1101 84.6261 23.8282C82.1276 23.7182 79.7079 22.9524 77.6089 21.6095L70.3077 16.938C68.0327 15.4823 65.3795 14.7076 62.6684 14.7076H38.005C36.8528 14.7076 35.7165 14.9693 34.6831 15.4725C31.2446 17.1466 20.251 21.3918 16.3255 22.8959C15.3916 23.2536 14.4215 23.5058 13.4303 23.649L3.95652 25.3737C2.63746 25.5643 1.6501 26.6663 1.62 27.982L1.42374 36.5078H1.12183C-0.373945 36.5081 -0.373945 41.8781 1.12183 41.8781ZM30.2024 27.5064C30.2024 27.1331 30.5117 26.8278 30.8898 26.8278H36.6325C37.0106 26.8278 37.3199 27.1331 37.3199 27.5064C37.3199 27.8796 37.0106 28.1849 36.6325 28.1849H30.8898C30.5117 28.1849 30.2024 27.8796 30.2024 27.5064ZM54.3456 27.5064C54.3456 27.1331 54.6549 26.8278 55.033 26.8278H60.7756C61.1537 26.8278 61.463 27.1331 61.463 27.5064C61.463 27.8796 61.1537 28.1849 60.7756 28.1849H55.033C54.6552 28.1849 54.3456 27.8796 54.3456 27.5064ZM108.822 35.15L107.111 31.5385H108.466C108.617 32.6412 108.739 33.8637 108.822 35.15ZM107.06 26.5766C107.541 27.0443 107.98 28.5209 108.315 30.5401H106.639L104.737 26.5266C105.726 26.5557 106.523 26.5734 107.06 26.5766ZM62.6684 16.6043C65.0088 16.6043 67.2992 17.273 69.263 18.5293L76.5642 23.2008C76.9299 23.4347 77.3044 23.6534 77.6864 23.8563C76.545 24.5463 75.233 24.9113 73.8948 24.9113H52.5805L51.2705 16.6043H62.6684ZM35.5484 17.1659C36.312 16.7933 37.1534 16.6043 38.0053 16.6043H49.3028L49.9191 24.9113H28.5648L28.9324 19.9942C31.7107 18.8703 34.1919 17.8277 35.5484 17.1659ZM22.9105 22.3845C24.3551 21.8197 25.8758 21.2198 27.3578 20.6273L26.6724 24.9113H25.968C24.4636 24.9113 23.1753 23.8465 22.9105 22.3845Z" />
<path d="M24.8673 41.3858C24.4937 37.3739 21.0776 34.2317 16.9162 34.2317C12.7541 34.2317 9.33739 37.3739 8.96408 41.3858C8.94135 41.626 8.92822 41.8693 8.92822 42.1159C8.92822 46.4701 12.5041 50 16.9158 50C21.3267 50 24.9019 46.4698 24.9019 42.1159C24.9022 41.8693 24.8897 41.626 24.8673 41.3858ZM16.9162 47.2346C14.0565 47.2346 11.7302 44.9382 11.7302 42.1159C11.7302 41.9664 11.7379 41.8106 11.7539 41.6396C12.0001 38.9923 14.2192 36.9971 16.9162 36.9971C19.6122 36.9971 21.8309 38.9927 22.0774 41.6389C22.0928 41.8058 22.1005 41.9626 22.1005 42.1159C22.1008 44.9382 19.7752 47.2346 16.9162 47.2346Z" />
<path d="M16.9168 39.7629C15.6774 39.7629 14.6574 40.6785 14.5441 41.8962C14.5361 41.98 14.5322 42.0517 14.5322 42.1162C14.5322 43.4136 15.6019 44.4692 16.9168 44.4692C18.2307 44.4692 19.2994 43.4136 19.2994 42.1162C19.2994 42.0479 19.2955 41.9733 19.2882 41.8924C19.1755 40.6782 18.1558 39.7629 16.9168 39.7629Z" />
<path d="M103.484 41.3858C103.11 37.3739 99.6943 34.2317 95.5329 34.2317C91.3708 34.2317 87.9541 37.3739 87.5808 41.3858C87.558 41.626 87.5449 41.8693 87.5449 42.1159C87.5449 46.4701 91.1208 50 95.5326 50C99.9434 50 103.519 46.4698 103.519 42.1159C103.519 41.8693 103.506 41.626 103.484 41.3858ZM95.5329 47.2346C92.6732 47.2346 90.3469 44.9382 90.3469 42.1159C90.3469 41.9664 90.3546 41.8106 90.3706 41.6396C90.6168 38.9923 92.8362 36.9971 95.5329 36.9971C98.2289 36.9971 100.448 38.9927 100.694 41.6389C100.71 41.8058 100.717 41.9626 100.717 42.1159C100.718 44.9382 98.3919 47.2346 95.5329 47.2346Z" />
<path d="M95.533 39.7629C94.2936 39.7629 93.2736 40.6785 93.1603 41.8962C93.1523 41.98 93.1484 42.0517 93.1484 42.1162C93.1484 43.4136 94.2181 44.4692 95.533 44.4692C96.8469 44.4692 97.9156 43.4136 97.9156 42.1162C97.9156 42.0479 97.9118 41.9733 97.9044 41.8924C97.7917 40.6782 96.772 39.7629 95.533 39.7629Z" />
<path d="M82.567 3.16208C80.2491 2.97181 79.5566 2.2882 79.3635 0H79.2592C79.0661 2.2882 78.3736 2.97181 76.0557 3.16208V3.26542C78.3736 3.45569 79.0661 4.1393 79.2592 6.4275H79.3635C79.5566 4.1393 80.2491 3.45569 82.567 3.26542V3.16208Z" />
<path d="M83.268 19.7808H83.3577C83.5235 17.8153 84.1181 17.2281 86.1091 17.0647V16.9759C84.1181 16.8125 83.5232 16.2253 83.3577 14.2598H83.268C83.1022 16.2253 82.5077 16.8125 80.5166 16.9759V17.0647C82.5077 17.2281 83.1025 17.8153 83.268 19.7808Z" />
<path d="M86.9689 12.3626C87.1908 9.73468 87.9857 8.94961 90.6479 8.73091V8.61207C87.9857 8.39368 87.1905 7.6083 86.9689 4.98035H86.8489C86.6273 7.6083 85.832 8.39337 83.1699 8.61207V8.73091C85.832 8.94961 86.6273 9.73468 86.8489 12.3626H86.9689Z" />
</svg>
