<svg width="66" height="52" viewBox="0 0 66 52" fill="none" xmlns="http://www.w3.org/2000/svg">
<path d="M15.9611 8.8498H50.0385C50.3815 8.8498 50.6608 8.56884 50.6608 8.22304V1.30706C50.6608 0.96206 50.3815 0.680298 50.0385 0.680298H15.9611C15.6182 0.680298 15.3389 0.96206 15.3389 1.30706V8.22304C15.3389 8.56884 15.6182 8.8498 15.9611 8.8498ZM40.5138 1.66567H43.4866C43.8144 1.66567 44.0794 1.93302 44.0794 2.26201C44.0794 2.591 43.8136 2.85835 43.4866 2.85835H42.593V7.26809C42.593 7.59788 42.3272 7.86444 42.0002 7.86444C41.6723 7.86444 41.4074 7.59708 41.4074 7.26809V2.85915H40.5146C40.1859 2.85915 39.9218 2.5918 39.9218 2.26281C39.9218 1.93382 40.1852 1.66567 40.5138 1.66567ZM34.1568 2.45252C34.1568 2.18276 34.3374 1.94663 34.596 1.87619C34.8546 1.80655 35.1284 1.91941 35.2636 2.15235L36.945 5.05722V2.26201C36.945 1.93222 37.2108 1.66567 37.5378 1.66567C37.8656 1.66567 38.1306 1.93302 38.1306 2.26201V7.26809C38.1306 7.53785 37.95 7.77398 37.6914 7.84442C37.6396 7.85883 37.5887 7.86524 37.537 7.86524C37.3301 7.86524 37.132 7.75557 37.0246 7.56907L35.3424 4.66339V7.26809C35.3424 7.59788 35.0774 7.86444 34.7496 7.86444C34.4218 7.86444 34.1568 7.59708 34.1568 7.26809V2.45252ZM28.3329 2.26201C28.3329 1.93222 28.5987 1.66567 28.9257 1.66567H31.7744C32.1023 1.66567 32.3672 1.93302 32.3672 2.26201C32.3672 2.591 32.1015 2.85835 31.7744 2.85835H29.5186V4.16791H30.7265C31.0543 4.16791 31.3193 4.43526 31.3193 4.76425C31.3193 5.09324 31.0535 5.36059 30.7265 5.36059H29.5186V6.67015H31.7744C32.1023 6.67015 32.3672 6.9375 32.3672 7.26649C32.3672 7.59628 32.1015 7.86284 31.7744 7.86284H28.9257C28.5979 7.86284 28.3329 7.59548 28.3329 7.26649V2.26201ZM21.9202 2.26201C21.9202 1.93222 22.186 1.66567 22.5131 1.66567H24.7061C25.719 1.66567 26.5434 2.49494 26.5434 3.51393C26.5434 4.52491 25.7317 5.34859 24.7299 5.36139L26.1033 6.83584C26.3269 7.07598 26.315 7.453 26.0763 7.67953C25.9617 7.78679 25.8161 7.84042 25.6705 7.84042C25.5121 7.84042 25.3538 7.77719 25.2376 7.65151L23.1059 5.3638V7.26889C23.1059 7.59868 22.8401 7.86524 22.5131 7.86524C22.186 7.86524 21.9202 7.59788 21.9202 7.26889V2.26201Z" />
<path d="M25.358 3.51391C25.358 3.1529 25.066 2.85913 24.7071 2.85913H23.1069V4.16869H24.7071C25.066 4.16869 25.358 3.87492 25.358 3.51391Z" />
<path d="M39.6087 36.837H27.2136C26.1149 36.8384 25.0617 37.2831 24.2849 38.0736C23.5081 38.864 23.0713 39.9357 23.0703 41.0534V48.3271H43.7404V41.0403C43.7387 39.926 43.3029 38.8579 42.5284 38.07C41.7539 37.2822 40.704 36.8388 39.6087 36.837Z" />
<path d="M64.6745 22.4864C64.6163 22.394 64.5363 22.3181 64.4417 22.2654C64.3471 22.2127 64.2411 22.185 64.1333 22.1848H55.6662L52.1738 12.4961C51.932 11.9097 51.5254 11.4089 51.005 11.0567C50.4845 10.7045 49.8734 10.5166 49.2483 10.5165H17.2231C16.5748 10.5113 15.9409 10.7101 15.408 11.0856C14.875 11.4611 14.4692 11.995 14.2461 12.6141L11.1402 22.1848H2.27368C2.16586 22.185 2.05981 22.2127 1.96525 22.2654C1.87069 22.3181 1.79063 22.394 1.73241 22.4864C1.67249 22.5787 1.63739 22.6854 1.63061 22.7958C1.62382 22.9062 1.64559 23.0165 1.69374 23.1157L3.74284 27.6257C3.79174 27.7403 3.87293 27.8376 3.97615 27.9052C4.07937 27.9729 4.19999 28.0079 4.32278 28.0059H6.66829C4.82539 30.2478 4.54186 33.3288 4.54186 36.1344V47.6717C4.54186 47.8455 4.60975 48.0123 4.73059 48.1352C4.85144 48.2581 5.01534 48.3272 5.18623 48.3272H21.7826V41.0535C21.784 39.5882 22.3567 38.1833 23.3751 37.147C24.3935 36.1108 25.7743 35.5278 27.2147 35.5261H39.6098C41.0469 35.5278 42.4246 36.1093 43.4408 37.1431C44.4569 38.1768 45.0285 39.5784 45.0303 41.0404V48.3272H61.6202C61.7911 48.3272 61.955 48.2581 62.0759 48.1352C62.1967 48.0123 62.2646 47.8455 62.2646 47.6717V36.1344C62.3196 34.3102 62.098 32.4883 61.6073 30.7329C61.2982 29.7373 60.8038 28.8115 60.1511 28.0059H62.0842C62.207 28.0079 62.3276 27.9729 62.4308 27.9052C62.534 27.8376 62.6152 27.7403 62.6641 27.6257L64.7132 23.1157C64.7614 23.0165 64.7831 22.9062 64.7763 22.7958C64.7696 22.6854 64.7345 22.5787 64.6745 22.4864ZM19.0273 40.6418C19.0273 40.8157 18.9594 40.9824 18.8386 41.1053C18.7177 41.2283 18.5538 41.2973 18.3829 41.2973C18.3551 41.2993 18.3271 41.2993 18.2992 41.2973L10.5912 40.2564C10.4355 40.2353 10.2926 40.157 10.1896 40.0363C10.0866 39.9155 10.0305 39.7607 10.0319 39.6008V36.1816C10.0311 36.0879 10.0501 35.995 10.0876 35.9094C10.1251 35.8237 10.1802 35.7473 10.2492 35.6851C10.3182 35.623 10.3995 35.5767 10.4877 35.5492C10.5758 35.5218 10.6687 35.5139 10.76 35.5261L18.4667 36.5539C18.6227 36.5747 18.7658 36.6529 18.8691 36.7736C18.9724 36.8944 19.0287 37.0494 19.0273 37.2095V40.6418ZM32.8169 27.3373C26.4162 27.4049 20.0435 26.4696 13.9226 24.5644C13.7614 24.5111 13.6273 24.3954 13.5494 24.2423C13.4715 24.0891 13.456 23.9109 13.5063 23.7463L15.7513 16.3821C15.9497 15.723 16.3513 15.1464 16.8967 14.7375C17.4421 14.3285 18.1024 14.109 18.7799 14.1114H47.6232C48.3009 14.1089 48.9614 14.3285 49.5069 14.7377C50.0524 15.147 50.4538 15.724 50.6517 16.3834L52.8967 23.7463C52.9221 23.8292 52.9311 23.9164 52.923 24.0028C52.915 24.0892 52.8902 24.1732 52.8501 24.2498C52.8099 24.3264 52.7552 24.3941 52.6891 24.449C52.623 24.5039 52.5468 24.5449 52.465 24.5696C46.0776 26.4343 39.462 27.3662 32.8169 27.3373ZM56.7758 39.5995C56.7772 39.7596 56.7209 39.9146 56.6176 40.0353C56.5144 40.1561 56.3712 40.2342 56.2152 40.255L48.5086 41.296C48.4803 41.298 48.4518 41.298 48.4235 41.296C48.2526 41.296 48.0887 41.227 47.9679 41.104C47.847 40.9811 47.7791 40.8143 47.7791 40.6405V37.2095C47.7778 37.0494 47.8341 36.8944 47.9374 36.7736C48.0406 36.6529 48.1837 36.5747 48.3397 36.5539L56.0464 35.5261C56.1379 35.5137 56.2309 35.5214 56.3192 35.5488C56.4075 35.5761 56.4889 35.6224 56.5581 35.6846C56.6273 35.7467 56.6825 35.8233 56.7201 35.909C56.7576 35.9948 56.7767 36.0877 56.7758 36.1816V39.5995Z" />
<path d="M4.54199 49.5201V49.5333C4.54199 50.0548 4.74566 50.555 5.10819 50.9238C5.47072 51.2926 5.96241 51.4998 6.4751 51.4998H11.8878C12.3821 51.5014 12.8579 51.3085 13.2157 50.9616C13.5736 50.6147 13.7858 50.1405 13.808 49.6381H5.18636C4.96626 49.6395 4.7478 49.5995 4.54199 49.5201Z" />
<path d="M52.999 49.6381C53.0213 50.1405 53.2335 50.6147 53.5913 50.9616C53.9492 51.3085 54.4249 51.5014 54.9192 51.4998H60.332C60.8447 51.4998 61.3364 51.2926 61.6989 50.9238C62.0614 50.555 62.2651 50.0548 62.2651 49.5333V49.5201C62.0593 49.5995 61.8408 49.6395 61.6207 49.6381H52.999Z" />
</svg>
