<svg width="50" height="50" viewBox="0 0 50 50" fill="none" xmlns="http://www.w3.org/2000/svg">
<path d="M40 6.24999C40 5.79327 39.7551 5.39379 39.3894 5.17569C39.8113 4.17177 40.804 3.46677 41.9613 3.46677V0C38.9092 0 36.3678 2.18571 35.8167 5.07717C35.3399 5.25339 35 5.71197 35 6.24999V11.25C35 11.769 35.3163 12.2141 35.7666 12.4031V15.0144H39.2334V12.4031C39.6837 12.2141 40 11.769 40 11.25V6.24999Z" />
<path fill-rule="evenodd" clip-rule="evenodd" d="M31.245 3.1563C31.245 4.6449 30.1955 5.8884 28.796 6.18708L32.4216 16.2644H42.4998C45.2613 16.2644 47.4999 18.503 47.4999 21.2644V31.6567C46.4332 30.8839 45.0524 30.7424 43.87 31.2308C43.7361 31.1717 43.6007 31.1155 43.4637 31.0624C42.8996 29.7047 41.562 28.75 39.9995 28.75C38.437 28.75 37.0994 29.7048 36.5354 31.0625C36.3986 31.1155 36.2633 31.1716 36.1297 31.2307C34.7709 30.6697 33.1502 30.9404 32.0454 32.0452C30.9407 33.1499 30.6699 34.7704 31.2306 36.1291C31.1714 36.2631 31.1151 36.3988 31.0619 36.536C29.7044 37.1002 28.7499 38.4377 28.7499 40C28.7499 40.961 29.111 41.8368 29.7048 42.5H25.6125C25.5402 42.1815 25.4343 41.8692 25.2948 41.5685C25.4328 41.2693 25.5596 40.9638 25.6746 40.6525C27.4692 39.995 28.7499 38.2732 28.7499 36.25C28.7499 34.2269 27.4692 32.505 25.6746 31.8475C25.5596 31.5362 25.4328 31.2307 25.2948 30.9315C26.0991 29.1976 25.7872 27.0742 24.3565 25.6435C22.9259 24.2128 20.8025 23.9009 19.0685 24.7052C18.7693 24.5671 18.4637 24.4403 18.1524 24.3253C17.4949 22.5307 15.773 21.25 13.7499 21.25C11.7268 21.25 10.0049 22.5307 9.34739 24.3253C9.03605 24.4403 8.73053 24.5671 8.43125 24.7051C7.35137 24.2042 6.12041 24.1363 4.99985 24.502V6.25536H4.91351C3.20195 6.25536 1.81445 4.86786 1.81445 3.1563C1.81445 1.44474 3.20195 0.057251 4.91351 0.057251H28.1459C29.8575 0.057251 31.245 1.44474 31.245 3.1563ZM14.3798 6.25536H27.4921L31.088 16.25H14.3798V6.25536ZM13.1297 6.25536H6.24989V16.25H13.1297V6.25536ZM30.0035 21.25C30.0035 20.9048 30.2834 20.6251 30.6285 20.6251H41.9655C42.3107 20.6251 42.5905 20.9048 42.5905 21.25C42.5905 21.5952 42.3107 21.875 41.9655 21.875H30.6285C30.2834 21.875 30.0035 21.5952 30.0035 21.25ZM30.6285 23.125C30.2834 23.125 30.0035 23.4049 30.0035 23.75C30.0035 24.0952 30.2834 24.3751 30.6285 24.3751H41.9655C42.3107 24.3751 42.5905 24.0952 42.5905 23.75C42.5905 23.4049 42.3107 23.125 41.9655 23.125H30.6285ZM30.0035 26.2501C30.0035 25.9049 30.2834 25.625 30.6285 25.625H41.9655C42.3107 25.625 42.5905 25.9049 42.5905 26.2501C42.5905 26.5952 42.3107 26.875 41.9655 26.875H30.6285C30.2834 26.875 30.0035 26.5952 30.0035 26.2501Z" />
<path d="M16.2981 36.2501C16.2981 37.6573 15.1573 38.7981 13.7501 38.7981C12.3429 38.7981 11.2021 37.6573 11.2021 36.2501C11.2021 34.8429 12.3429 33.7021 13.7501 33.7021C15.1573 33.7021 16.2981 34.8429 16.2981 36.2501Z" />
<path fill-rule="evenodd" clip-rule="evenodd" d="M13.75 42.5625C17.2363 42.5625 20.0625 39.7363 20.0625 36.25C20.0625 32.7637 17.2363 29.9375 13.75 29.9375C10.2637 29.9375 7.4375 32.7637 7.4375 36.25C7.4375 39.7363 10.2637 42.5625 13.75 42.5625ZM17.5478 36.25C17.5478 38.3475 15.8473 40.0479 13.7498 40.0479C11.6523 40.0479 9.95186 38.3475 9.95186 36.25C9.95186 34.1524 11.6523 32.452 13.7498 32.452C15.8473 32.452 17.5478 34.1524 17.5478 36.25Z" />
<path fill-rule="evenodd" clip-rule="evenodd" d="M23.8826 41.605C24.0739 41.8849 24.2193 42.1867 24.3186 42.5C24.6944 43.6849 24.4124 45.0331 23.4728 45.9728C22.2848 47.1608 20.4434 47.2975 19.1051 46.3826C18.4783 46.7145 17.8171 46.99 17.1281 47.2022C16.8283 48.795 15.4298 50 13.75 50C12.0701 50 10.6717 48.795 10.3719 47.2022C9.68297 46.99 9.02177 46.7145 8.39501 46.3826C7.05671 47.2974 5.21537 47.1608 4.02731 45.9727C2.83931 44.7847 2.70269 42.9434 3.61745 41.6051C3.28547 40.9783 3.01001 40.3171 2.79773 39.6281C1.20497 39.3283 0 37.9298 0 36.25C0 34.5701 1.20497 33.1717 2.79773 32.8719C3.01001 32.1829 3.28547 31.5217 3.61745 30.8949C2.70269 29.5566 2.83937 27.7153 4.02737 26.5273C4.31813 26.2366 4.64795 26.0088 4.99997 25.844C6.08645 25.3354 7.38419 25.4265 8.39495 26.1174C9.02171 25.7855 9.68297 25.51 10.3719 25.2977C10.6717 23.705 12.0701 22.5 13.75 22.5C15.4298 22.5 16.8283 23.705 17.1281 25.2977C17.8171 25.51 18.4783 25.7855 19.1051 26.1174C19.2724 26.003 19.4475 25.9051 19.6283 25.8236C20.8935 25.2532 22.4332 25.4878 23.4728 26.5273C24.6608 27.7154 24.7974 29.5567 23.8826 30.895C24.2145 31.5217 24.49 32.183 24.7022 32.8719C26.295 33.1717 27.5 34.5701 27.5 36.25C27.5 37.9298 26.295 39.3283 24.7022 39.6281C24.49 40.317 24.2145 40.9782 23.8826 41.605ZM13.7499 43.8125C17.9265 43.8125 21.3124 40.4267 21.3124 36.25C21.3124 32.0734 17.9265 28.6876 13.7499 28.6876C9.57329 28.6876 6.18743 32.0734 6.18743 36.25C6.18743 40.4267 9.57329 43.8125 13.7499 43.8125Z" />
<path d="M41.5126 40.0002C41.5126 40.8354 40.8356 41.5123 40.0005 41.5123C39.1653 41.5123 38.4883 40.8354 38.4883 40.0002C38.4883 39.1651 39.1653 38.488 40.0005 38.488C40.8356 38.488 41.5126 39.1651 41.5126 40.0002Z" />
<path fill-rule="evenodd" clip-rule="evenodd" d="M40 44.2502C42.3472 44.2502 44.25 42.3474 44.25 40.0003C44.25 37.653 42.3472 35.7502 40 35.7502C37.6527 35.7502 35.75 37.653 35.75 40.0003C35.75 42.3474 37.6527 44.2502 40 44.2502ZM42.762 40.0002C42.762 41.5257 41.5254 42.7623 39.9999 42.7623C38.4744 42.7623 37.2377 41.5257 37.2377 40.0002C37.2377 38.4747 38.4744 37.238 39.9999 37.238C41.5254 37.238 42.762 38.4747 42.762 40.0002Z" />
<path fill-rule="evenodd" clip-rule="evenodd" d="M47.0712 32.929C47.2451 33.1029 47.3881 33.296 47.5 33.5016C47.9046 34.2444 47.9046 35.1491 47.5 35.8919C47.4602 35.9648 47.4166 36.0362 47.3691 36.1058C47.4142 36.1909 47.4578 36.277 47.5 36.3638C47.6836 36.7418 47.8395 37.1358 47.965 37.5431C49.1235 37.7611 50 38.7782 50 40C50 41.2217 49.1236 42.2389 47.9651 42.4568C47.8108 42.9577 47.6105 43.4384 47.3692 43.8941C48.035 44.8675 47.9357 46.207 47.0715 47.0712C46.2074 47.9353 44.8681 48.0346 43.8947 47.369C43.4387 47.6105 42.9577 47.811 42.4564 47.9654C42.2383 49.1237 41.2213 50 39.9997 50C38.778 50 37.7609 49.1237 37.5429 47.9653C37.0419 47.811 36.5611 47.6107 36.1054 47.3693C35.132 48.0345 33.793 47.9351 32.9291 47.0711C32.0651 46.2072 31.9657 44.8682 32.6308 43.8949C32.3962 43.4521 32.2004 42.9856 32.0479 42.5L32.0344 42.4567C30.8762 42.2386 30 41.2216 30 40C30 38.7784 30.8762 37.7614 32.0345 37.5432C32.189 37.042 32.3894 36.5609 32.6309 36.1049C31.966 35.1317 32.0655 33.7929 32.9294 32.929C33.7933 32.0651 35.1323 31.9657 36.1055 32.6308C36.5612 32.3894 37.042 32.1892 37.5428 32.0348C37.7608 30.8764 38.7779 30 39.9997 30C41.2214 30 42.2384 30.8764 42.4565 32.0348C42.9576 32.1892 43.4386 32.3896 43.8945 32.631C44.8678 31.9655 46.2071 32.0649 47.0712 32.929ZM40.0001 45.5002C43.0376 45.5002 45.5001 43.0378 45.5001 40.0003C45.5001 36.9627 43.0376 34.5002 40.0001 34.5002C36.9626 34.5002 34.5001 36.9627 34.5001 40.0003C34.5001 43.0378 36.9626 45.5002 40.0001 45.5002Z" />
</svg>
