<svg width="59" height="50" viewBox="0 0 59 50" fill="none" xmlns="http://www.w3.org/2000/svg">
<path fill-rule="evenodd" clip-rule="evenodd" d="M7.99882 39.3931C10.928 39.3931 13.3023 41.7676 13.3023 44.6966C13.3023 47.6256 10.928 50 7.99882 50C5.06981 50 2.69531 47.6256 2.69531 44.6966C2.69531 41.7676 5.06981 39.3931 7.99882 39.3931ZM7.99882 42.1917C9.3822 42.1917 10.5037 43.3133 10.5037 44.6966C10.5037 46.08 9.3822 47.2014 7.99882 47.2014C6.61558 47.2014 5.49406 46.08 5.49406 44.6966C5.49406 43.3133 6.61558 42.1917 7.99882 42.1917Z" />
<path fill-rule="evenodd" clip-rule="evenodd" d="M40.1629 39.3931C43.0919 39.3931 45.4664 41.7676 45.4664 44.6966C45.4664 47.6256 43.0919 50 40.1629 50C37.2337 50 34.8594 47.6256 34.8594 44.6966C34.8594 41.7676 37.2337 39.3931 40.1629 39.3931ZM40.1629 42.1917C41.5463 42.1917 42.6676 43.3133 42.6676 44.6966C42.6676 46.08 41.5463 47.2014 40.1629 47.2014C38.7795 47.2014 37.658 46.08 37.658 44.6966C37.658 43.3133 38.7795 42.1917 40.1629 42.1917Z" />
<path d="M25.7137 27.0661L27.3905 26.1024L25.7032 23.18L24.0264 24.1436L25.7137 27.0661Z" />
<path d="M21.9884 23.4537C21.5253 23.7219 21.3673 24.3147 21.6355 24.7776C21.9037 25.2406 22.4965 25.3987 22.9596 25.1305L27.0921 22.7444C27.5551 22.4763 27.713 21.8834 27.4449 21.4205C27.1767 20.9575 26.5839 20.7994 26.1209 21.0676L21.9884 23.4537Z" />
<path fill-rule="evenodd" clip-rule="evenodd" d="M45.1426 32.4189V36.4465H57.2971C57.8343 36.4465 58.2725 36.0081 58.2725 35.471V33.3943C58.2725 32.8572 57.8343 32.4189 57.2971 32.4189H45.1426Z" />
<path fill-rule="evenodd" clip-rule="evenodd" d="M56.0182 31.1239H47.5996V22.7055H50.9327V25.5122H52.6851V22.7055H56.0182V31.1239Z" />
<path fill-rule="evenodd" clip-rule="evenodd" d="M56.0182 12.9921H52.6851V15.7988H50.9327V12.9921H47.5996V21.4106H56.0182V12.9921Z" />
<path fill-rule="evenodd" clip-rule="evenodd" d="M56.0182 11.6972H47.5996V3.27881H50.9327V6.08549H52.6851V3.27881H56.0182V11.6972Z" />
<path fill-rule="evenodd" clip-rule="evenodd" d="M41.4385 0.975395V31.8745V38.222C43.0809 38.5439 44.5051 39.4753 45.466 40.7709V36.4465V32.419V0.975529C45.466 0.438094 45.0278 0 44.4905 0H42.414C41.8767 0 41.4385 0.438094 41.4385 0.975395Z" />
<path fill-rule="evenodd" clip-rule="evenodd" d="M11.6417 8.08678L4.32031 27.5741H8.86727L14.7215 12.0826C14.9675 11.4314 15.5528 11.0136 16.249 11.0136H26.2364C26.9731 11.0136 27.5968 11.484 27.7996 12.1923L31.7575 26.0215L33.0619 30.5796H37.5323L31.2491 8.45349C31.058 7.46062 30.1849 6.71052 29.1364 6.71052H13.6918C12.8124 6.69144 11.9749 7.21691 11.6417 8.08678Z" />
<path fill-rule="evenodd" clip-rule="evenodd" d="M32.0817 26.0215H26.2275C24.6521 26.0215 23.6127 27.6393 24.2675 29.0723L28.3141 37.9277L30.3421 32.1035C30.6623 31.184 31.5126 30.5796 32.4863 30.5796H33.3861L32.0817 26.0215Z" />
<path fill-rule="evenodd" clip-rule="evenodd" d="M20.1505 31.9705H16.0254L19.1941 38.336H22.3055V34.1256C22.3055 32.9387 21.3372 31.9705 20.1505 31.9705Z" />
<path fill-rule="evenodd" clip-rule="evenodd" d="M9.19124 27.2504H4.64428H1.62588C0.730471 27.2504 0 27.9808 0 28.8763V38.424C0 38.872 0.159698 39.2572 0.476271 39.5738L2.28941 41.3869C3.47263 39.3505 5.64226 38.0982 7.99834 38.0982C8.59842 38.0982 9.18949 38.1791 9.75758 38.336H17.7472L14.5785 31.9705L12.6774 28.1518C12.3957 27.5858 11.8541 27.2504 11.2219 27.2504H9.19124Z" />
<path fill-rule="evenodd" clip-rule="evenodd" d="M21.3333 39.6309L18.3914 39.6308L12.2256 39.6309C12.2687 39.6669 12.3113 39.7035 12.3537 39.7407L12.3768 39.7611C12.4111 39.7917 12.4451 39.8226 12.479 39.8538L12.5043 39.8774C12.5379 39.9087 12.5711 39.9405 12.6039 39.9726L12.6252 39.9934C12.6607 40.0284 12.6958 40.0637 12.7306 40.0995L12.7453 40.1146C12.7644 40.1343 12.7835 40.1542 12.8023 40.1742L12.8239 40.1976C12.8552 40.2312 12.8863 40.2651 12.9169 40.2993L12.9405 40.3257C12.9692 40.3584 12.9979 40.3912 13.0261 40.4244L13.0519 40.4549C13.0784 40.4865 13.1046 40.5184 13.1305 40.5504L13.1608 40.588C13.1812 40.6137 13.2017 40.6396 13.2217 40.6657C13.2357 40.6837 13.2496 40.7019 13.2635 40.7201C13.2785 40.74 13.2936 40.7602 13.3085 40.7804C13.3204 40.7964 13.332 40.8126 13.3437 40.8288C13.3644 40.8573 13.385 40.886 13.4053 40.9149L13.4386 40.963C13.4584 40.9917 13.4778 41.0204 13.4971 41.0495L13.5322 41.1028C13.5486 41.128 13.5649 41.1533 13.5809 41.1788C13.5944 41.2002 13.6079 41.2217 13.6212 41.2432C13.6332 41.2628 13.6453 41.2826 13.6571 41.3023C13.674 41.3304 13.6908 41.3588 13.7074 41.3872C13.7183 41.406 13.729 41.4248 13.7398 41.4438C13.7552 41.4709 13.7705 41.4983 13.7856 41.5258C13.7964 41.5454 13.807 41.5651 13.8176 41.5848C13.8305 41.609 13.8433 41.6333 13.856 41.6576C13.868 41.6807 13.88 41.7041 13.8918 41.7275C13.9047 41.7531 13.9175 41.7786 13.93 41.8043L13.9535 41.8525C13.9698 41.8867 13.9858 41.9211 14.0015 41.9555L14.0235 42.004C14.039 42.0386 14.0542 42.0733 14.0691 42.1081L14.0889 42.1551C14.1043 42.1921 14.1195 42.2292 14.1343 42.2666L14.1481 42.3021C14.1616 42.3365 14.1748 42.371 14.1877 42.4057L14.2011 42.4423C14.2146 42.4794 14.2277 42.5167 14.2406 42.5542L14.2549 42.5961C14.2679 42.6349 14.2806 42.674 14.2929 42.7131L14.3058 42.7545C14.3181 42.7945 14.33 42.8344 14.3415 42.8746L14.3525 42.9136C14.3644 42.956 14.376 42.9985 14.387 43.0413L14.3927 43.0639C14.4036 43.1069 14.4142 43.15 14.4243 43.1933L14.4286 43.2116C14.4392 43.2576 14.4491 43.3038 14.4588 43.35L14.4646 43.3783C14.4739 43.424 14.4826 43.4698 14.4909 43.5158L14.4956 43.5423C14.504 43.5891 14.5118 43.6358 14.519 43.6829L14.5227 43.707C14.5301 43.756 14.5369 43.8052 14.5432 43.8546L14.544 43.8614C14.5503 43.9105 14.5559 43.9598 14.561 44.0093L14.563 44.0278C14.5678 44.0761 14.572 44.1246 14.5759 44.1731L14.578 44.2011C14.5817 44.2494 14.5846 44.2978 14.5872 44.3463L14.5884 44.3701C14.5908 44.4197 14.5928 44.4694 14.5942 44.5194L14.5946 44.5404C14.5958 44.5923 14.5965 44.6444 14.5965 44.6966C14.5965 44.7531 14.5958 44.8094 14.5944 44.8654V44.8668C14.5931 44.9226 14.5907 44.9792 14.588 45.0347L14.5879 45.036V45.038C14.585 45.0914 14.5817 45.1445 14.5776 45.1975L14.5767 45.2106C14.5728 45.2604 14.5684 45.31 14.5635 45.3594L14.5612 45.3823C14.5564 45.4287 14.551 45.4749 14.5452 45.521L14.5412 45.5526C14.5357 45.5952 14.5298 45.6377 14.5235 45.6799L14.5166 45.7246C14.5107 45.7623 14.5044 45.8001 14.4979 45.8376L14.4881 45.8924C14.4821 45.9251 14.4757 45.9578 14.4693 45.9902C14.4646 46.0141 14.4597 46.038 14.4546 46.0618C14.4486 46.091 14.4421 46.1202 14.4357 46.1492C14.43 46.1742 14.4243 46.1992 14.4183 46.2239C14.4119 46.2511 14.4053 46.2781 14.3986 46.3051C14.3913 46.3338 14.3839 46.3624 14.3764 46.3909C14.3706 46.4128 14.3647 46.4346 14.3587 46.4565L14.3576 46.4605L33.8031 46.4607C33.7964 46.4363 33.7898 46.4119 33.7833 46.3874C33.7764 46.3611 33.7695 46.3347 33.7629 46.3082C33.7557 46.2796 33.7487 46.2508 33.7418 46.2221C33.7363 46.1984 33.7308 46.1747 33.7254 46.151C33.7185 46.1206 33.712 46.0902 33.7055 46.0598C33.7009 46.0379 33.6965 46.016 33.6921 45.9941C33.6852 45.9597 33.6786 45.9253 33.6723 45.8907L33.6637 45.8431C33.6566 45.8021 33.6497 45.7611 33.6433 45.7198L33.6378 45.6837C33.6312 45.64 33.625 45.5962 33.6193 45.5521L33.6157 45.5234C33.6098 45.4765 33.6044 45.4295 33.5994 45.3822L33.5972 45.3594C33.5923 45.31 33.5878 45.2604 33.584 45.2106L33.583 45.1975C33.579 45.1445 33.5757 45.0914 33.573 45.038L33.5728 45.036L33.5727 45.0347C33.5699 44.9793 33.5677 44.9236 33.5664 44.8679V44.8654C33.5649 44.8094 33.5642 44.7529 33.5642 44.6966C33.5642 44.6401 33.5649 44.5839 33.5662 44.5279C33.5668 44.5058 33.568 44.4839 33.5688 44.4619C33.57 44.4275 33.5709 44.3929 33.5727 44.3586C33.5739 44.3357 33.5757 44.3129 33.577 44.2901C33.579 44.2578 33.5808 44.2253 33.5832 44.193C33.5853 44.1636 33.5883 44.1344 33.5908 44.1053C33.5931 44.079 33.5951 44.0527 33.5978 44.0266C33.6003 44.0019 33.6033 43.9773 33.6062 43.9527C33.6097 43.922 33.6128 43.8914 33.6167 43.8609C33.6195 43.8388 33.6228 43.8169 33.6258 43.7949C33.6302 43.7623 33.6345 43.7298 33.6394 43.6974C33.6431 43.6733 33.6473 43.6494 33.6512 43.6255C33.656 43.5956 33.6607 43.5657 33.666 43.536C33.6707 43.5097 33.6759 43.4838 33.6808 43.4579C33.686 43.4303 33.6911 43.4027 33.6966 43.3753C33.7017 43.3505 33.7073 43.3257 33.7126 43.3009C33.7188 43.2722 33.7247 43.2436 33.7313 43.2151C33.7371 43.1899 33.7434 43.1649 33.7495 43.1398C33.7561 43.1127 33.7624 43.0854 33.7694 43.0583C33.7762 43.0313 33.7836 43.0046 33.7909 42.9777C33.7976 42.9526 33.8042 42.9274 33.8113 42.9024C33.8195 42.8731 33.8282 42.8442 33.8368 42.8152C33.8434 42.7931 33.8497 42.7709 33.8566 42.7489C33.8656 42.7193 33.8753 42.69 33.8848 42.6607C33.892 42.6388 33.8988 42.6169 33.9061 42.5951C33.9158 42.5663 33.926 42.538 33.9359 42.5094C33.9437 42.4874 33.9512 42.4654 33.9592 42.4435C33.9689 42.4169 33.9789 42.3904 33.989 42.3639C33.998 42.34 34.0069 42.316 34.0163 42.2923C34.0268 42.2652 34.0378 42.2385 34.0487 42.2117C34.0576 42.1898 34.0663 42.168 34.0754 42.1464C34.0874 42.1176 34.0999 42.0893 34.1124 42.0608C34.1212 42.0405 34.1299 42.0202 34.1389 42C34.1517 41.9715 34.165 41.9433 34.178 41.9149C34.1872 41.8954 34.1962 41.8758 34.2054 41.8564C34.2194 41.827 34.2339 41.798 34.2483 41.7688C34.2573 41.7508 34.2662 41.7325 34.2753 41.7145C34.2897 41.6863 34.3044 41.6583 34.3192 41.6302C34.3292 41.611 34.3393 41.5916 34.3497 41.5725C34.3642 41.5455 34.3791 41.5186 34.394 41.4919C34.4047 41.4728 34.4153 41.4536 34.426 41.4346C34.4415 41.4076 34.4572 41.3806 34.4731 41.3538C34.4841 41.3353 34.4949 41.3167 34.506 41.2983C34.522 41.2717 34.5383 41.2453 34.5547 41.219C34.5662 41.2004 34.5777 41.1819 34.5894 41.1635C34.6059 41.1374 34.6228 41.1115 34.6398 41.0856C34.6515 41.0678 34.6632 41.0499 34.675 41.0321C34.6929 41.0054 34.7111 40.9788 34.7296 40.9523C34.7409 40.9359 34.752 40.9195 34.7636 40.9032C34.7825 40.8762 34.8019 40.8493 34.8214 40.8226C34.8327 40.807 34.844 40.7914 34.8554 40.7759C34.8751 40.7492 34.8952 40.7228 34.9153 40.6965C34.9272 40.681 34.939 40.6654 34.9508 40.6501C34.9707 40.6246 34.9909 40.5993 35.0111 40.5742C35.0237 40.5584 35.0362 40.5427 35.049 40.5271C35.0701 40.5012 35.0914 40.4756 35.1129 40.4501L35.1487 40.4077C35.1709 40.3819 35.1932 40.3564 35.2158 40.3308C35.2279 40.3171 35.24 40.3034 35.2521 40.2898C35.2749 40.2644 35.2981 40.2393 35.3212 40.2143L35.3587 40.1741C35.3822 40.1491 35.406 40.1244 35.4299 40.0996L35.4665 40.0623C35.4912 40.0373 35.5161 40.0124 35.5412 39.9878L35.5786 39.9512C35.6039 39.9269 35.6293 39.9027 35.655 39.8788L35.6917 39.8446C35.718 39.8203 35.7446 39.7962 35.7714 39.7723L35.8085 39.7395C35.8351 39.716 35.862 39.6929 35.8891 39.6697L35.9281 39.6368C35.9554 39.6138 35.9831 39.5912 36.0108 39.5686L36.0484 39.5384C36.0772 39.5154 36.1062 39.4926 36.1354 39.4701L36.1713 39.4426C36.2014 39.4197 36.2316 39.3971 36.262 39.3748L36.2964 39.3497C36.3274 39.3274 36.3584 39.3052 36.3897 39.2833L36.4253 39.2587C36.4571 39.2369 36.4889 39.2152 36.5209 39.194L36.5541 39.1722C36.5873 39.1504 36.6208 39.1289 36.6544 39.1078L36.6865 39.0878C36.7203 39.0667 36.7543 39.046 36.7886 39.0256L36.8212 39.0063C36.8559 38.9858 36.891 38.9656 36.9262 38.9457L36.9566 38.9288C36.9928 38.9086 37.0292 38.8887 37.0658 38.8692L37.0945 38.854C37.1319 38.8344 37.1694 38.8151 37.2072 38.7961L37.2341 38.7827C37.2721 38.7638 37.3104 38.7453 37.3489 38.7271L37.3779 38.7134C37.4166 38.6954 37.4555 38.6778 37.4944 38.6605L37.5207 38.649C37.5606 38.6316 37.6006 38.6145 37.641 38.5977L37.666 38.5875C37.7074 38.5705 37.7489 38.554 37.7906 38.5379L37.812 38.5298C37.8542 38.5137 37.8966 38.4979 37.9393 38.4826L37.9632 38.4743C38.0058 38.4592 38.0485 38.4444 38.0914 38.4302L38.1128 38.4233C38.157 38.409 38.2013 38.3948 38.2459 38.3814L38.2632 38.3762C38.3084 38.3626 38.3538 38.3494 38.3994 38.3369L38.4202 38.3311C38.4651 38.3189 38.5102 38.3071 38.5555 38.2958L38.576 38.2908C38.6217 38.2794 38.6676 38.2686 38.7137 38.2581L38.7312 38.2544C38.7786 38.2439 38.8262 38.2338 38.8739 38.2244L38.8875 38.2217C38.936 38.2123 38.9846 38.2033 39.0335 38.1948L39.0492 38.1923C39.0983 38.1838 39.1473 38.1761 39.1968 38.1687L39.2062 38.1674C39.2572 38.16 39.3083 38.1531 39.3595 38.147L39.3689 38.1459C39.4206 38.1396 39.4724 38.1341 39.5244 38.1289L39.5299 38.1285C39.638 38.1182 39.7469 38.1105 39.8564 38.1054H39.8589C39.9137 38.1029 39.969 38.1011 40.0242 38.0999H40.0264C40.0653 38.0988 40.1046 38.0983 40.1437 38.0982V31.8745H37.8997H33.4324H32.4857C32.0631 31.8745 31.7035 32.1301 31.5645 32.5292L29.3197 38.9761C29.2552 39.1615 29.1431 39.3159 28.9991 39.428C28.8331 39.5575 28.6249 39.6309 28.3985 39.6309H21.3333Z" />
</svg>
