<svg width="68" height="50" viewBox="0 0 68 50" fill="none" xmlns="http://www.w3.org/2000/svg">
<path fill-rule="evenodd" clip-rule="evenodd" d="M43.5605 50H7.2756C3.26608 50 0 46.7339 0 42.7244C0 38.7148 3.26608 35.4488 7.2756 35.4488L43.5605 35.4486C47.57 35.4486 50.8361 38.7147 50.8361 42.7242C50.8363 46.7339 47.5702 50 43.5605 50ZM41.609 47.0924C39.1927 47.0924 37.2277 45.1273 37.2277 42.711C37.2277 40.2947 39.1927 38.3297 41.609 38.3297C44.0253 38.3297 45.9903 40.2947 45.9903 42.711C45.977 45.1273 44.012 47.0924 41.609 47.0924ZM41.609 39.9362C40.0689 39.9362 38.8209 41.1843 38.8209 42.7244C38.8209 44.2644 40.0689 45.5125 41.609 45.5125C43.149 45.5125 44.3971 44.2644 44.3971 42.7244C44.3971 41.1843 43.1357 39.9362 41.609 39.9362ZM30.8152 47.0924C28.3988 47.0924 26.4338 45.1273 26.4338 42.711C26.4338 40.2947 28.3988 38.3297 30.8152 38.3297C33.2315 38.3297 35.1963 40.2947 35.1963 42.711C35.1963 45.1273 33.2315 47.0924 30.8152 47.0924ZM30.8152 39.9362C29.2751 39.9362 28.027 41.1843 28.027 42.7244C28.027 44.2644 29.2751 45.5125 30.8152 45.5125C32.3552 45.5125 33.6033 44.2644 33.6033 42.7244C33.6033 41.1843 32.3552 39.9362 30.8152 39.9362ZM20.0212 47.0924C17.6049 47.0924 15.6399 45.1273 15.6399 42.711C15.6399 40.2947 17.6049 38.3297 20.0212 38.3297C22.4375 38.3297 24.4025 40.2947 24.4025 42.711C24.4025 45.1273 22.4375 47.0924 20.0212 47.0924ZM20.0212 39.9362C18.4811 39.9362 17.2331 41.1843 17.2331 42.7244C17.2331 44.2644 18.4811 45.5125 20.0212 45.5125C21.5612 45.5125 22.8093 44.2644 22.8093 42.7244C22.8093 41.1843 21.5612 39.9362 20.0212 39.9362ZM9.22719 47.0924C6.81087 47.0924 4.84587 45.1273 4.84587 42.711C4.84587 40.2947 6.81087 38.3297 9.22719 38.3297C11.6435 38.3297 13.6085 40.2947 13.6085 42.711C13.6085 45.1273 11.6435 47.0924 9.22719 47.0924ZM9.22719 39.9362C7.68715 39.9362 6.43907 41.1843 6.43907 42.7244C6.43907 44.2644 7.68714 45.5125 9.22719 45.5125C10.7672 45.5125 12.0153 44.2644 12.0153 42.7244C12.0153 41.1843 10.7672 39.9362 9.22719 39.9362Z" />
<path fill-rule="evenodd" clip-rule="evenodd" d="M40.5205 37.0418H10.3161C9.878 37.0418 9.51953 36.6833 9.51953 36.2452V32.0232C9.51953 31.585 9.878 31.2266 10.3161 31.2266L40.5205 31.2267C40.9586 31.2267 41.3171 31.5852 41.3171 32.0233V36.2453C41.3171 36.6833 40.9586 37.0418 40.5205 37.0418Z" />
<path fill-rule="evenodd" clip-rule="evenodd" d="M27.9874 32.8201H5.65598C5.21785 32.8201 4.85938 32.4616 4.85938 32.0235V16.5561C4.85938 16.118 5.21785 15.7595 5.65598 15.7595H27.9874C28.4255 15.7595 28.784 16.118 28.784 16.5561V32.0232C28.784 32.4615 28.4255 32.8201 27.9874 32.8201ZM14.3788 29.846H11.1657C10.7276 29.846 10.3691 29.4875 10.3691 29.0494V19.5169C10.3691 19.0788 10.7276 18.7203 11.1657 18.7203H14.3788C14.8169 18.7203 15.1754 19.0788 15.1754 19.5169V29.0494C15.1754 29.5008 14.8169 29.846 14.3788 29.846ZM11.9623 28.2528H13.5822V20.3134L11.9623 20.3135V28.2528ZM22.4775 29.846H19.2645C18.8264 29.846 18.4679 29.4875 18.4679 29.0494V19.5169C18.4679 19.0788 18.8264 18.7203 19.2645 18.7203H22.4775C22.9156 18.7203 23.2741 19.0788 23.2741 19.5169V29.0494C23.2741 29.5008 22.9156 29.846 22.4775 29.846ZM20.0611 28.2528H21.6808V20.3134L20.0611 20.3135V28.2528Z" />
<path fill-rule="evenodd" clip-rule="evenodd" d="M45.1802 32.8201H27.987C27.5489 32.8201 27.1904 32.4616 27.1904 32.0234V13.7018C27.1904 13.2636 27.5489 12.9052 27.987 12.9052H34.9173V23.2477C34.9173 23.6858 35.2758 24.0443 35.7139 24.0443H45.9766V32.0233C45.9768 32.4616 45.6183 32.8201 45.1802 32.8201ZM36.5106 12.9052H37.0017C41.954 12.9052 45.9767 16.928 45.9767 21.8801V22.4511H36.5106V12.9052Z" />
<path fill-rule="evenodd" clip-rule="evenodd" d="M41.5713 12.6466L56.7977 4.13281C56.7627 4.40112 56.7444 4.6746 56.7444 4.95231C56.7444 7.43903 58.1993 9.59379 60.3018 10.6102L46.6404 18.2388C45.716 15.7979 43.8909 13.7981 41.5713 12.6466Z" />
<path fill-rule="evenodd" clip-rule="evenodd" d="M63.0245 9.90454C60.3027 9.90454 58.0723 7.68737 58.0723 4.95227C58.0723 2.21715 60.2894 0 63.0245 0C65.7597 0 67.9768 2.23064 67.9768 4.95243C67.9768 7.67422 65.7596 9.90454 63.0245 9.90454Z" />
<path fill-rule="evenodd" clip-rule="evenodd" d="M60.7139 25.2651V10.7913C61.4294 11.0756 62.2089 11.2321 63.024 11.2321C63.8443 11.2321 64.6284 11.0734 65.3475 10.7858V25.2708C64.6498 24.9112 63.8597 24.708 63.024 24.708C62.1924 24.708 61.4071 24.909 60.7139 25.2651Z" />
<path fill-rule="evenodd" clip-rule="evenodd" d="M63.0243 33.5236C60.9531 33.5236 59.2803 31.8374 59.2803 29.7796C59.2803 27.7084 60.9665 26.0355 63.0243 26.0355C65.0822 26.0355 66.7817 27.7084 66.7817 29.7796C66.7817 31.8374 65.0955 33.5236 63.0243 33.5236Z" />
<path fill-rule="evenodd" clip-rule="evenodd" d="M57.6869 39.5247C56.3327 39.5247 55.0581 38.9935 54.0888 38.0376C49.6412 33.6165 51.0882 28.1067 51.1414 27.8678C51.2077 27.6154 51.3937 27.4163 51.6459 27.3235C51.8982 27.2305 52.1636 27.2703 52.3761 27.4296L53.2657 28.0669C54.5005 28.9565 55.9608 29.4345 57.4877 29.4345H57.9643C57.9566 29.5485 57.9523 29.6636 57.9523 29.7796C57.9523 32.5763 60.2264 34.8512 63.024 34.8512C63.1115 34.8512 63.1988 34.849 63.2852 34.8446C62.8414 36.0276 62.1999 37.066 61.3647 37.9446C60.4221 38.9404 59.1476 39.5113 57.7667 39.5245C57.7399 39.5247 57.7134 39.5247 57.6869 39.5247Z" />
</svg>
