<svg width="51" height="50" viewBox="0 0 51 50" fill="none" xmlns="http://www.w3.org/2000/svg">
<path d="M49.8048 26.4402C49.766 26.1979 49.6656 25.9676 49.5173 25.7725L44.6788 19.5051H45.1442C45.9534 19.5051 46.6093 18.8491 46.6093 18.04V8.97556C46.6093 8.97214 46.609 8.96891 46.6089 8.9655C46.6102 8.42409 46.2845 7.90388 45.7992 7.66506L30.7727 0.154618C30.1644 -0.149343 29.427 0.00517704 28.9919 0.52744L27.2137 2.6625C25.7896 3.38509 24.6913 4.62818 24.1661 6.13676C23.2847 8.66837 24.1629 11.3987 26.1553 13.0144L22.6455 16.5242L30.3782 24.2568L35.7921 13.4951L36.8132 14.5162V18.0398C36.8132 18.8489 37.4692 19.5049 38.2783 19.5049H38.7149L33.8765 25.7723C33.7282 25.9675 33.6278 26.1978 33.5889 26.44C33.4508 27.2263 33.3805 28.0351 33.3805 28.8443C33.3805 32.2402 34.5729 35.3586 36.652 37.3998C36.9401 37.6826 37.3323 37.8328 37.7357 37.8183C38.1392 37.8026 38.5183 37.6208 38.7835 37.3162L41.6971 33.9694L44.6106 37.3162C44.8758 37.6208 45.2549 37.8025 45.6584 37.8183C45.6776 37.8191 45.6967 37.8195 45.7158 37.8195C46.0989 37.8195 46.4677 37.6692 46.7422 37.3999C48.8213 35.3586 50.0137 32.2403 50.0137 28.8443C50.0134 28.0353 49.943 27.2265 49.8048 26.4402ZM28.249 10.9207C27.0151 10.0951 26.4337 8.53563 26.9333 7.10041C27.1318 6.53048 27.4879 6.03244 27.9521 5.65552L30.7332 8.43659L28.249 10.9207ZM40.2317 25.2026H38.018L40.2317 22.3353V25.2026ZM43.1619 25.2026V22.3352L45.3756 25.2025L43.1619 25.2026Z" />
<path d="M7.3894 12.6888H8.48999V27.2876H14.2897V17.1265H11.4202V12.6888H12.5208C13.2347 12.6888 13.8135 12.1101 13.8135 11.3961V9.12062C13.8135 6.99309 12.0826 5.26221 9.9551 5.26221C7.82756 5.26221 6.09668 6.99309 6.09668 9.12062V11.3961C6.09668 12.1101 6.6755 12.6888 7.3894 12.6888Z" />
<path d="M8.49023 32.8747C10.7433 33.1772 12.7627 34.2271 14.2899 35.7663V30.2178H8.49023V32.8747Z" />
<path d="M5.55941 27.9621L0.711945 30.8877C0.27251 31.153 0.00390625 31.6289 0.00390625 32.1422V35.7575C1.47663 34.2768 3.4055 33.2505 5.55941 32.909V27.9621Z" />
<path d="M30.0645 35.6653C27.1269 35.6653 24.6039 37.4364 23.502 39.9685H13.675C12.5655 37.4633 10.0591 35.7146 7.1427 35.7146C3.19794 35.7145 0 38.9125 0 42.8572C0 46.8021 3.19794 50 7.1427 50C10.0735 50 12.5908 48.2341 13.6918 45.7088H23.5185C24.6288 48.2212 27.1411 49.9753 30.0645 49.9753C34.0161 49.9753 37.2196 46.7719 37.2196 42.8203C37.2196 38.8687 34.0161 35.6653 30.0645 35.6653ZM7.1431 44.319C6.12201 44.3347 5.37979 43.2313 5.79031 42.2932C6.24235 41.1603 7.87389 41.08 8.43434 42.1633C8.96481 43.1109 8.2264 44.3357 7.1431 44.319ZM30.0642 44.2821C28.9808 44.2985 28.2421 43.074 28.7729 42.1264C29.333 41.0432 30.9652 41.1234 31.4169 42.2563C31.8275 43.1937 31.0851 44.298 30.0642 44.2821Z" />
<path d="M24.141 34.6626L22.7029 33.2894C22.4176 33.5908 22.0311 33.748 21.6405 33.748C21.3121 33.748 20.9818 33.6383 20.7087 33.4129C20.0846 32.898 19.9962 31.9745 20.5112 31.3504L22.3555 29.1155C22.8706 28.4912 23.794 28.403 24.418 28.918C25.0421 29.4329 25.1305 30.3564 24.6156 30.9804L24.5769 31.0273L26.9003 33.2457C27.8954 32.916 28.9578 32.7354 30.0621 32.7351V28.085L19.1035 17.1265H17.2197V37.0382H21.8084C22.4504 36.1242 23.2385 35.3198 24.141 34.6626Z" />
</svg>
