<svg width="51" height="50" viewBox="0 0 51 50" fill="none" xmlns="http://www.w3.org/2000/svg">
<g clip-path="url(#clip0_325_854)">
<path d="M20.3203 43.6747H11.3037C8.3068 43.6712 5.43366 42.4697 3.31455 40.3338C1.19545 38.1978 0.00342726 35.3018 0 32.2811L0 22.7911H2.98828V32.2811C2.99092 34.5032 3.86785 36.6335 5.42671 38.2048C6.98558 39.7761 9.0991 40.66 11.3037 40.6626H20.3203V43.6747Z" />
<path d="M29.7832 50.0001H24.2599C22.8192 49.9985 21.4381 49.4209 20.4194 48.3941C19.4007 47.3674 18.8278 45.9752 18.8262 44.5231V39.8143C18.8278 38.3622 19.4007 36.9701 20.4194 35.9433C21.4381 34.9165 22.8192 34.339 24.2599 34.3374H29.7832V50.0001ZM24.2599 37.3495C23.6115 37.35 22.9898 37.6098 22.5313 38.072C22.0728 38.5341 21.815 39.1608 21.8145 39.8143V44.5231C21.815 45.1767 22.0728 45.8033 22.5313 46.2655C22.9898 46.7276 23.6115 46.9875 24.2599 46.988H26.7949V37.3495H24.2599Z" />
<path d="M32.7715 37.6506H28.2891V40.6627H32.7715V37.6506Z" />
<path d="M32.7715 43.6747H28.2891V46.6867H32.7715V43.6747Z" />
<path d="M9.96051 32.8313C8.14326 32.8309 6.36076 32.3293 4.806 31.3811C3.25124 30.4328 1.98348 29.0738 1.13998 27.4514C0.296488 25.829 -0.0905999 24.0049 0.0206337 22.1766C0.131867 20.3483 0.737183 18.5856 1.77104 17.0792C2.8049 15.5728 4.2279 14.3802 5.88596 13.6305C7.54403 12.8808 9.37397 12.6025 11.1777 12.8259C12.9813 13.0493 14.69 13.7658 16.1187 14.8978C17.5474 16.0298 18.6416 17.5341 19.283 19.248L16.4869 20.3102C15.9128 18.7759 14.8245 17.4922 13.4104 16.6814C11.9962 15.8706 10.3453 15.5837 8.74349 15.8705C7.14165 16.1572 5.68972 16.9996 4.63909 18.2516C3.58845 19.5037 3.00525 21.0866 2.99045 22.7264C2.97566 24.3662 3.53021 25.9595 4.55809 27.2306C5.58596 28.5017 7.02246 29.3705 8.61886 29.6866C10.2153 30.0027 11.8711 29.7462 13.2996 28.9614C14.7281 28.1767 15.8394 26.9131 16.4411 25.3895L19.2182 26.506C18.4804 28.3732 17.2037 29.9742 15.5532 31.1019C13.9027 32.2296 11.9545 32.832 9.96051 32.8313Z" />
<path d="M41.0391 32.8313C39.069 32.8313 37.1431 32.2425 35.5051 31.1392C33.867 30.036 32.5903 28.4679 31.8364 26.6333C31.0824 24.7987 30.8852 22.78 31.2695 20.8324C31.6539 18.8848 32.6026 17.0958 33.9956 15.6917C35.3887 14.2875 37.1636 13.3313 39.0958 12.9439C41.028 12.5565 43.0308 12.7553 44.851 13.5152C46.6711 14.2752 48.2268 15.562 49.3213 17.2131C50.4158 18.8642 51 20.8054 51 22.7911C50.9971 25.4531 49.9467 28.0051 48.0793 29.8874C46.2119 31.7696 43.68 32.8284 41.0391 32.8313ZM41.0391 15.763C39.66 15.763 38.3119 16.1752 37.1653 16.9475C36.0186 17.7197 35.1249 18.8174 34.5972 20.1016C34.0694 21.3858 33.9313 22.7989 34.2004 24.1623C34.4694 25.5256 35.1335 26.7779 36.1087 27.7608C37.0838 28.7437 38.3262 29.413 39.6788 29.6842C41.0313 29.9554 42.4333 29.8162 43.7074 29.2843C44.9815 28.7523 46.0705 27.8515 46.8366 26.6958C47.6028 25.54 48.0117 24.1812 48.0117 22.7911C48.0096 20.9278 47.2743 19.1414 45.9671 17.8239C44.66 16.5063 42.8877 15.7652 41.0391 15.763Z" />
<path d="M32.4124 7.88156L23.4473 18.9259L25.76 20.8333L34.7252 9.78893L32.4124 7.88156Z" />
<path d="M15.8111 16.3745L13.2949 14.75L18.0084 7.32935H33.5684V10.3414H19.644L15.8111 16.3745Z" />
<path d="M39.6973 23.4538L29.584 2.65863V0H36.5566C37.7847 0.00132883 38.962 0.493632 39.8304 1.36889C40.6987 2.24415 41.1872 3.43087 41.1885 4.66867H38.2002C38.1997 4.22947 38.0263 3.80841 37.7182 3.49785C37.4101 3.18729 36.9924 3.01258 36.5566 3.01205H33.0843L42.3808 22.1285L39.6973 23.4538Z" />
<path d="M17.3604 2.71516L14.7139 4.11389L23.2796 20.58L25.9262 19.1812L17.3604 2.71516Z" />
<path d="M21.7148 1.3363H10.957V4.34835H21.7148V1.3363Z" />
<path d="M23.707 27.3092H13.8457C12.6569 27.3092 11.5168 26.8332 10.6762 25.9859C9.83553 25.1386 9.36328 23.9894 9.36328 22.7911C9.36328 21.5929 9.83553 20.4437 10.6762 19.5964C11.5168 18.7491 12.6569 18.2731 13.8457 18.2731H23.707C24.8958 18.2731 26.036 18.7491 26.8766 19.5964C27.7172 20.4437 28.1895 21.5929 28.1895 22.7911C28.1895 23.9894 27.7172 25.1386 26.8766 25.9859C26.036 26.8332 24.8958 27.3092 23.707 27.3092ZM13.8457 21.2851C13.4494 21.2851 13.0694 21.4438 12.7892 21.7262C12.509 22.0087 12.3516 22.3917 12.3516 22.7911C12.3516 23.1906 12.509 23.5736 12.7892 23.8561C13.0694 24.1385 13.4494 24.2972 13.8457 24.2972H23.707C24.1033 24.2972 24.4833 24.1385 24.7635 23.8561C25.0438 23.5736 25.2012 23.1906 25.2012 22.7911C25.2012 22.3917 25.0438 22.0087 24.7635 21.7262C24.4833 21.4438 24.1033 21.2851 23.707 21.2851H13.8457Z" />
</g>
<defs>
<clipPath id="clip0_325_854">
<rect width="51" height="50" fill="white"/>
</clipPath>
</defs>
</svg>
