<svg width="50" height="50" viewBox="0 0 50 50" fill="none" xmlns="http://www.w3.org/2000/svg">
<g clip-path="url(#clip0_325_871)">
<path d="M50.0002 11.0352C49.8049 11.8516 49.6799 12.6927 49.4013 13.4792C48.6763 15.535 47.3027 17.2994 45.4874 18.5064C43.6721 19.7134 41.5137 20.2975 39.3375 20.1706C37.0624 20.0389 34.8986 19.1425 33.1969 17.6268C31.4952 16.1111 30.3554 14.065 29.9625 11.8203C29.7303 10.4796 29.7716 9.10579 30.0838 7.78144C30.3961 6.45709 30.9728 5.20952 31.7794 4.11371C32.586 3.0179 33.6058 2.09645 34.7776 1.40474C35.9493 0.71303 37.2487 0.26533 38.5979 0.0885417C38.6903 0.0675869 38.7806 0.0379411 38.8674 0H40.9182C41.0057 0.0370706 41.0963 0.0662658 41.189 0.0872393C43.1572 0.337365 45.0075 1.16358 46.5076 2.46207C48.0076 3.76056 49.0904 5.47341 49.62 7.38542C49.7737 7.94401 49.8804 8.51693 50.0002 9.07812V11.0352ZM39.107 11.5456C38.9065 11.9505 38.7411 12.2604 38.5966 12.5794C38.4279 12.9277 38.4024 13.3282 38.5256 13.695C38.6488 14.0618 38.9108 14.3658 39.2554 14.5417C39.427 14.6272 39.6137 14.6779 39.805 14.6909C39.9962 14.7039 40.1881 14.6789 40.3696 14.6174C40.5512 14.5559 40.7188 14.4591 40.8627 14.3326C41.0067 14.2061 41.1242 14.0523 41.2086 13.8802C41.7424 12.8581 42.2619 11.8281 42.758 10.7865C43.2684 9.71875 42.607 8.67318 41.4195 8.6276C41.2125 8.61979 41.0041 8.6276 40.7268 8.6276C40.9247 8.20964 41.1096 7.86979 41.2476 7.51172C41.3896 7.16994 41.396 6.78692 41.2656 6.44056C41.1353 6.0942 40.8779 5.81049 40.5458 5.64714C40.2163 5.47494 39.8323 5.43918 39.4766 5.54758C39.121 5.65597 38.8222 5.89984 38.6447 6.22656C38.064 7.3151 37.5041 8.41797 36.995 9.54167C36.5731 10.4753 37.2229 11.4674 38.2476 11.5417C38.5054 11.5612 38.7593 11.5456 39.107 11.5456Z" />
<path d="M0 41.4062C0.0989583 40.9817 0.182292 40.5521 0.299479 40.1315C1.17057 37.0247 4.0013 34.733 7.20052 34.5586C7.45453 34.5474 7.70661 34.6074 7.92839 34.7317C9.15495 35.4427 10.4544 35.9258 11.8711 36.0455C12.2923 36.0801 12.6869 36.2649 12.9831 36.5664C14.2135 37.7291 15.1367 39.3789 15.3008 40.8073H14.7799C12.4544 40.8073 10.1289 40.7994 7.80339 40.8073C6.6849 40.8073 5.98047 41.8359 6.39714 42.8151C6.68229 43.4765 7.22787 43.7343 7.92448 43.733C10.2014 43.733 12.4783 43.733 14.7552 43.733H15.3333C15.0238 45.3122 14.2309 46.756 13.0644 47.8646C11.898 48.9731 10.4157 49.6916 8.82292 49.9205C8.74393 49.9388 8.66711 49.9655 8.59375 50H6.83594C6.75199 49.962 6.66484 49.9315 6.57552 49.9088C5.07075 49.6755 3.66773 49.0051 2.54081 47.9809C1.41389 46.9568 0.61276 45.6241 0.236979 44.1484C0.153646 43.8216 0.0820312 43.4974 0.00520833 43.164L0 41.4062Z" />
<path d="M39.844 50C39.4351 49.9049 39.0236 49.8216 38.6187 49.7109C37.0808 49.2854 35.713 48.393 34.704 47.1568C33.6951 45.9207 33.0947 44.4018 32.9859 42.8099C32.9704 42.6023 33.0071 42.3942 33.0926 42.2044C34.0262 40.3099 34.9742 38.4284 35.9195 36.5351C35.9481 36.4792 35.9859 36.4297 36.0497 36.3229C36.1525 36.5052 36.2411 36.6458 36.3101 36.7943C37.3205 38.7951 38.3249 40.7982 39.3231 42.8034C39.6551 43.4635 40.2281 43.7943 40.8479 43.7148C41.913 43.5703 42.4442 42.5182 41.9403 41.5013C40.9325 39.4635 39.9078 37.4336 38.8895 35.3997C38.8036 35.2279 38.7255 35.0521 38.62 34.8281C39.6517 34.505 40.745 34.4292 41.8114 34.6068C45.5614 35.181 48.3531 38.3437 48.426 42.0599C48.4692 43.8987 47.8585 45.6932 46.7025 47.1238C45.5465 48.5545 43.9203 49.5285 42.1135 49.8724C41.9091 49.9127 41.7033 49.9583 41.4989 50.0026L39.844 50Z" />
<path d="M30.208 24.5378C29.8096 23.7748 29.5101 23.0847 29.1104 22.4545C28.2119 21.0443 26.8968 20.2956 25.2237 20.1966C24.9482 20.1914 24.6753 20.1426 24.4151 20.0521C24.1126 19.924 23.8627 19.6968 23.7066 19.4079C23.5504 19.119 23.4972 18.7855 23.5557 18.4623C23.623 18.1232 23.8076 17.8186 24.0772 17.6021C24.3468 17.3857 24.684 17.2711 25.0296 17.2787C27.8057 17.3125 29.9776 18.5 31.5205 20.7943C31.9112 21.3841 32.2119 22.0443 32.5336 22.6823C33.5648 24.7279 34.5791 26.7813 35.6182 28.8229C35.7687 29.0926 35.8477 29.3963 35.8477 29.7051C35.8477 30.0139 35.7687 30.3176 35.6182 30.5873C34.5218 32.7461 33.4389 34.9115 32.3695 37.0834C32.2263 37.3737 32.0648 37.474 31.7393 37.474C29.9329 37.4584 28.1269 37.4584 26.3213 37.474C26.0218 37.474 25.8513 37.3933 25.7211 37.1133C25.4151 36.4492 25.0622 35.8112 24.7484 35.1459C24.4554 34.5287 23.9893 34.2201 23.3044 34.1602C19.708 33.8464 16.1143 33.5091 12.5192 33.1888C9.0622 32.8776 6.57913 30.4037 6.29137 26.9818C6.1898 25.7591 6.78746 25.1016 8.01012 25.1016C12.3539 25.1016 16.6976 25.1016 21.0414 25.0912C21.3614 25.0831 21.6762 25.0086 21.9658 24.8724C22.7198 24.5274 23.4346 24.0912 24.1989 23.7839C24.5974 23.6195 25.0323 23.5638 25.4593 23.6224C27.0101 23.8815 28.5492 24.2188 30.208 24.5378Z" />
<path d="M30.7107 40.3972C30.2315 41.3425 29.8174 42.2032 29.3617 43.0417C29.2484 43.2522 29.0788 43.4272 28.8719 43.547C28.665 43.6667 28.4288 43.7267 28.1898 43.7201C24.9541 43.7305 21.7198 43.7201 18.4841 43.7201C18.4494 43.712 18.4163 43.6979 18.3864 43.6784C18.3864 43.3802 18.3721 43.0769 18.3864 42.7748C18.479 41.0485 18.144 39.3261 17.4112 37.7605C17.3279 37.6063 17.2866 37.433 17.2914 37.2578C17.3617 36.6615 17.4633 36.5782 18.0648 36.6302C19.4086 36.7448 20.7523 36.8672 22.0922 37.0131C22.1866 37.0321 22.2761 37.0705 22.355 37.1259C22.4339 37.1812 22.5005 37.2523 22.5505 37.3347C22.9168 38.0039 23.2601 38.6849 23.5805 39.3776C23.9151 40.1003 24.4646 40.4115 25.2471 40.405C26.8565 40.392 28.4659 40.405 30.0752 40.405L30.7107 40.3972Z" />
</g>
<defs>
<clipPath id="clip0_325_871">
<rect width="50" height="50" fill="white"/>
</clipPath>
</defs>
</svg>
