<svg width="60" height="50" viewBox="0 0 60 50" fill="none" xmlns="http://www.w3.org/2000/svg">
<g clip-path="url(#clip0_325_834)">
<path d="M58.4994 3.08038C58.5298 4.82382 57.0531 6.25062 55.304 6.25062H48.6761L53.4811 30.6072C53.5954 31.1865 53.1792 31.7938 52.4689 31.796C47.0381 31.8126 42.6248 36.2224 42.6248 41.6402C42.6248 44.8699 39.9894 47.497 36.7498 47.497H23.4997C20.6009 47.497 18.1859 45.3935 17.7109 42.6371H10.2412C9.80659 42.6371 9.42396 42.3566 9.28971 41.9445C9.05321 41.2182 8.38008 40.6446 7.43583 40.6446C6.53695 40.6446 5.66132 41.4345 5.62582 42.4465C5.57332 43.9343 6.67207 44.6309 7.49958 44.6309H13.1962C13.9542 44.6309 14.4411 45.4414 14.076 46.1036C12.8001 48.4175 10.3303 49.9892 7.4997 49.9892C3.24593 49.9892 -0.192845 46.439 0.00840582 42.1549C0.188407 38.3156 3.32218 35.2066 7.1747 35.0433C10.8035 34.8888 13.901 37.3225 14.7622 40.6434H17.5748C17.0735 35.5566 12.7657 31.5662 7.53795 31.5469C7.0062 31.5449 6.5402 31.1517 6.50232 30.623C6.46057 30.0392 6.92295 29.5529 7.4997 29.5529C13.8497 29.5529 19.0735 34.4427 19.5835 40.6434H40.6662C41.1424 34.9773 45.6399 30.4327 51.2962 29.862L45.6437 1.20884C45.5673 0.821552 45.7269 0.414447 46.0757 0.183168C46.4241 -0.0478612 45.9252 0.0200517 55.375 0.0200517C57.0803 0.0200517 58.4699 1.38729 58.4994 3.08038ZM59.9999 42.5125C59.9999 46.6347 56.6349 49.9892 52.4999 49.9892C48.3648 49.9892 44.9998 46.6347 44.9998 42.5125C44.9998 38.3904 48.3648 35.0358 52.4999 35.0358C56.6349 35.0358 59.9999 38.3904 59.9999 42.5125ZM54.3749 42.5125C54.3749 41.482 53.5336 40.6434 52.4999 40.6434C51.4661 40.6434 50.6248 41.482 50.6248 42.5125C50.6248 43.5431 51.4661 44.3817 52.4999 44.3817C53.5336 44.3817 54.3749 43.5431 54.3749 42.5125ZM10.3578 25.2463L12.5007 20.7602C12.8164 20.0996 12.3324 19.3348 11.5979 19.3348H9.11009L10.5721 16.2742C10.8095 15.7772 10.5978 15.1823 10.0991 14.9456C9.60071 14.7089 9.00384 14.92 8.76621 15.417L6.62332 19.903C6.30769 20.5637 6.7917 21.3285 7.5262 21.3285H10.0138L8.55183 24.389C8.23358 25.0555 8.72746 25.8147 9.45409 25.8147C9.82797 25.8149 10.1865 25.605 10.3578 25.2463ZM48.7693 27.3858L46.8858 17.8355C46.7228 17.0088 45.6577 16.7388 45.1333 17.3993C43.9281 18.9176 43.4224 20.9513 43.9086 22.9348L45.2578 28.4352C45.4082 29.0484 46.0834 29.3619 46.6574 29.0955C47.1334 28.8746 47.6189 28.6822 48.1092 28.5187C48.5838 28.3604 48.8658 27.8754 48.7693 27.3858Z" />
</g>
<defs>
<clipPath id="clip0_325_834">
<rect width="60" height="50" fill="white"/>
</clipPath>
</defs>
</svg>
