<svg width="70" height="50" viewBox="0 0 70 50" fill="none" xmlns="http://www.w3.org/2000/svg">
<path fill-rule="evenodd" clip-rule="evenodd" d="M27.3119 18.8235C30.598 27.8671 46.0361 29.4777 49.4406 21.1102C55.4771 21.1102 68.5076 18.8151 68.5076 27.522C54.5551 27.522 53.0325 24.3993 45.1788 36.6276H25.5088C17.7578 26.9726 18.5001 25.2685 6.00294 25.6837C2.93306 26.1936 6.06172 22.7617 6.95987 21.8818C11.702 17.2356 21.1394 18.8235 27.3119 18.8235ZM55.886 23.4412C55.5485 23.4412 55.2746 23.7141 55.2746 24.0504C55.2746 24.3869 55.5485 24.6596 55.886 24.6596H62.1149C62.4526 24.6596 62.7263 24.3869 62.7263 24.0504C62.7263 23.7141 62.4526 23.4412 62.1149 23.4412H55.886ZM35.9553 28.1161C35.9553 27.7797 35.6816 27.5068 35.3439 27.5068C35.0062 27.5068 34.7325 27.7797 34.7325 28.1161V34.3231C34.7325 34.6596 35.0062 34.9324 35.3439 34.9324C35.6816 34.9324 35.9553 34.6596 35.9553 34.3231V28.1161ZM28.4151 28.1161C28.4151 27.7797 28.1414 27.5068 27.8038 27.5068C27.4661 27.5068 27.1924 27.7797 27.1924 28.1161V34.3231C27.1924 34.6596 27.4661 34.9324 27.8038 34.9324C28.1414 34.9324 28.4151 34.6596 28.4151 34.3231V28.1161ZM43.4952 28.1161C43.4952 27.7797 43.2215 27.5068 42.8839 27.5068C42.5462 27.5068 42.2725 27.7797 42.2725 28.1161V34.3231C42.2725 34.6596 42.5462 34.9324 42.8839 34.9324C43.2215 34.9324 43.4952 34.6596 43.4952 34.3231V28.1161ZM12.2845 21.8078C11.9468 21.8078 11.6731 22.0805 11.6731 22.417C11.6731 22.7535 11.9468 23.0262 12.2845 23.0262H18.5132C18.8509 23.0262 19.1246 22.7535 19.1246 22.417C19.1246 22.0805 18.8509 21.8078 18.5132 21.8078H12.2845Z" />
<path fill-rule="evenodd" clip-rule="evenodd" d="M10.3066 18.5607C11.5739 15.8751 14.2301 12.1201 18.2924 9.99961L24.2576 9.93573C24.2576 9.93573 27.6405 11.1529 27.3125 17.605C13.091 16.7129 10.3066 18.5607 10.3066 18.5607Z" />
<path fill-rule="evenodd" clip-rule="evenodd" d="M11.1746 29.418C16.3553 29.418 20.5553 33.6032 20.5553 38.7658C20.5553 43.9284 16.3553 48.1136 11.1746 48.1136C5.9937 48.1136 1.79395 43.9284 1.79395 38.7658C1.79395 33.6032 5.9937 29.418 11.1746 29.418ZM11.1746 33.1993C12.7171 33.1993 14.1135 33.8226 15.1244 34.8299C16.1352 35.8372 16.7605 37.2288 16.7605 38.7658C16.7605 40.3029 16.1352 41.6945 15.1244 42.7018C14.1135 43.7091 12.7171 44.3323 11.1746 44.3323C9.63215 44.3323 8.23552 43.7093 7.22466 42.7018C6.2138 41.6945 5.58855 40.3029 5.58855 38.7658C5.58855 37.2288 6.2138 35.8372 7.22466 34.8299C8.23552 33.8226 9.63215 33.1993 11.1746 33.1993ZM14.2598 35.6914C13.4704 34.9045 12.3794 34.4179 11.1746 34.4179C9.96964 34.4179 8.87869 34.9045 8.08922 35.6912C7.29975 36.4781 6.81127 37.5651 6.81127 38.7658C6.81127 39.9666 7.29975 41.0537 8.08922 41.8404C8.87869 42.6271 9.96964 43.1139 11.1746 43.1139C12.3794 43.1139 13.4704 42.6271 14.2598 41.8404C15.0495 41.0537 15.5378 39.9666 15.5378 38.7658C15.5378 37.5651 15.0493 36.4781 14.2598 35.6914Z" />
<path d="M22.6783 33.2C23.1154 32.9477 23.2646 32.3899 23.0114 31.9542C22.7582 31.5186 22.1984 31.3699 21.7612 31.6222L18.8412 33.3022C18.4041 33.5546 18.2549 34.1123 18.5081 34.5479C18.7613 34.9837 19.3211 35.1324 19.7583 34.8799L22.6783 33.2Z" />
<path d="M12.0919 25.6771C12.0919 25.1723 11.6813 24.7632 11.1749 24.7632C10.6683 24.7632 10.2578 25.1723 10.2578 25.6771V29.4225C10.2578 29.9273 10.6683 30.3363 11.1749 30.3363C11.6813 30.3363 12.0919 29.9273 12.0919 29.4225V25.6771Z" />
<path d="M14.4989 28.755C14.5858 28.4305 14.3923 28.0969 14.0666 28.0103C13.7409 27.9236 13.4062 28.1164 13.3191 28.4409L13.013 29.5796C12.9261 29.9041 13.1195 30.2377 13.4452 30.3244C13.7711 30.4112 14.1057 30.2182 14.1927 29.8937L14.4989 28.755Z" />
<path d="M16.9838 29.952C17.1512 29.6615 17.0508 29.2908 16.7593 29.1237C16.4678 28.9569 16.0958 29.0571 15.9283 29.3476L15.3368 30.3682C15.1694 30.6587 15.27 31.0296 15.5615 31.1965C15.8528 31.3633 16.225 31.2631 16.3924 30.9728L16.9838 29.952Z" />
<path d="M19.0762 31.7532C19.3148 31.5154 19.3148 31.1296 19.0762 30.8918C18.8375 30.654 18.4504 30.654 18.2116 30.8918L17.3753 31.7253C17.1366 31.9632 17.1366 32.3489 17.3753 32.5867C17.614 32.8245 18.001 32.8245 18.2398 32.5867L19.0762 31.7532Z" />
<path d="M21.536 36.6292C21.8617 36.5425 22.0551 36.2091 21.9681 35.8843C21.8812 35.5598 21.5464 35.367 21.2207 35.4536L20.0781 35.7587C19.7524 35.8454 19.5588 36.179 19.6458 36.5035C19.7329 36.8281 20.0676 37.021 20.3933 36.9343L21.536 36.6292Z" />
<path d="M21.7387 39.3751C22.0762 39.3751 22.3501 39.1023 22.3501 38.7658C22.3501 38.4295 22.0762 38.1566 21.7387 38.1566H20.5559C20.2182 38.1566 19.9443 38.4295 19.9443 38.7658C19.9443 39.1023 20.2182 39.3751 20.5559 39.3751H21.7387Z" />
<path d="M21.2207 42.0781C21.5464 42.1648 21.881 41.972 21.9681 41.6475C22.0551 41.3227 21.8617 40.9893 21.5358 40.9026L20.3933 40.5975C20.0675 40.5108 19.7329 40.7035 19.6458 41.0283C19.5588 41.3528 19.7524 41.6864 20.0781 41.773L21.2207 42.0781Z" />
<path d="M20.0194 44.555C20.3108 44.7219 20.6829 44.6218 20.8503 44.3314C21.0179 44.0409 20.9173 43.6702 20.6259 43.5033L19.6014 42.9139C19.3101 42.747 18.9379 42.8471 18.7705 43.1375C18.603 43.428 18.7035 43.7987 18.9949 43.9656L20.0194 44.555Z" />
<path d="M18.2116 46.6399C18.4503 46.8778 18.8375 46.8778 19.0762 46.6399C19.3148 46.4021 19.3148 46.0162 19.0762 45.7784L18.2397 44.945C18.001 44.707 17.614 44.707 17.3753 44.945C17.1366 45.1829 17.1366 45.5686 17.3753 45.8064L18.2116 46.6399Z" />
<path d="M15.9284 48.1843C16.0958 48.4747 16.4679 48.5748 16.7594 48.4079C17.0508 48.2411 17.1513 47.8703 16.9838 47.5799L16.3925 46.559C16.2249 46.2686 15.8528 46.1685 15.5613 46.3354C15.2699 46.5022 15.1694 46.873 15.3369 47.1634L15.9284 48.1843Z" />
<path d="M13.3192 49.0907C13.4062 49.4153 13.7408 49.6082 14.0667 49.5215C14.3924 49.4347 14.5858 49.1012 14.4988 48.7766L14.1926 47.638C14.1058 47.3134 13.771 47.1206 13.4453 47.2074C13.1194 47.2939 12.926 47.6275 13.013 47.9521L13.3192 49.0907Z" />
<path d="M10.5635 49.2923C10.5635 49.6288 10.8373 49.9015 11.1748 49.9015C11.5125 49.9015 11.7862 49.6288 11.7862 49.2923V48.1136C11.7862 47.7771 11.5125 47.5044 11.1748 47.5044C10.8373 47.5044 10.5635 47.7771 10.5635 48.1136V49.2923Z" />
<path d="M7.85086 48.7766C7.76398 49.1012 7.95743 49.4347 8.28314 49.5215C8.609 49.6082 8.94359 49.4153 9.03063 49.0907L9.33679 47.9521C9.42383 47.6275 9.23021 47.2939 8.90451 47.2074C8.57881 47.1206 8.24406 47.3134 8.15702 47.638L7.85086 48.7766Z" />
<path d="M5.3652 47.5799C5.19775 47.8703 5.29819 48.2411 5.58966 48.4079C5.88113 48.5748 6.25318 48.4747 6.42063 48.1843L7.01213 47.1634C7.17959 46.873 7.07898 46.5022 6.78767 46.3354C6.4962 46.1685 6.124 46.2686 5.95654 46.559L5.3652 47.5799Z" />
<path d="M3.27275 45.7784C3.03408 46.0163 3.03408 46.402 3.27275 46.64C3.51142 46.8778 3.89848 46.8778 4.13715 46.64L4.97361 45.8064C5.21228 45.5686 5.21228 45.1827 4.97361 44.9449C4.73494 44.7071 4.34788 44.7071 4.10921 44.9449L3.27275 45.7784Z" />
<path d="M4.13731 30.8917C3.89864 30.6539 3.51142 30.6539 3.27275 30.8917C3.03408 31.1297 3.03408 31.5154 3.27275 31.7532L4.10921 32.5868C4.34788 32.8246 4.73511 32.8246 4.97377 32.5868C5.21244 32.3489 5.21244 31.9631 4.97377 31.7252L4.13731 30.8917Z" />
<path d="M6.42076 29.3474C6.2533 29.0569 5.8811 28.9568 5.58962 29.1237C5.29832 29.2906 5.19771 29.6615 5.36517 29.9518L5.95667 30.9726C6.12412 31.2631 6.49617 31.3633 6.78764 31.1963C7.07911 31.0294 7.17955 30.6587 7.0121 30.3682L6.42076 29.3474Z" />
<path d="M9.03068 28.441C8.94365 28.1164 8.6089 27.9236 8.28319 28.0102C7.95749 28.0969 7.76388 28.4305 7.85091 28.7551L8.15708 29.8937C8.24412 30.2183 8.5787 30.411 8.90457 30.3243C9.23027 30.2377 9.42372 29.9042 9.33669 29.5796L9.03068 28.441Z" />
<path fill-rule="evenodd" clip-rule="evenodd" d="M58.9187 29.6041C64.0482 29.6041 68.2065 33.7478 68.2065 38.8593C68.2065 43.9709 64.0482 48.1148 58.9187 48.1148C53.7891 48.1148 49.6309 43.9709 49.6309 38.8593C49.6309 33.7478 53.7891 29.6041 58.9187 29.6041ZM58.9187 32.8957C60.5712 32.8957 62.0674 33.5632 63.1504 34.6424C64.2334 35.7217 64.9034 37.2125 64.9034 38.8593C64.9034 40.5061 64.2334 41.9972 63.1504 43.0762C62.0674 44.1555 60.5712 44.8231 58.9187 44.8231C57.2661 44.8231 55.77 44.1555 54.6869 43.0762C53.6039 41.9972 52.9339 40.5061 52.9339 38.8593C52.9339 37.2127 53.6039 35.7217 54.6869 34.6424C55.77 33.5632 57.2661 32.8957 58.9187 32.8957ZM62.286 35.504C61.4242 34.6453 60.2336 34.1142 58.9187 34.1142C57.6036 34.1142 56.4132 34.6453 55.5513 35.504C54.6897 36.3626 54.1566 37.549 54.1566 38.8593C54.1566 40.1698 54.6897 41.3562 55.5513 42.2149C56.4132 43.0735 57.6036 43.6047 58.9187 43.6047C60.2336 43.6047 61.4242 43.0735 62.286 42.2149C63.1476 41.3562 63.6805 40.1698 63.6805 38.8593C63.6805 37.549 63.1476 36.3626 62.286 35.504Z" />
<path d="M53.5104 27.708C53.2572 27.2724 52.6974 27.1237 52.2603 27.3761C51.823 27.6284 51.6738 28.1863 51.9271 28.6218L53.4827 31.2995C53.7359 31.7352 54.2956 31.8839 54.7328 31.6316C55.17 31.3791 55.3192 30.8214 55.066 30.3858L53.5104 27.708Z" />
<path d="M62.8945 27.555C63.0231 27.0681 62.7311 26.5694 62.2425 26.4413C61.7538 26.3132 61.2534 26.604 61.1249 27.0909L60.4386 29.6852C60.3099 30.1721 60.6018 30.6708 61.0905 30.7988C61.5791 30.9269 62.0795 30.6362 62.2081 30.1492L62.8945 27.555Z" />
<path d="M59.5303 28.4263C59.5303 28.0899 59.2566 27.817 58.919 27.817C58.5813 27.817 58.3076 28.0899 58.3076 28.4263V29.605C58.3076 29.9413 58.5813 30.2142 58.919 30.2142C59.2566 30.2142 59.5303 29.9413 59.5303 29.605V28.4263Z" />
<path d="M64.682 30.1262C64.8495 29.8358 64.7489 29.465 64.4574 29.2981C64.1661 29.1313 63.7939 29.2314 63.6265 29.5218L63.0351 30.5427C62.8677 30.8329 62.9681 31.2038 63.2596 31.3707C63.5511 31.5376 63.9231 31.4375 64.0906 31.147L64.682 30.1262Z" />
<path d="M66.7549 31.9128C66.9935 31.675 66.9935 31.2891 66.7549 31.0513C66.5162 30.8135 66.1291 30.8135 65.8905 31.0513L65.054 31.8848C64.8153 32.1227 64.8153 32.5084 65.054 32.7462C65.2927 32.984 65.6797 32.984 65.9186 32.7462L66.7549 31.9128Z" />
<path d="M68.289 34.1687C68.5804 34.0018 68.6809 33.6311 68.5134 33.3406C68.346 33.0502 67.9739 32.9501 67.6824 33.1169L66.658 33.7062C66.3665 33.8732 66.2661 34.244 66.4336 34.5344C66.601 34.8249 66.9731 34.925 67.2645 34.7581L68.289 34.1687Z" />
<path d="M69.1891 36.7468C69.5148 36.6601 69.7084 36.3267 69.6214 36.002C69.5344 35.6774 69.1998 35.4846 68.8739 35.5714L67.7314 35.8763C67.4057 35.963 67.2121 36.2966 67.2992 36.6212C67.3862 36.9457 67.7208 37.1387 68.0466 37.0519L69.1891 36.7468Z" />
<path d="M69.3889 39.4686C69.7266 39.4686 70.0003 39.1958 70.0003 38.8593C70.0003 38.5229 69.7266 38.2501 69.3889 38.2501H68.2061C67.8686 38.2501 67.5947 38.5229 67.5947 38.8593C67.5947 39.1958 67.8686 39.4686 68.2061 39.4686H69.3889Z" />
<path d="M68.8739 42.1474C69.1998 42.2341 69.5344 42.0412 69.6214 41.7166C69.7084 41.3921 69.5148 41.0585 69.1891 40.9719L68.0466 40.6668C67.7208 40.5801 67.3862 40.7729 67.2992 41.0974C67.2121 41.4222 67.4057 41.7556 67.7314 41.8423L68.8739 42.1474Z" />
<path d="M67.6802 44.6019C67.9717 44.77 68.3449 44.6711 68.5136 44.3806C68.6824 44.0902 68.5831 43.7183 68.2916 43.5501L67.2672 42.9607C66.9757 42.7926 66.6025 42.8915 66.4338 43.182C66.265 43.4724 66.3643 43.8443 66.6558 44.0124L67.6802 44.6019Z" />
<path d="M65.8903 46.6675C66.129 46.9053 66.5162 46.9053 66.7549 46.6675C66.9935 46.4295 66.9935 46.0438 66.7549 45.806L65.9184 44.9724C65.6797 44.7346 65.2927 44.7346 65.054 44.9724C64.8153 45.2103 64.8153 45.5961 65.054 45.834L65.8903 46.6675Z" />
<path d="M63.6266 48.197C63.794 48.4873 64.1661 48.5875 64.4576 48.4206C64.749 48.2536 64.8495 47.8829 64.682 47.5924L64.0907 46.5717C63.9232 46.2813 63.551 46.181 63.2595 46.3479C62.9682 46.5149 62.8676 46.8857 63.0351 47.1761L63.6266 48.197Z" />
<path d="M61.0389 49.0939C61.126 49.4186 61.4605 49.6114 61.7864 49.5247C62.1121 49.438 62.3056 49.1045 62.2185 48.78L61.9125 47.6413C61.8255 47.3168 61.4907 47.1238 61.165 47.2106C60.8393 47.2973 60.6457 47.6307 60.7327 47.9555L61.0389 49.0939Z" />
<path d="M58.3076 49.2925C58.3076 49.629 58.5813 49.9017 58.919 49.9017C59.2566 49.9017 59.5303 49.629 59.5303 49.2925V48.1138C59.5303 47.7773 59.2566 47.5046 58.919 47.5046C58.5813 47.5046 58.3076 47.7773 58.3076 48.1138V49.2925Z" />
<path d="M55.6195 48.78C55.5324 49.1045 55.726 49.438 56.0517 49.5247C56.3775 49.6114 56.7122 49.4186 56.7992 49.0939L57.1054 47.9555C57.1923 47.6307 56.9988 47.2973 56.6731 47.2106C56.3474 47.1238 56.0127 47.3168 55.9256 47.6413L55.6195 48.78Z" />
<path d="M53.1562 47.5925C52.9887 47.8829 53.0893 48.2536 53.3806 48.4205C53.6721 48.5874 54.0442 48.4873 54.2118 48.1968L54.8031 47.176C54.9706 46.8857 54.8701 46.5148 54.5787 46.348C54.2872 46.1811 53.9151 46.2812 53.7477 46.5716L53.1562 47.5925Z" />
<path d="M51.0833 45.806C50.8446 46.0438 50.8446 46.4295 51.0833 46.6673C51.322 46.9052 51.709 46.9052 51.9477 46.6673L52.7842 45.834C53.0228 45.5961 53.0228 45.2103 52.7842 44.9724C52.5455 44.7346 52.1584 44.7346 51.9196 44.9724L51.0833 45.806Z" />
<path d="M49.5465 43.55C49.255 43.7183 49.1556 44.0902 49.3245 44.3804C49.4932 44.6709 49.8664 44.77 50.1579 44.6019L51.1821 44.0124C51.4736 43.8443 51.5731 43.4724 51.4042 43.182C51.2354 42.8915 50.8622 42.7924 50.5708 42.9605L49.5465 43.55Z" />
<path d="M48.6484 40.9718C48.3226 41.0585 48.1291 41.3921 48.2162 41.7166C48.3032 42.0412 48.6378 42.2341 48.9636 42.1474L50.1061 41.8423C50.4318 41.7556 50.6254 41.4222 50.5384 41.0974C50.4514 40.7729 50.1166 40.5801 49.7909 40.6668L48.6484 40.9718Z" />
<path d="M48.4493 38.2501C48.1116 38.2501 47.8379 38.5229 47.8379 38.8593C47.8379 39.1958 48.1116 39.4686 48.4493 39.4686H49.6321C49.9697 39.4686 50.2434 39.1958 50.2434 38.8593C50.2434 38.5229 49.9697 38.2501 49.6321 38.2501H48.4493Z" />
<path d="M48.9636 35.5712C48.6378 35.4845 48.3032 35.6774 48.2162 36.002C48.1291 36.3266 48.3226 36.6601 48.6484 36.7469L49.7909 37.052C50.1166 37.1387 50.4514 36.9458 50.5384 36.6212C50.6254 36.2966 50.4318 35.9631 50.1061 35.8763L48.9636 35.5712Z" />
<path d="M50.1578 33.117C49.8663 32.9487 49.4931 33.0478 49.3244 33.3382C49.1557 33.6287 49.255 34.0005 49.5464 34.1687L50.5709 34.7581C50.8623 34.9263 51.2355 34.8272 51.4043 34.5367C51.573 34.2463 51.4735 33.8744 51.1821 33.7062L50.1578 33.117Z" />
<path d="M51.9477 31.0513C51.709 30.8135 51.322 30.8135 51.0833 31.0513C50.8446 31.2891 50.8446 31.6748 51.0833 31.9127L51.9196 32.7462C52.1584 32.984 52.5455 32.984 52.7842 32.7462C53.0228 32.5084 53.0228 32.1225 52.7842 31.8847L51.9477 31.0513Z" />
<path d="M56.7992 28.6247C56.7121 28.3002 56.3776 28.1072 56.0517 28.194C55.726 28.2807 55.5325 28.6141 55.6194 28.9388L55.9256 30.0773C56.0126 30.402 56.3474 30.5948 56.6731 30.5081C56.9988 30.4213 57.1924 30.0879 57.1053 29.7634L56.7992 28.6247Z" />
<path d="M1.72345 43.5031C1.43198 43.67 1.33154 44.0408 1.49899 44.3312C1.66645 44.6217 2.0385 44.7219 2.32997 44.5549L3.35439 43.9656C3.64586 43.7987 3.7463 43.428 3.57885 43.1376C3.41139 42.8471 3.03934 42.7469 2.74787 42.9139L1.72345 43.5031Z" />
<path d="M0.813478 40.9025C0.487613 40.9892 0.29416 41.3228 0.381198 41.6473C0.468235 41.9719 0.80282 42.1648 1.12869 42.0781L2.27115 41.773C2.59686 41.6863 2.79047 41.3527 2.70343 41.0281C2.61639 40.7036 2.28165 40.5108 1.95594 40.5974L0.813478 40.9025Z" />
<path d="M0.611361 38.1566C0.273708 38.1566 0 38.4294 0 38.7658C0 39.1023 0.273708 39.3751 0.611361 39.3751H1.7942C2.13185 39.3751 2.40556 39.1023 2.40556 38.7658C2.40556 38.4294 2.13185 38.1566 1.7942 38.1566H0.611361Z" />
<path d="M1.12869 35.4536C0.80282 35.3668 0.468235 35.5598 0.381198 35.8843C0.29416 36.2089 0.487613 36.5425 0.813478 36.6292L1.95594 36.9341C2.28165 37.0209 2.61639 36.8281 2.70343 36.5035C2.79047 36.1788 2.59686 35.8454 2.27115 35.7587L1.12869 35.4536Z" />
<path d="M2.32997 32.9768C2.0385 32.8098 1.66645 32.91 1.49899 33.2005C1.33154 33.4908 1.43198 33.8617 1.72345 34.0285L2.74787 34.6178C3.03934 34.7848 3.41139 34.6846 3.57885 34.3941C3.7463 34.1037 3.64586 33.7329 3.35439 33.5661L2.32997 32.9768Z" />
<path d="M22.8753 -0.0380249H20.3142C19.3457 -0.0380249 18.5605 0.744367 18.5605 1.7095V3.18668C18.5605 4.15181 19.3457 4.93421 20.3142 4.93421H22.8753C23.8438 4.93421 24.6289 4.15181 24.6289 3.18668V1.7095C24.6289 0.744367 23.8438 -0.0380249 22.8753 -0.0380249Z" />
<path fill-rule="evenodd" clip-rule="evenodd" d="M20.0459 6.14911H22.7265V10.1961H20.0459V6.14911Z" />
<path fill-rule="evenodd" clip-rule="evenodd" d="M24.3398 1.06714H30.0066C30.7691 1.06714 31.3925 1.68843 31.3925 2.4481C31.3925 3.20777 30.7691 3.82922 30.0066 3.82922H24.3398V1.06714Z" />
<path fill-rule="evenodd" clip-rule="evenodd" d="M47.2 22.4781H36.7862C35.8661 22.4781 35.1133 23.2283 35.1133 24.1452C35.1133 24.2815 35.1299 24.4143 35.1614 24.5412C35.3725 24.616 35.5851 24.6857 35.7988 24.7503C39.2352 25.7862 43.7529 25.6374 46.5536 23.1381C46.7858 22.931 47.0014 22.7107 47.2 22.4781Z" />
</svg>
