<svg width="85" height="50" viewBox="0 0 85 50" fill="none" xmlns="http://www.w3.org/2000/svg">
<g clip-path="url(#clip0_325_804)">
<path d="M28.9305 32.9475C29.4836 32.5981 30.1126 32.3864 30.7643 32.3312V32.302C30.7611 31.7533 30.8247 31.2064 30.9551 30.6733C26.4197 23.868 17.509 21.5399 10.2271 25.2578C7.20794 26.8151 4.75097 29.2783 3.2002 32.302H3.91943C4.71787 32.2988 5.50137 32.5228 6.17841 32.9475C8.5471 28.9114 12.8762 26.4326 17.5545 26.4326C22.2334 26.4326 26.5618 28.9114 28.9305 32.9475Z" />
<path d="M8.64258 34.562L9.64029 35.2225L25.4687 35.2374L26.4807 34.562C24.6593 31.3507 21.2526 29.3667 17.5617 29.3667C13.8707 29.3667 10.4647 31.3507 8.64258 34.562Z" />
<path d="M24.7351 46.9783H10.3887C14.3705 50.8917 20.7527 50.8917 24.7351 46.9783Z" />
<path d="M60.2646 46.9783C64.2471 50.8917 70.6293 50.8917 74.6111 46.9783H60.2646Z" />
<path d="M-0.0410096 42.5752C-0.0410096 43.3857 0.615912 44.0429 1.42603 44.0429H83.575C84.3852 44.0429 85.0421 43.3857 85.0421 42.5752V38.1429C85.0382 36.5402 83.7399 35.2413 82.1372 35.2374H81.0811C80.7935 35.2387 80.5131 35.3258 80.2742 35.4868L77.4433 37.3656L76.974 37.6883C76.493 38.0001 75.9334 38.1676 75.3603 38.1728H59.5169C58.9444 38.1676 58.3842 38.0001 57.9038 37.6883L57.4338 37.3656L54.603 35.4868C54.3647 35.3258 54.0836 35.2387 53.7961 35.2374H31.205C30.9168 35.2368 30.6357 35.3238 30.3981 35.4868L27.0973 37.6734C26.6176 38.0001 26.0496 38.1741 25.4692 38.1728H9.6408C9.06567 38.1696 8.50417 37.9962 8.02706 37.6734L4.72687 35.4868C4.48929 35.3238 4.20756 35.2368 3.92 35.2374H2.86386C2.57499 35.2368 2.28808 35.2816 2.01285 35.3693C0.791178 35.7394 -0.0436061 36.8662 -0.0410096 38.1429V42.5752Z" />
<path d="M51.0671 30.9227C50.4816 29.1167 48.7984 27.8951 46.9009 27.8997H38.0987C35.6684 27.8997 33.6982 29.8707 33.6982 32.3021H51.3014C51.3073 31.8319 51.2274 31.3643 51.0671 30.9227Z" />
<path d="M78.8077 32.9476C79.4906 32.5255 80.278 32.3021 81.081 32.3021H82.1079C82.0203 27.0191 81.4627 24.3182 77.7075 20.5613C73.8049 16.6576 61.8349 10.4498 55.0871 7.04494C53.7629 6.38188 52.1524 6.80985 51.3313 8.04309L50.6406 9.07891C50.5043 8.98215 50.3524 8.91006 50.1914 8.8646L44.9328 7.54369L45.4138 4.65248C45.5176 4.12775 45.3274 3.58808 44.9178 3.24454C44.5082 2.90035 43.9448 2.80683 43.4456 2.99971C42.9471 3.19259 42.5926 3.64134 42.5212 4.17126L41.0542 12.9767C40.9218 13.7755 41.4605 14.5308 42.2583 14.6646C42.3382 14.6808 42.4193 14.6892 42.5005 14.6912C43.2171 14.6899 43.8279 14.171 43.9454 13.4644L44.4472 10.4524L49.4773 11.7117C49.5942 11.7409 49.7143 11.7558 49.835 11.7558C50.2732 11.75 50.6847 11.548 50.9574 11.2058L58.7099 17.5382L63.903 21.7945C64.3548 22.1705 64.5878 22.7492 64.5229 23.3336C64.458 23.9188 64.1042 24.4318 63.5804 24.7L57.1702 27.8997L53.7077 29.631C53.7629 29.7557 53.8122 29.883 53.8544 30.0129C54.116 30.7474 54.2452 31.5228 54.2361 32.3021V32.3313C54.8872 32.3911 55.5149 32.6021 56.0699 32.9476C58.4354 28.9115 62.7618 26.432 67.4388 26.432C72.1152 26.432 76.4416 28.9115 78.8077 32.9476Z" />
<path d="M57.668 24.3623L60.6163 22.8946L58.1665 20.8989L57.668 24.3623Z" />
<path d="M32.3927 27.6938C33.7819 25.9644 35.8812 24.9604 38.0986 24.9643H44.6561C42.4264 22.9095 38.2453 20.5612 30.7641 20.5612C19.131 20.5612 16.7253 9.27563 16.2267 2.77431C16.1034 1.21311 14.7993 0.0110359 13.2342 0.0149326C12.6916 0.0162315 12.1599 0.16365 11.6938 0.440951V-7.32284C11.6938 -8.13332 11.0369 -8.79053 10.2268 -8.79053C9.41669 -8.79053 8.75977 -8.13332 8.75977 -7.32284V22.7186C8.80391 22.6894 8.84805 22.6744 8.89219 22.6452C9.3323 22.4251 9.77176 22.2198 10.2268 22.0438C10.7026 21.8282 11.1927 21.647 11.6938 21.5009C13.5861 20.8729 15.5679 20.5554 17.5614 20.5612C23.3321 20.5586 28.7907 23.1836 32.3927 27.6938Z" />
<path d="M58.5195 34.562L59.0622 34.9147L59.5607 35.2667L75.36 35.2374L75.7852 34.9439L76.3577 34.562C74.5356 31.3507 71.1296 29.3667 67.4386 29.3667C63.7476 29.3667 60.341 31.3507 58.5195 34.562Z" />
</g>
<defs>
<clipPath id="clip0_325_804">
<rect width="85" height="50" fill="white"/>
</clipPath>
</defs>
</svg>
