<svg width="76" height="50" viewBox="0 0 76 50" fill="none" xmlns="http://www.w3.org/2000/svg">
<g clip-path="url(#clip0_325_773)">
<path d="M12.7656 50.0003C15.1522 49.9984 17.4928 49.3419 19.5337 48.1016C21.5747 46.8614 23.2381 45.0849 24.3437 42.9646L24.3022 42.8753H16.6784C15.604 43.5827 14.3586 43.9856 13.0744 44.0412C11.7901 44.0968 10.5147 43.8031 9.38342 43.1911C8.25214 42.5791 7.30707 41.6717 6.64838 40.5651C5.9897 39.4584 5.64192 38.1937 5.64192 36.905C5.64192 35.6163 5.9897 34.3516 6.64838 33.245C7.30707 32.1383 8.25214 31.2309 9.38342 30.6189C10.5147 30.007 11.7901 29.7132 13.0744 29.7688C14.3586 29.8244 15.604 30.2273 16.6784 30.9348H21.7372L23.3641 29.2681C22.0582 27.447 20.3075 25.9928 18.2799 25.045C16.2523 24.0971 14.0158 23.6874 11.7848 23.8551C9.55386 24.0229 7.40331 24.7624 5.53939 26.0028C3.67547 27.2432 2.1607 28.9429 1.14035 30.9388C0.11999 32.9348 -0.371726 35.1601 -0.287649 37.4014C-0.203572 39.6426 0.453479 41.8246 1.62049 43.7381C2.78751 45.6516 4.42534 47.2324 6.37693 48.329C8.32852 49.4255 10.5284 50.001 12.7656 50.0003Z" />
<path d="M63.8285 26.19C62.1293 26.1914 60.4504 26.5612 58.9071 27.2739L63.8131 32.7391L63.8285 32.7384C64.9128 32.7364 65.9721 33.0645 66.8663 33.6793C67.7605 34.2941 68.4474 35.1667 68.8361 36.1814C69.2248 37.1962 69.2969 38.3054 69.043 39.3622C68.7891 40.4189 68.2211 41.3735 67.4141 42.0996C66.6072 42.8256 65.5993 43.2889 64.524 43.4281C63.4486 43.5673 62.3564 43.3759 61.3919 42.8792C60.4275 42.3825 59.6362 41.6039 59.1228 40.6464C58.6095 39.689 58.3982 38.5978 58.517 37.5173C56.8621 35.6739 54.8271 33.4071 53.6133 32.0552C52.2874 34.316 51.744 36.9527 52.0678 39.5552C52.3916 42.1577 53.5644 44.5799 55.4036 46.4449C57.2429 48.3099 59.6455 49.5132 62.2376 49.8674C64.8297 50.2217 67.4659 49.707 69.736 48.4036C72.0061 47.1002 73.7829 45.0811 74.7897 42.6605C75.7965 40.2399 75.977 37.5535 75.3031 35.0194C74.6292 32.4853 73.1386 30.2456 71.0634 28.6487C68.9881 27.0519 66.4446 26.1875 63.8285 26.19Z" />
<path d="M5.26707 14.8931L10.9789 17.9526L10.9808 17.9536V20.2378C10.9808 20.5535 11.1059 20.8563 11.3286 21.0796C11.5513 21.3028 11.8534 21.4283 12.1683 21.4283C12.4833 21.4283 12.7853 21.3028 13.008 21.0796C13.2307 20.8563 13.3558 20.5535 13.3558 20.2378V19.2275L28.548 27.3633H31.5583C31.8733 27.3633 32.1753 27.4888 32.398 27.712C32.6207 27.9353 32.7458 28.2381 32.7458 28.5538C32.7458 28.8696 32.6207 29.1724 32.398 29.3956C32.1753 29.6189 31.8733 29.7443 31.5583 29.7443H26.2443L25.7752 30.2205L26.6421 31.03L28.4827 32.7383H33.2802C33.5416 32.2844 33.9451 31.9297 34.4282 31.7291C34.9112 31.5285 35.4467 31.4933 35.9518 31.629C36.4568 31.7646 36.903 32.0635 37.2213 32.4794C37.5396 32.8952 37.7121 33.4047 37.7121 33.9288C37.7121 34.453 37.5396 34.9625 37.2213 35.3783C36.903 35.7941 36.4568 36.093 35.9518 36.2287C35.4467 36.3643 34.9112 36.3292 34.4282 36.1286C33.9451 35.928 33.5416 35.5732 33.2802 35.1193H28.269C27.8091 35.1204 27.3667 34.9434 27.034 34.6253L25.3536 33.4288L24.7243 32.9764L23.7446 32.28L23.7149 32.3098L22.8065 33.2383L22.7293 33.3157H12.9977C12.0544 33.3252 11.1528 33.7075 10.4891 34.3796C9.82531 35.0517 9.45296 35.9592 9.45296 36.905C9.45296 37.8508 9.82531 38.7584 10.4891 39.4305C11.1528 40.1026 12.0544 40.4849 12.9977 40.4943H25.8109L27.3546 43.8038C27.6415 44.4088 28.093 44.9202 28.6571 45.2793C29.2211 45.6384 29.8749 45.8305 30.5431 45.8336H45.6065C46.2565 45.8337 46.8939 45.6536 47.4482 45.3133C48.0025 44.9729 48.4521 44.4855 48.7474 43.905L49.2818 42.8633C49.6078 42.2293 49.74 41.5129 49.6618 40.8038C49.6143 40.3812 49.5609 39.7562 49.5371 38.9705C49.561 38.8731 49.573 38.7732 49.5727 38.6729C49.5809 35.6925 50.4133 32.7729 51.9774 30.2383C52.3995 29.5442 52.8776 28.8859 53.4069 28.27L62.9421 38.8913C63.1528 39.1259 63.4478 39.2671 63.7623 39.2836C64.0768 39.3002 64.3849 39.1909 64.619 38.9796C64.8531 38.7684 64.9938 38.4727 65.0104 38.1574C65.0269 37.8421 64.9178 37.5332 64.7071 37.2986L55.1136 26.6124C55.7364 26.1073 56.4061 25.6631 57.1133 25.286C59.5141 24.049 62.229 23.5598 64.9093 23.8812C64.9686 23.8872 65.0755 23.911 65.2061 23.9407C65.2239 23.9467 65.2418 23.9467 65.2596 23.9526C65.7217 24.0628 66.1926 24.1325 66.6668 24.161C67.0036 24.1781 67.3338 24.0628 67.5871 23.8395C67.7059 23.7324 68.074 23.405 69.3149 22.3098C69.5398 22.1086 69.6817 21.8306 69.7127 21.53C70.9715 7.96455 49.0977 0.940737 48.1655 0.64907C47.917 0.57126 47.6498 0.577526 47.4051 0.666905C47.1604 0.756284 46.9518 0.923819 46.8114 1.14371C46.671 1.3636 46.6067 1.62366 46.6282 1.88384C46.6497 2.14402 46.7559 2.38989 46.9305 2.58359C48.7355 4.58359 49.7865 7.3574 50.404 9.83955C50.652 10.8406 50.8482 11.8539 50.9918 12.8753C46.7293 10.329 41.7248 9.32479 36.813 10.03C36.0946 10.1353 35.4178 10.4333 34.8544 10.8926C33.9444 11.1063 33.0168 11.2361 32.0832 11.2803L16.331 7.74727C13.4992 6.56286 11.6044 5.53253 11.5531 5.5042C11.4795 5.46396 11.4018 5.43166 11.3214 5.40781L10.3555 3.81573C10.2225 3.59978 10.0252 3.43115 9.79145 3.33359L2.03707 0.107398C1.84268 0.0220675 1.63015 -0.0133658 1.41867 0.00430134C1.2072 0.0219685 1.00344 0.0921794 0.825823 0.208589C-0.118239 0.821684 -0.308239 3.01216 -0.296364 3.19073C-0.0707394 6.54192 0.558636 8.22645 4.84551 14.5122C4.95291 14.6717 5.09764 14.8025 5.26707 14.8931ZM35.3227 42.2622H34.1352C33.8202 42.2622 33.5182 42.1367 33.2955 41.9135C33.0728 41.6902 32.9477 41.3874 32.9477 41.0717C32.9477 40.7559 33.0728 40.4531 33.2955 40.2299C33.5182 40.0066 33.8202 39.8812 34.1352 39.8812H35.3227C35.6376 39.8812 35.9397 40.0066 36.1624 40.2299C36.3851 40.4531 36.5102 40.7559 36.5102 41.0717C36.5102 41.3874 36.3851 41.6902 36.1624 41.9135C35.9397 42.1367 35.6376 42.2622 35.3227 42.2622ZM43.6946 32.0717L51.0274 22.4705C51.2126 22.2233 51.2975 21.9149 51.2649 21.6074C51.1818 20.9288 50.5346 19.655 47.4886 17.905L52.6958 16.8038C52.967 16.7449 53.2094 16.5934 53.3816 16.3752C53.5538 16.157 53.6451 15.8857 53.6399 15.6075C53.589 14.1422 53.4222 12.6832 53.1411 11.2443C53.0046 10.4945 52.8324 9.68527 52.6069 8.84625C54.4304 9.8364 56.2981 11.0882 57.084 12.9612C57.1747 13.1772 57.3269 13.3616 57.5217 13.4913C57.7164 13.6209 57.945 13.6901 58.1787 13.6902L64.8558 13.6907C65.1546 14.0716 65.432 14.4688 65.6867 14.8806H62.0433C61.8233 14.8805 61.6075 14.9417 61.4201 15.0575C61.2328 15.1732 61.0812 15.3388 60.9823 15.5359C60.8834 15.733 60.8411 15.9538 60.8601 16.1736C60.8792 16.3933 60.9588 16.6035 61.0901 16.7806L64.553 21.4586C64.3036 21.4407 64.0602 21.4288 63.8167 21.4229C63.413 21.411 63.0092 21.411 62.6114 21.4348C60.0931 21.5107 57.6336 22.2166 55.4567 23.4883C53.4034 24.7147 51.652 26.3891 50.3327 28.3872C48.8056 30.6665 47.8 33.256 47.3877 35.9705L43.6411 32.1431L43.6946 32.0717ZM40.0727 39.8812H41.2602C41.5751 39.8812 41.8772 40.0066 42.0999 40.2299C42.3226 40.4531 42.4477 40.7559 42.4477 41.0717C42.4477 41.3874 42.3226 41.6902 42.0999 41.9135C41.8772 42.1367 41.5751 42.2622 41.2602 42.2622H40.0727C39.7577 42.2622 39.4557 42.1367 39.233 41.9135C39.0103 41.6902 38.8852 41.3874 38.8852 41.0717C38.8852 40.7559 39.0103 40.4531 39.233 40.2299C39.4557 40.0066 39.7577 39.8812 40.0727 39.8812ZM31.0628 13.691C31.5881 13.691 32.1075 13.6656 32.6236 13.6279L32.6211 13.6312L31.6474 14.9348C32.0395 15.0849 32.44 15.2121 32.8468 15.3157C33.9908 15.6263 35.1706 15.7844 36.3558 15.786H36.4033C36.7183 15.786 37.0203 15.9114 37.243 16.1347C37.4657 16.3579 37.5908 16.6607 37.5908 16.9764C37.5908 17.2922 37.4657 17.595 37.243 17.8182C37.0203 18.0415 36.7183 18.1669 36.4033 18.1669H36.3558C34.6513 18.1641 32.958 17.8909 31.3386 17.3574C30.8518 17.1967 30.4777 17.0419 30.2224 16.9288L30.2164 16.9348C24.9618 16.5776 18.7749 13.3395 15.7527 11.7562C15.367 11.548 15.0131 11.2854 14.7018 10.9764L13.6052 9.16995C17.5755 10.9808 24.5967 13.691 31.0628 13.691Z" />
</g>
<defs>
<clipPath id="clip0_325_773">
<rect width="76" height="50" fill="white"/>
</clipPath>
</defs>
</svg>
