<svg width="73" height="50" viewBox="0 0 73 50" fill="none" xmlns="http://www.w3.org/2000/svg">
<g clip-path="url(#clip0_325_693)">
<path d="M33.3716 2.09285L31.2229 3.26714C31.193 3.23999 31.1616 3.21428 31.1288 3.18999L29.2012 1.76856L32.278 0.0857063C32.8312 -0.217151 33.5241 -0.0128649 33.8264 0.541421C34.1272 1.09571 33.9248 1.78999 33.3716 2.09285Z" />
<path d="M35.0174 7.12717C34.8492 7.59003 34.4114 7.87717 33.9466 7.87717C33.8169 7.87717 33.6843 7.85432 33.5546 7.80717L31.001 6.87003L31.5071 4.62146L34.3387 5.66003C34.9304 5.87717 35.2341 6.53432 35.0174 7.12717Z" />
<path d="M15.7002 40.7857C15.7002 43.1586 13.774 45.0886 11.4058 45.0886C9.03756 45.0886 7.11133 43.1586 7.11133 40.7857C7.11133 38.4128 9.03756 36.4828 11.4058 36.4828C11.5897 36.4828 11.7722 36.4957 11.9533 36.5186L10.3536 40.3443C10.1097 40.9257 10.3835 41.5957 10.9652 41.84C11.1092 41.9 11.2589 41.9286 11.4058 41.9286C11.8506 41.9286 12.2741 41.6657 12.458 41.2271L13.7384 38.1657C14.2274 38.5671 14.7763 38.9257 15.4094 39.23C15.6019 39.7243 15.7002 40.2471 15.7002 40.7857Z" />
<path d="M20.5312 40.7857C20.5312 45.8272 16.4378 49.9286 11.4062 49.9286C6.37467 49.9286 2.28125 45.8272 2.28125 40.7857C2.28125 36.82 4.85051 33.3057 8.58035 32.09C9.09221 32.3872 9.52564 32.7457 9.82791 33.1786C10.0831 33.5457 10.3241 33.9043 10.5579 34.2543C7.33137 34.6729 4.83055 37.4415 4.83055 40.7857C4.83055 44.4186 7.78049 47.3743 11.4062 47.3743C15.032 47.3743 17.982 44.4186 17.982 40.7857C17.982 40.5357 17.9663 40.2886 17.9392 40.0443C18.0461 40.0643 18.153 40.0857 18.2643 40.1043C19.0271 40.2329 19.7827 40.2915 20.517 40.3015C20.5255 40.4629 20.5312 40.6243 20.5312 40.7857Z" />
<path d="M65.7416 18.2243C65.7416 19.1057 65.2896 19.9885 64.4013 20.8471C63.8923 21.3385 63.3705 21.6885 63.0925 21.86C61.9704 21.2128 60.7214 20.6385 59.3255 20.1628C51.95 17.6514 46.9626 18.4414 44.1866 19.4471L41.1953 17.6785V16.5085H64.253C64.2573 16.5085 64.6508 16.5243 65.023 16.7271C65.3309 16.8957 65.7416 17.2328 65.7416 18.2243Z" />
<path d="M66.2379 41.9286C65.6747 46.4329 61.8308 49.9286 57.187 49.9286C52.5433 49.9286 48.6979 46.4329 48.1348 41.9286H50.7126C51.2544 45.0186 53.9505 47.3743 57.187 47.3743C60.4236 47.3743 63.1183 45.0186 63.6601 41.9286H66.2379Z" />
<path d="M61.3254 41.9286C60.8235 43.7472 59.1582 45.0886 57.1864 45.0886C55.2145 45.0886 53.5478 43.7472 53.0459 41.9286H61.3254Z" />
<path d="M70.7085 39.6428H47.1104V34.1243C47.1104 29.8471 48.7115 27.8843 52.8235 27.1243C60.7622 25.6571 68.2276 31.9671 69.4937 33.1028C70.4404 35.8043 70.6643 38.2886 70.7085 39.6428Z" />
<path d="M67.1169 28.4714C66.6464 28.1743 66.1445 27.8729 65.6113 27.5771C61.0687 25.0543 56.5034 24.12 52.4085 24.8771C47.2372 25.8314 44.8291 28.77 44.8291 34.1243V39.6429H28.0377V38.05C28.0377 37.6729 27.8509 37.32 27.5401 37.1071C27.2292 36.8943 26.8329 36.8486 26.4807 36.9857C26.4422 37.0014 22.5199 38.5086 18.6446 37.85C15.3268 37.2871 14.2275 35.64 12.5622 33.1457C12.2885 32.7357 12.0047 32.3114 11.6968 31.87C10.1142 29.5986 6.81205 28.8314 4.38965 28.5814C6.40428 27.0914 8.85662 26.2671 11.4059 26.2671C12.662 26.2671 13.8896 26.46 15.0559 26.8429C15.0602 26.8443 15.0659 26.8457 15.0702 26.8471C15.0745 26.8486 15.0773 26.85 15.0802 26.85C15.1971 26.8886 15.314 26.9286 15.4309 26.9714C19.5229 28.4529 24.1909 32.5129 25.3771 33.5843C26.378 34.5571 27.4887 35.2786 28.6222 35.6671C32.0812 36.8543 38.0794 36.0157 40.9324 34.5029C42.0616 33.9029 42.7474 33.1857 42.9699 32.37C43.6129 30.0171 42.6947 28.6814 41.9561 27.6086C41.3587 26.74 40.9267 26.1129 41.1734 24.8757C41.3545 23.9629 42.1871 23.0171 43.4575 22.2843C43.7298 22.1257 44.0178 21.9829 44.3158 21.85C44.4726 21.82 44.6223 21.7586 44.7549 21.6671C48.2581 20.3029 53.2925 20.5229 58.5907 22.3271C62.2208 23.5643 65.0723 25.6229 67.1169 28.4714Z" />
<path d="M29.1757 4.58854L28.6824 6.78568L26.1217 8.18568C25.9149 8.29854 25.7481 8.47283 25.644 8.68425C25.5086 8.96282 22.2906 15.5714 21.4494 21.7685C21.1528 23.9571 21.3924 26.0757 21.9955 27.9814C20.4271 26.8928 18.6577 25.8257 16.9111 25.0985L24.3337 6.92711C24.4849 6.55854 24.4321 6.13711 24.1969 5.81568C23.9602 5.49425 23.5738 5.3214 23.1774 5.35568L19.8939 5.64997L19.901 1.96854L25.5742 1.9314L27.0185 2.99711C26.6307 3.3414 26.518 3.92283 26.7761 4.39711C26.9843 4.77711 27.3749 4.99283 27.7784 4.99283C27.9638 4.99283 28.1506 4.94854 28.3245 4.85283L29.0189 4.47283L29.1757 4.58854Z" />
</g>
<defs>
<clipPath id="clip0_325_693">
<rect width="73" height="50" fill="white"/>
</clipPath>
</defs>
</svg>
