<svg width="99" height="50" viewBox="0 0 99 50" fill="none" xmlns="http://www.w3.org/2000/svg">
<g clip-path="url(#clip0_325_781)">
<path d="M44.2403 39.376H43.668C43.2577 39.376 42.8643 39.2127 42.5742 38.9219C42.2841 38.6311 42.1211 38.2368 42.1211 37.8256C42.1211 37.4144 42.2841 37.0201 42.5742 36.7293C42.8643 36.4386 43.2577 36.2752 43.668 36.2752H44.2403C47.3582 36.2818 50.4241 35.4748 53.1364 33.9334C55.8487 32.3921 58.1139 30.1696 59.7091 27.4845L69.7019 10.4303C69.9271 10.1199 70.2592 9.90421 70.6339 9.82507C71.0086 9.74593 71.3993 9.80891 71.7304 10.0018C72.0615 10.1947 72.3093 10.5039 72.4261 10.8694C72.5429 11.2349 72.5202 11.6309 72.3625 11.9806L62.3697 29.0349C60.5033 32.1875 57.8503 34.7989 54.6715 36.6121C51.4928 38.4252 47.8978 39.3778 44.2403 39.376Z" />
<path d="M54.8518 20.6163H33.7061C33.2958 20.6163 32.9023 20.4529 32.6122 20.1622C32.3222 19.8714 32.1592 19.4771 32.1592 19.0659C32.1592 18.6547 32.3222 18.2604 32.6122 17.9696C32.9023 17.6788 33.2958 17.5155 33.7061 17.5155H54.8518C55.2621 17.5155 55.6555 17.6788 55.9456 17.9696C56.2357 18.2604 56.3987 18.6547 56.3987 19.0659C56.3987 19.4771 56.2357 19.8714 55.9456 20.1622C55.6555 20.4529 55.2621 20.6163 54.8518 20.6163Z" />
<path d="M44.2094 39.376H23.0791C22.6688 39.376 22.2754 39.2126 21.9853 38.9219C21.6952 38.6311 21.5322 38.2368 21.5322 37.8256C21.5322 37.4144 21.6952 37.0201 21.9853 36.7293C22.2754 36.4386 22.6688 36.2752 23.0791 36.2752H44.2094C44.6197 36.2752 45.0131 36.4386 45.3032 36.7293C45.5933 37.0201 45.7563 37.4144 45.7563 37.8256C45.7563 38.2368 45.5933 38.6311 45.3032 38.9219C45.0131 39.2126 44.6197 39.376 44.2094 39.376Z" />
<path d="M39.9712 39.376C39.561 39.376 39.1675 39.2126 38.8774 38.9219C38.5873 38.6311 38.4244 38.2368 38.4244 37.8256C38.4244 33.7466 36.8077 29.8347 33.9299 26.9504C31.0522 24.0661 27.1491 22.4457 23.0794 22.4457C19.0096 22.4457 15.1066 24.0661 12.2288 26.9504C9.35108 29.8347 7.73437 33.7466 7.73437 37.8256C7.73437 38.2368 7.5714 38.6311 7.28131 38.9219C6.99121 39.2126 6.59776 39.376 6.1875 39.376C5.77724 39.376 5.38379 39.2126 5.09369 38.9219C4.8036 38.6311 4.64063 38.2368 4.64062 37.8256C4.64063 32.9242 6.58327 28.2236 10.0412 24.7578C13.4991 21.292 18.1891 19.345 23.0794 19.345C27.9696 19.345 32.6596 21.292 36.1175 24.7578C39.5755 28.2236 41.5181 32.9242 41.5181 37.8256C41.5181 38.2368 41.3551 38.6311 41.0651 38.9219C40.775 39.2126 40.3815 39.376 39.9712 39.376Z" />
<path d="M23.0798 25.686C20.6843 25.686 18.3425 26.398 16.3507 27.7319C14.3589 29.0658 12.8065 30.9618 11.8898 33.18C10.973 35.3982 10.7332 37.839 11.2005 40.1939C11.6679 42.5487 12.8214 44.7118 14.5153 46.4095C16.2092 48.1073 18.3674 49.2634 20.7169 49.7318C23.0664 50.2003 25.5017 49.9599 27.7149 49.041C29.9281 48.1222 31.8197 46.5663 33.1506 44.5699C34.4815 42.5736 35.1918 40.2265 35.1918 37.8256C35.1877 34.6072 33.9103 31.5219 31.6398 29.2462C29.3692 26.9704 26.2909 25.6901 23.0798 25.686ZM23.0798 46.8643C21.2962 46.8643 19.5526 46.3342 18.0695 45.341C16.5865 44.3478 15.4306 42.9362 14.748 41.2846C14.0654 39.6329 13.8868 37.8155 14.2348 36.0622C14.5828 34.3088 15.4417 32.6983 16.7029 31.4342C17.9642 30.1701 19.5711 29.3093 21.3204 28.9605C23.0698 28.6117 24.8831 28.7907 26.531 29.4748C28.1788 30.159 29.5873 31.3175 30.5782 32.8039C31.5692 34.2903 32.0981 36.0379 32.0981 37.8256C32.0777 40.2108 31.1191 42.4916 29.4305 44.1724C27.7419 45.8532 25.4597 46.7983 23.0798 46.8023V46.8643Z" />
<path d="M77.7609 28.7868C77.4573 28.7866 77.1604 28.6968 76.9074 28.5286C76.6543 28.3604 76.4562 28.1213 76.3378 27.8411L65.5097 2.43024C65.3497 2.04989 65.347 1.62142 65.5022 1.23908C65.6574 0.856735 65.9578 0.551846 66.3373 0.391483C66.7167 0.231119 67.1442 0.228415 67.5257 0.383969C67.9072 0.539522 68.2114 0.840591 68.3714 1.22094L79.184 26.6473C79.3437 27.0256 79.3471 27.452 79.1934 27.8328C79.0397 28.2136 78.7414 28.5177 78.3642 28.6783C78.1714 28.7511 77.9669 28.7879 77.7609 28.7868Z" />
<path d="M65.4325 30.4767C65.1601 30.4739 64.8933 30.399 64.6591 30.2597C64.3202 30.0531 64.0734 29.7239 63.9698 29.3401C63.8661 28.9564 63.9135 28.5474 64.1022 28.1977C68.9903 19.7946 79.7411 15.655 88.5892 18.7713C88.9769 18.9091 89.2941 19.1955 89.4711 19.5677C89.648 19.9399 89.6702 20.3672 89.5328 20.7558C89.3954 21.1444 89.1096 21.4623 88.7382 21.6397C88.3669 21.817 87.9405 21.8393 87.5528 21.7015C83.6919 20.5014 79.5398 20.643 75.7692 22.1034C71.9987 23.5639 68.8306 26.2576 66.7783 29.7481C66.6362 29.976 66.4375 30.163 66.2015 30.2908C65.9656 30.4185 65.7006 30.4826 65.4325 30.4767Z" />
<path d="M82.2476 49.9031C79.8495 49.9031 77.5053 49.1895 75.5122 47.8528C73.519 46.5162 71.9666 44.6166 71.0518 42.3947C70.1369 40.1729 69.9007 37.7289 70.373 35.3724C70.8454 33.0158 72.0051 30.8529 73.7052 29.1577C75.4053 27.4624 77.5693 26.3112 79.9228 25.8498C82.2764 25.3884 84.7137 25.6377 86.9257 26.566C89.1378 27.4943 91.0251 29.0599 92.3486 31.0644C93.672 33.0689 94.3719 35.422 94.3597 37.8256C94.3392 41.0332 93.0546 44.1026 90.7858 46.365C88.517 48.6273 85.448 49.8991 82.2476 49.9031ZM82.2476 28.7248C80.4666 28.7248 78.7255 29.2534 77.2438 30.2439C75.7621 31.2344 74.6063 32.6424 73.9219 34.2904C73.2375 35.9384 73.0554 37.7526 73.3984 39.5043C73.7414 41.2559 74.5941 42.8665 75.8492 44.133C77.1042 45.3996 78.7053 46.2653 80.4506 46.621C82.1959 46.9768 84.0072 46.8066 85.6561 46.132C87.305 45.4573 88.7177 44.3085 89.7161 42.8302C90.7144 41.352 91.2537 39.6106 91.2659 37.8256C91.2618 35.4296 90.3104 33.1329 88.62 31.4387C86.9296 29.7445 84.6382 28.7909 82.2476 28.7868V28.7248Z" />
<path d="M62.8648 9.23645H49.9639C47.4009 9.23645 45.3232 11.3188 45.3232 13.8876V15.1744C45.3232 17.7432 47.4009 19.8256 49.9639 19.8256H62.8648C65.4278 19.8256 67.5054 17.7432 67.5054 15.1744V13.8876C67.5054 11.3188 65.4278 9.23645 62.8648 9.23645Z" />
<path d="M62.8648 20.6008H49.9639C49.2529 20.6008 48.5489 20.4604 47.892 20.1877C47.2351 19.915 46.6383 19.5153 46.1355 19.0114C45.6328 18.5075 45.234 17.9094 44.9619 17.251C44.6898 16.5926 44.5498 15.887 44.5498 15.1744V13.8876C44.5498 12.4484 45.1202 11.0682 46.1355 10.0506C47.1509 9.03295 48.528 8.46124 49.9639 8.46124H62.8648C64.3007 8.46124 65.6778 9.03295 66.6931 10.0506C67.7085 11.0682 68.2789 12.4484 68.2789 13.8876V15.1744C68.2789 15.887 68.1388 16.5926 67.8667 17.251C67.5947 17.9094 67.1959 18.5075 66.6931 19.0114C66.1904 19.5153 65.5935 19.915 64.9367 20.1877C64.2798 20.4604 63.5758 20.6008 62.8648 20.6008ZM49.9639 10.0116C48.9395 10.0157 47.9582 10.4254 47.2339 11.1514C46.5095 11.8774 46.1008 12.8609 46.0967 13.8876V15.1744C46.1008 16.2011 46.5095 17.1846 47.2339 17.9106C47.9582 18.6366 48.9395 19.0463 49.9639 19.0504H62.8648C63.8904 19.0504 64.8741 18.642 65.5993 17.9151C66.3246 17.1883 66.732 16.2024 66.732 15.1744V13.8876C66.732 12.8596 66.3246 11.8738 65.5993 11.1469C64.8741 10.42 63.8904 10.0116 62.8648 10.0116H49.9639Z" />
<path d="M34.5568 10.5852H17.5411C15.7386 10.5729 14.0049 11.2776 12.7202 12.5449C11.4355 13.8121 10.7048 15.5384 10.6885 17.3449V18.3837C10.6926 18.9608 10.9242 19.5128 11.3327 19.9194C11.7413 20.3261 12.2938 20.5543 12.8696 20.5542H39.1664C39.7422 20.5543 40.2947 20.3261 40.7033 19.9194C41.1119 19.5128 41.3435 18.9608 41.3475 18.3837V17.3449C41.3313 15.5492 40.6091 13.8322 39.3378 12.5667C38.0665 11.3012 36.3485 10.5893 34.5568 10.5852Z" />
<path d="M76.4933 13.9806C76.1896 13.9804 75.8928 13.8906 75.6397 13.7224C75.3866 13.5542 75.1886 13.3151 75.0701 13.0349L72.3786 6.66278C72.29 6.47397 72.2403 6.26917 72.2325 6.06066C72.2248 5.85215 72.2591 5.64422 72.3334 5.44932C72.4077 5.25441 72.5205 5.07655 72.6651 4.92639C72.8096 4.77623 72.9829 4.65685 73.1746 4.57541C73.3663 4.49398 73.5724 4.45216 73.7805 4.45246C73.9887 4.45275 74.1947 4.49517 74.3861 4.57715C74.5776 4.65914 74.7505 4.77902 74.8946 4.92959C75.0388 5.08017 75.1511 5.25836 75.2248 5.45347L77.9164 11.8256C78.0761 12.2039 78.0794 12.6303 77.9257 13.0111C77.772 13.3919 77.4738 13.696 77.0965 13.8566C76.9048 13.9347 76.7003 13.9767 76.4933 13.9806Z" />
<path d="M66.516 3.39149H60.1738C59.7636 3.39149 59.3701 3.22814 59.08 2.93739C58.7899 2.64663 58.627 2.25229 58.627 1.8411C58.627 1.42991 58.7899 1.03556 59.08 0.744807C59.3701 0.454053 59.7636 0.29071 60.1738 0.29071H66.516C66.9263 0.29071 67.3197 0.454053 67.6098 0.744807C67.8999 1.03556 68.0629 1.42991 68.0629 1.8411C68.0629 2.25229 67.8999 2.64663 67.6098 2.93739C67.3197 3.22814 66.9263 3.39149 66.516 3.39149Z" />
<path d="M23.0792 30.7558C22.1293 30.7471 21.1892 30.9483 20.3257 31.345C19.0501 31.8782 17.9608 32.7785 17.1954 33.9319C16.43 35.0854 16.0229 36.4403 16.0254 37.8256C16.0254 39.2239 16.4391 40.5907 17.2142 41.7533C17.9893 42.916 19.0909 43.8221 20.3798 44.3572C21.6687 44.8923 23.087 45.0323 24.4553 44.7595C25.8236 44.4867 27.0804 43.8134 28.0669 42.8247C29.0534 41.8359 29.7252 40.5762 29.9974 39.2048C30.2695 37.8334 30.1298 36.4119 29.596 35.1201C29.0621 33.8283 28.158 32.7241 26.998 31.9473C25.838 31.1705 24.4743 30.7558 23.0792 30.7558Z" />
<path d="M82.2472 30.7558C81.2973 30.7471 80.3572 30.9483 79.4938 31.345C78.2157 31.8748 77.1241 32.7742 76.3582 33.9284C75.5923 35.0827 75.1868 36.4394 75.1934 37.8256C75.1934 39.2239 75.6071 40.5907 76.3822 41.7533C77.1573 42.916 78.2589 43.8221 79.5478 44.3572C80.8367 44.8923 82.255 45.0323 83.6233 44.7595C84.9916 44.4867 86.2485 43.8134 87.2349 42.8247C88.2214 41.8359 88.8932 40.5762 89.1654 39.2048C89.4376 37.8334 89.2979 36.4119 88.764 35.1201C88.2301 33.8283 87.326 32.7241 86.166 31.9473C85.0061 31.1705 83.6423 30.7558 82.2472 30.7558Z" />
</g>
<defs>
<clipPath id="clip0_325_781">
<rect width="99" height="50" fill="white"/>
</clipPath>
</defs>
</svg>
