<svg width="76" height="50" viewBox="0 0 76 50" fill="none" xmlns="http://www.w3.org/2000/svg">
<g clip-path="url(#clip0_325_841)">
<path d="M17.8406 49.5C19.2706 49.4989 20.6731 49.1055 21.896 48.3624C23.1189 47.6193 24.1156 46.5548 24.7781 45.2843L24.7532 45.2308H20.1851C19.5413 45.6547 18.7951 45.8961 18.0256 45.9294C17.2561 45.9627 16.4919 45.7867 15.814 45.42C15.1362 45.0534 14.5699 44.5096 14.1752 43.8465C13.7805 43.1834 13.5721 42.4257 13.5721 41.6535C13.5721 40.8813 13.7805 40.1235 14.1752 39.4604C14.5699 38.7973 15.1362 38.2536 15.814 37.8869C16.4919 37.5202 17.2561 37.3442 18.0256 37.3775C18.7951 37.4108 19.5413 37.6523 20.1851 38.0762H23.2163L24.1911 37.0775C23.4086 35.9863 22.3596 35.115 21.1447 34.547C19.9298 33.9791 18.5897 33.7336 17.2529 33.8341C15.9161 33.9346 14.6276 34.3777 13.5107 35.1209C12.3939 35.8642 11.4862 36.8826 10.8748 38.0786C10.2635 39.2746 9.96882 40.6079 10.0192 41.9509C10.0696 43.2938 10.4633 44.6012 11.1625 45.7478C11.8618 46.8943 12.8432 47.8415 14.0126 48.4986C15.1819 49.1556 16.5001 49.5005 17.8406 49.5Z" />
<path d="M48.4365 35.2332C47.4184 35.234 46.4124 35.4556 45.4876 35.8826L48.4273 39.1573L48.4365 39.1569C49.0862 39.1557 49.721 39.3523 50.2568 39.7207C50.7926 40.0891 51.2041 40.6119 51.437 41.2199C51.6699 41.828 51.7132 42.4926 51.561 43.1258C51.4089 43.759 51.0685 44.331 50.585 44.766C50.1015 45.2011 49.4976 45.4787 48.8532 45.5621C48.2089 45.6455 47.5545 45.5308 46.9766 45.2332C46.3987 44.9355 45.9245 44.469 45.6169 43.8953C45.3093 43.3216 45.1827 42.6678 45.2539 42.0204C44.2623 40.9158 43.0429 39.5576 42.3157 38.7475C41.5212 40.1022 41.1956 41.6821 41.3896 43.2415C41.5836 44.8008 42.2864 46.2522 43.3884 47.3697C44.4905 48.4872 45.9301 49.2082 47.4833 49.4204C49.0364 49.6327 50.616 49.3244 51.9763 48.5434C53.3365 47.7624 54.4011 46.5525 55.0044 45.1021C55.6077 43.6517 55.7158 42.0421 55.312 40.5237C54.9082 39.0052 54.0151 37.6632 52.7716 36.7064C51.5281 35.7496 50.0041 35.2316 48.4365 35.2332Z" />
<path d="M13.3475 28.4642L16.77 30.2974L16.7712 30.298V31.6666C16.7712 31.8558 16.8461 32.0373 16.9796 32.171C17.113 32.3048 17.294 32.38 17.4827 32.38C17.6714 32.38 17.8524 32.3048 17.9858 32.171C18.1193 32.0373 18.1942 31.8558 18.1942 31.6666V31.0613L27.2973 35.9362H29.101C29.2897 35.9362 29.4707 36.0114 29.6042 36.1452C29.7376 36.2789 29.8126 36.4604 29.8126 36.6495C29.8126 36.8387 29.7376 37.0202 29.6042 37.1539C29.4707 37.2877 29.2897 37.3629 29.101 37.3629H25.9169L25.6358 37.6482L26.1552 38.1333L27.2581 39.1569H30.1328C30.2894 38.8849 30.5312 38.6723 30.8206 38.5521C31.11 38.4319 31.4309 38.4109 31.7335 38.4921C32.0361 38.5734 32.3035 38.7525 32.4942 39.0017C32.6849 39.2509 32.7883 39.5561 32.7883 39.8702C32.7883 40.1843 32.6849 40.4895 32.4942 40.7387C32.3035 40.9879 32.0361 41.167 31.7335 41.2483C31.4309 41.3295 31.11 41.3085 30.8206 41.1883C30.5312 41.0681 30.2894 40.8555 30.1328 40.5835H27.1301C26.8545 40.5842 26.5894 40.4781 26.3901 40.2875L25.3832 39.5706L25.0061 39.2995L24.4191 38.8822L24.4013 38.9001L23.857 39.4565L23.8107 39.5028H17.9797C17.4144 39.5085 16.8742 39.7376 16.4765 40.1403C16.0788 40.543 15.8557 41.0868 15.8557 41.6535C15.8557 42.2202 16.0788 42.764 16.4765 43.1667C16.8742 43.5694 17.4144 43.7985 17.9797 43.8042H25.6572L26.5822 45.7872C26.7541 46.1497 27.0246 46.4561 27.3626 46.6713C27.7006 46.8865 28.0923 47.0016 28.4927 47.0034H37.5185C37.908 47.0035 38.2899 46.8956 38.6221 46.6916C38.9542 46.4877 39.2236 46.1957 39.4006 45.8478L39.7208 45.2237C39.9161 44.8437 39.9953 44.4145 39.9485 43.9896C39.92 43.7364 39.888 43.3619 39.8737 42.8911C39.8881 42.8328 39.8952 42.7729 39.8951 42.7128C39.9 40.927 40.3988 39.1776 41.336 37.6589C41.5889 37.243 41.8753 36.8485 42.1925 36.4795L47.9059 42.8437C48.0321 42.9843 48.2089 43.0688 48.3974 43.0787C48.5858 43.0887 48.7704 43.0232 48.9107 42.8966C49.0509 42.77 49.1353 42.5928 49.1452 42.4039C49.1551 42.215 49.0897 42.0299 48.9635 41.8893L43.2151 35.4863C43.5883 35.1836 43.9896 34.9175 44.4133 34.6915C45.8519 33.9503 47.4786 33.6572 49.0846 33.8498C49.1202 33.8533 49.1842 33.8676 49.2625 33.8854C49.2731 33.889 49.2838 33.889 49.2945 33.8926C49.5714 33.9586 49.8535 34.0003 50.1377 34.0174C50.3395 34.0277 50.5374 33.9586 50.6891 33.8248C50.7603 33.7606 50.9809 33.5644 51.7244 32.9082C51.8592 32.7877 51.9442 32.621 51.9628 32.4409C52.717 24.3126 39.6105 20.104 39.0519 19.9293C38.903 19.8826 38.7429 19.8864 38.5962 19.94C38.4496 19.9935 38.3246 20.0939 38.2405 20.2257C38.1564 20.3574 38.1178 20.5132 38.1307 20.6691C38.1436 20.825 38.2073 20.9724 38.3119 21.0884C39.3934 22.2868 40.0232 23.9488 40.3932 25.4361C40.5418 26.036 40.6593 26.6431 40.7454 27.2551C38.1913 25.7294 35.1927 25.1277 32.2496 25.5503C31.8191 25.6133 31.4136 25.7919 31.076 26.0671C30.5307 26.1951 29.9749 26.2729 29.4155 26.2994L19.9769 24.1825C18.2801 23.4728 17.1448 22.8554 17.1141 22.8384C17.07 22.8143 17.0234 22.795 16.9752 22.7807L16.3965 21.8267C16.3168 21.6973 16.1986 21.5963 16.0585 21.5378L11.4122 19.6047C11.2957 19.5536 11.1683 19.5323 11.0416 19.5429C10.9149 19.5535 10.7928 19.5956 10.6864 19.6653C10.1207 20.0327 10.0069 21.3452 10.014 21.4522C10.1492 23.4602 10.5263 24.4696 13.0949 28.2359C13.1593 28.3315 13.246 28.4099 13.3475 28.4642ZM31.3566 44.8635H30.6451C30.4563 44.8635 30.2754 44.7883 30.1419 44.6545C30.0085 44.5208 29.9335 44.3393 29.9335 44.1501C29.9335 43.9609 30.0085 43.7795 30.1419 43.6457C30.2754 43.512 30.4563 43.4368 30.6451 43.4368H31.3566C31.5453 43.4368 31.7263 43.512 31.8597 43.6457C31.9932 43.7795 32.0681 43.9609 32.0681 44.1501C32.0681 44.3393 31.9932 44.5208 31.8597 44.6545C31.7263 44.7883 31.5453 44.8635 31.3566 44.8635ZM36.3729 38.7574L40.7667 33.0045C40.8777 32.8563 40.9285 32.6715 40.909 32.4873C40.8592 32.0807 40.4714 31.3175 38.6463 30.2689L41.7664 29.6091C41.9289 29.5737 42.0742 29.483 42.1773 29.3522C42.2805 29.2215 42.3352 29.0589 42.3321 28.8922C42.3016 28.0142 42.2017 27.14 42.0332 26.2778C41.9514 25.8286 41.8482 25.3437 41.7131 24.8409C42.8058 25.4342 43.9249 26.1843 44.3958 27.3066C44.4501 27.436 44.5413 27.5465 44.658 27.6242C44.7747 27.7019 44.9116 27.7434 45.0517 27.7434L49.0526 27.7437C49.2316 27.9719 49.3978 28.2099 49.5504 28.4567H47.3673C47.2355 28.4566 47.1062 28.4933 46.9939 28.5626C46.8817 28.632 46.7908 28.7312 46.7316 28.8493C46.6723 28.9674 46.647 29.0997 46.6584 29.2314C46.6698 29.3631 46.7175 29.489 46.7962 29.5951L48.8711 32.3981C48.7217 32.3874 48.5758 32.3803 48.43 32.3767C48.188 32.3696 47.9461 32.3696 47.7078 32.3839C46.1988 32.4294 44.7251 32.8523 43.4207 33.6144C42.1904 34.3492 41.1409 35.3525 40.3504 36.5497C39.4354 37.9154 38.8329 39.4671 38.5858 41.0935L36.3409 38.8002L36.3729 38.7574ZM34.2027 43.4368H34.9143C35.103 43.4368 35.284 43.512 35.4174 43.6457C35.5509 43.7795 35.6258 43.9609 35.6258 44.1501C35.6258 44.3393 35.5509 44.5208 35.4174 44.6545C35.284 44.7883 35.103 44.8635 34.9143 44.8635H34.2027C34.014 44.8635 33.8331 44.7883 33.6996 44.6545C33.5662 44.5208 33.4912 44.3393 33.4912 44.1501C33.4912 43.9609 33.5662 43.7795 33.6996 43.6457C33.8331 43.512 34.014 43.4368 34.2027 43.4368ZM28.8041 27.7439C29.1188 27.7439 29.4301 27.7287 29.7393 27.706L29.7378 27.7081L29.1544 28.4891C29.3893 28.5791 29.6293 28.6553 29.873 28.7174C30.5585 28.9035 31.2655 28.9983 31.9756 28.9992H32.0041C32.1928 28.9992 32.3738 29.0743 32.5072 29.2081C32.6407 29.3419 32.7156 29.5233 32.7156 29.7125C32.7156 29.9017 32.6407 30.0831 32.5072 30.2169C32.3738 30.3507 32.1928 30.4258 32.0041 30.4258H31.9756C30.9543 30.4241 29.9397 30.2604 28.9694 29.9408C28.6777 29.8445 28.4535 29.7517 28.3005 29.684L28.297 29.6875C25.1484 29.4735 21.4413 27.5333 19.6304 26.5846C19.3993 26.4598 19.1873 26.3025 19.0007 26.1173L18.3436 25.0349C20.7226 26.1199 24.9297 27.7439 28.8041 27.7439Z" />
<path d="M1.47422 14.7009H64.8817C65.5198 14.7009 66.0395 14.1781 66.0395 13.5347V0.666207C66.0395 0.024272 65.5198 -0.5 64.8817 -0.5H1.47422C0.836091 -0.5 0.316406 0.024272 0.316406 0.666207V13.5347C0.316406 14.1781 0.836091 14.7009 1.47422 14.7009ZM47.1591 1.33346H52.6905C53.3005 1.33346 53.7936 1.83093 53.7936 2.44307C53.7936 3.05522 53.2991 3.55268 52.6905 3.55268H51.0279V11.7578C51.0279 12.3715 50.5333 12.8674 49.9248 12.8674C49.3148 12.8674 48.8218 12.37 48.8218 11.7578V3.55417H47.1606C46.5491 3.55417 46.0575 3.05671 46.0575 2.44456C46.0575 1.83241 46.5476 1.33346 47.1591 1.33346ZM35.3307 2.79755C35.3307 2.29562 35.6668 1.85625 36.148 1.72518C36.6292 1.5956 37.1385 1.80561 37.3902 2.23902L40.5187 7.64409V2.44307C40.5187 1.82944 41.0132 1.33346 41.6217 1.33346C42.2317 1.33346 42.7247 1.83093 42.7247 2.44307V11.7578C42.7247 12.2598 42.3886 12.6991 41.9075 12.8302C41.8112 12.857 41.7165 12.8689 41.6202 12.8689C41.2353 12.8689 40.8666 12.6649 40.6667 12.3179L37.5368 6.9113V11.7578C37.5368 12.3715 37.0437 12.8674 36.4337 12.8674C35.8237 12.8674 35.3307 12.37 35.3307 11.7578V2.79755ZM24.4943 2.44307C24.4943 1.82944 24.9888 1.33346 25.5974 1.33346H30.8978C31.5078 1.33346 32.0009 1.83093 32.0009 2.44307C32.0009 3.05522 31.5064 3.55268 30.8978 3.55268H26.7004V5.98936H28.9479C29.5579 5.98936 30.051 6.48682 30.051 7.09897C30.051 7.71111 29.5564 8.20858 28.9479 8.20858H26.7004V10.6452H30.8978C31.5078 10.6452 32.0009 11.1427 32.0009 11.7549C32.0009 12.3685 31.5064 12.8645 30.8978 12.8645H25.5974C24.9874 12.8645 24.4943 12.367 24.4943 11.7549V2.44307ZM12.5623 2.44307C12.5623 1.82944 13.0568 1.33346 13.6653 1.33346H17.7458C19.6306 1.33346 21.1645 2.87649 21.1645 4.77251C21.1645 6.65363 19.6543 8.18623 17.7902 8.21006L20.3457 10.9536C20.7618 11.4004 20.7396 12.1019 20.2954 12.5234C20.0822 12.723 19.8112 12.8228 19.5403 12.8228C19.2457 12.8228 18.951 12.7051 18.7349 12.4713L14.7684 8.21453V11.7593C14.7684 12.373 14.2739 12.8689 13.6653 12.8689C13.0568 12.8689 12.5623 12.3715 12.5623 11.7593V2.44307Z" />
<path d="M18.9581 4.77254C18.9581 4.10081 18.4147 3.5542 17.747 3.5542H14.7695V5.99087H17.747C18.4147 5.99087 18.9581 5.44426 18.9581 4.77254Z" />
</g>
<defs>
<clipPath id="clip0_325_841">
<rect width="76" height="50" fill="white"/>
</clipPath>
</defs>
</svg>
