<svg width="68" height="50" viewBox="0 0 68 50" fill="none" xmlns="http://www.w3.org/2000/svg">
<path fill-rule="evenodd" clip-rule="evenodd" d="M17.8485 3.68995L13.3347 3.69657C11.4021 3.69956 9.82715 5.27011 9.82715 7.20104V8.62574C9.82715 10.5682 11.4094 12.1482 13.3542 12.1482H13.6751C14.5214 10.2383 15.4 8.34284 16.3102 6.46388C16.3965 6.28573 16.4984 6.11672 16.6143 5.9589L17.8485 3.68995Z" />
<path fill-rule="evenodd" clip-rule="evenodd" d="M56.1878 19.8696V16.3566C56.1878 15.7574 55.7024 15.2726 55.1025 15.2726H40.0608C39.4608 15.2726 38.9756 15.7572 38.9756 16.3566V19.7957C39.315 19.6758 39.6804 19.6103 40.0608 19.6103H52.4652C53.7234 19.6103 54.9702 19.6925 56.1878 19.8696Z" />
<path fill-rule="evenodd" clip-rule="evenodd" d="M57.6289 49.883C61.8617 49.883 65.3394 46.5889 65.6277 42.4331C60.3127 42.4755 55.0053 42.7414 49.7021 43.0825C50.2871 46.9271 53.6189 49.883 57.6289 49.883Z" />
<path fill-rule="evenodd" clip-rule="evenodd" d="M7.83604 50.1474C11.3991 50.1474 14.4268 47.8131 15.468 44.5958H14.7686C13.5574 44.5958 12.453 43.9214 11.8859 42.8549C11.6702 42.4489 11.1037 41.9092 10.74 41.6267C9.53849 40.6928 8.07325 40.316 6.5675 40.316C6.17213 40.316 5.77692 40.3414 5.3844 40.387C4.87012 40.4469 4.35269 40.482 3.83479 40.482C2.55959 40.482 1.2683 40.2133 0.227919 39.5957C-0.0417566 40.4041 -0.181641 41.26 -0.181641 42.1394C-0.181641 46.5547 3.41528 50.1474 7.83604 50.1474Z" />
<path fill-rule="evenodd" clip-rule="evenodd" d="M18.528 42.4279C18.8675 42.4279 19.1856 42.2703 19.3909 42.0003C19.596 41.7305 19.6635 41.3802 19.5723 41.0538C18.2772 36.4157 14.1116 29.2402 8.58105 29.2402C7.62615 29.2402 6.69979 29.4573 5.82942 29.8455C5.42979 30.0239 5.03806 30.2211 4.65625 30.4351C2.85211 31.4471 -0.247413 33.8415 0.269203 36.2572C0.617573 37.8865 2.38734 38.3142 3.83523 38.3142C4.2686 38.3142 4.70371 38.2836 5.13408 38.2337C5.60957 38.1784 6.08914 38.1482 6.56794 38.1482C8.56275 38.1482 10.4871 38.6831 12.0733 39.9156C12.6785 40.3861 13.4361 41.1477 13.8031 41.838C13.9936 42.1962 14.3609 42.4279 14.7691 42.4279L18.528 42.4279Z" />
<path fill-rule="evenodd" clip-rule="evenodd" d="M21.6033 42.4063C29.0349 42.302 36.3902 41.8391 43.8198 41.3117C51.596 40.7595 59.294 40.2597 67.0971 40.2597C67.6968 40.2597 68.1823 39.7749 68.1823 39.1759V33.9092C68.1823 33.8866 68.1815 33.8652 68.18 33.843C68.1362 33.2274 67.9591 32.4824 67.7929 31.8936C67.3773 30.4214 66.7217 29.0031 65.8495 27.7449C62.7589 23.2878 57.6922 21.7779 52.4649 21.7779H40.0605C39.4606 21.7779 38.9753 22.2627 38.9753 22.8619C38.9753 26.0884 38.9076 31.3597 36.1734 33.6102C35.0554 34.5305 33.6761 34.8467 32.253 34.8467C29.8584 34.8467 27.9948 33.8632 26.5814 31.9388C23.2688 27.429 23.0898 18.0058 24.7216 12.827C25.1531 11.4577 24.504 9.87145 23.6965 8.77219C22.8566 7.62865 21.5656 6.60388 20.0805 6.60388C19.6216 6.60388 19.1805 6.70516 18.7673 6.90441C18.5473 7.01058 18.3699 7.18809 18.2634 7.40782C16.4779 11.0928 14.7854 14.9159 13.253 18.7091C12.5103 20.5474 11.7967 22.4106 11.1787 24.2948C10.874 25.2236 10.554 26.2446 10.3242 27.253C16.0705 28.4416 20.2174 35.2993 21.6621 40.4716C21.8419 41.115 21.8164 41.7896 21.6033 42.4063Z" />
<path fill-rule="evenodd" clip-rule="evenodd" d="M19.2857 8.94206C19.6842 8.94206 20.0491 8.72548 20.24 8.3747L23.6587 2.09045L31.9271 2.9566C32.5231 3.01914 33.058 2.58818 33.1203 1.99248C33.1825 1.3996 32.748 0.863118 32.1542 0.801058L23.1651 -0.141017C22.7278 -0.187011 22.3075 0.0336627 22.0976 0.41925L18.3328 7.33999C18.0466 7.86639 18.2428 8.52416 18.769 8.81036C18.9283 8.89699 19.1045 8.94206 19.2857 8.94206Z" />
</svg>
