<svg width="84" height="50" viewBox="0 0 84 50" fill="none" xmlns="http://www.w3.org/2000/svg">
<g clip-path="url(#clip0_325_819)">
<path d="M43.154 12.044C43.3264 12.0442 43.4971 12.0104 43.6564 11.9444C43.8156 11.8785 43.9602 11.7817 44.082 11.6598L45.938 9.8052L49.1197 12.9842L51.0567 11.2102L47.794 7.95078L49.6498 6.09635C49.8889 5.84901 50.0212 5.51772 50.0182 5.17386C50.0152 4.82999 49.8772 4.50106 49.6339 4.2579C49.3905 4.01474 49.0613 3.87682 48.7172 3.87383C48.373 3.87084 48.0415 4.00303 47.794 4.24193L42.2261 9.80547C42.0426 9.98888 41.9176 10.2225 41.867 10.4769C41.8164 10.7313 41.8424 10.9949 41.9417 11.2345C42.041 11.4741 42.2092 11.6789 42.425 11.823C42.6408 11.9672 42.8945 12.044 43.154 12.044Z" />
<path d="M10.5 37.9836C9.46165 37.9836 8.44662 38.2913 7.58326 38.8677C6.7199 39.4442 6.04699 40.2635 5.64963 41.222C5.25227 42.1806 5.14831 43.2354 5.35088 44.253C5.55345 45.2706 6.05347 46.2053 6.78769 46.939C7.52192 47.6726 8.45738 48.1722 9.47578 48.3746C10.4942 48.5771 11.5498 48.4732 12.5091 48.0761C13.4684 47.6791 14.2883 47.0067 14.8652 46.144C15.4421 45.2813 15.75 44.2671 15.75 43.2295C15.75 41.8382 15.1969 40.5039 14.2123 39.5201C13.2277 38.5363 11.8924 37.9836 10.5 37.9836Z" />
<path d="M61.1113 9.09322L67.4565 14.3141C66.5838 11.2796 65.0891 8.45966 63.0672 6.03337C61.0454 3.60707 58.5406 1.62747 55.7121 0.2203C55.512 0.120296 55.2896 0.0730707 55.0661 0.0831102C54.8425 0.0931497 54.6253 0.160121 54.435 0.277662C54.2446 0.395204 54.0875 0.559413 53.9786 0.754693C53.8697 0.949974 53.8125 1.16984 53.8125 1.39341V8.81637C54.8521 8.12985 56.07 7.76214 57.3161 7.75853C58.6969 7.75536 60.0369 8.22659 61.1113 9.09322Z" />
<path d="M30.9583 43.2295L18.3727 43.2712C18.3619 45.2416 17.6081 47.1354 16.2617 48.575L33.5833 48.4754L38.8636 43.6213L33.3266 41.0525L30.9583 43.2295Z" />
<path d="M20.2575 34.9891L13.9936 32.0831L10.3799 35.366C10.4203 35.3654 10.4597 35.3598 10.5002 35.3598C11.6741 35.3618 12.8325 35.6275 13.8897 36.1371C14.947 36.6467 15.876 37.3873 16.6082 38.3041L20.2575 34.9891Z" />
<path d="M29.9305 40.6092L30.7495 39.8564L22.8417 36.1882L17.9316 40.6486L17.933 40.6525L29.9305 40.6092Z" />
<path d="M81.375 42.0492C81.0269 42.0492 80.6931 42.1874 80.4469 42.4333C80.2008 42.6793 80.0625 43.0128 80.0625 43.3607C80.0614 44.4038 79.6461 45.4039 78.908 46.1415C78.1698 46.8791 77.1689 47.294 76.125 47.2951H75.2973L69.8644 42.642L67.5964 44.1529L71.2651 47.2951H57.75C57.4019 47.2951 57.0681 47.4333 56.8219 47.6792C56.5758 47.9252 56.4375 48.2587 56.4375 48.6066C56.4375 48.9544 56.5758 49.288 56.8219 49.5339C57.0681 49.7799 57.4019 49.918 57.75 49.918H76.125C77.8649 49.916 79.5329 49.2245 80.7631 47.9952C81.9934 46.7659 82.6855 45.0992 82.6875 43.3607C82.6875 43.0128 82.5492 42.6793 82.3031 42.4333C82.0569 42.1874 81.7231 42.0492 81.375 42.0492Z" />
<path d="M43.6395 18.0041L42.1861 16.0669C41.5154 15.1777 40.6477 14.4558 39.6509 13.9578C38.6542 13.4599 37.5556 13.1994 36.4413 13.1968H18.9921C17.3437 13.1991 15.7461 13.7672 14.4668 14.806C13.1876 15.8448 12.3043 17.2912 11.9648 18.903L38.9368 22.3115L43.6395 18.0041Z" />
<path d="M66.3529 41.8289L73.7972 36.8699C75.1369 35.9795 76.2667 34.8085 77.1083 33.4382C77.9499 32.068 78.4831 30.5312 78.6711 28.9345H69.1834C68.6731 28.9478 68.1672 28.8377 67.7087 28.6136C67.2501 28.3894 66.8526 28.0579 66.55 27.6471C66.1875 27.1282 65.9989 26.5079 66.0111 25.8751C66.0233 25.2424 66.2359 24.6298 66.6181 24.1253L69.9225 19.741L59.4808 11.149L59.4545 11.1271C58.8068 10.5961 57.9891 10.3165 57.1516 10.3394C56.3141 10.3624 55.513 10.6865 54.8954 11.2522L40.2622 24.6555C40.0199 24.8771 39.7033 25 39.3748 25C39.3198 24.9998 39.2648 24.9964 39.2101 24.9898L6.36966 20.8398C6.1197 20.8082 5.86592 20.8491 5.63863 20.9578C5.41134 21.0664 5.22014 21.2381 5.08787 21.4524L1.53283 26.895C1.43534 27.0382 1.36722 27.1994 1.3324 27.3691C1.29759 27.5388 1.29676 27.7137 1.32998 27.8837C1.3632 28.0538 1.4298 28.2155 1.52593 28.3597C1.62207 28.5038 1.74584 28.6276 1.89009 28.7236C2.03434 28.8197 2.19622 28.8863 2.36637 28.9196C2.53652 28.9528 2.71157 28.952 2.88142 28.9173C3.05127 28.8825 3.21255 28.8145 3.35594 28.7171C3.49933 28.6197 3.62199 28.4949 3.71683 28.3499L5.71761 25.3511L41.4474 41.9275C41.6201 42.0076 41.8082 42.0492 41.9986 42.0492H65.6248C65.884 42.0492 66.1373 41.9725 66.3529 41.8289Z" />
<path d="M68.6786 26.1016C68.7081 26.1662 68.7561 26.2206 68.8165 26.2579C68.877 26.2953 68.9471 26.3139 69.0182 26.3114H77.9076L71.9511 21.4098L68.7154 25.703C68.6703 25.7583 68.6428 25.8258 68.6363 25.8967C68.6297 25.9677 68.6445 26.039 68.6786 26.1016Z" />
</g>
<defs>
<clipPath id="clip0_325_819">
<rect width="84" height="50" fill="white"/>
</clipPath>
</defs>
</svg>
