<svg width="104" height="38" viewBox="0 0 104 38" fill="none" xmlns="http://www.w3.org/2000/svg">
<g clip-path="url(#clip0_259_5839)">
<path d="M3.78563 24.3319V37.5847H0V7.9017H3.78563V19.1465L16.1728 7.9017H21.3348L6.06383 21.6972L23.4845 37.5847H18.2387L3.78563 24.3319Z" fill="white"/>
<path d="M45.915 7.53732H49.6561V37.261L45.915 37.2203V7.53732Z" fill="white"/>
<path d="M56.5484 15.5817H52.7051V37.5796H56.5484V15.5817Z" fill="white"/>
<path d="M43.2649 26.6125C43.2649 32.6948 38.192 37.6254 31.9342 37.6254C25.6764 37.6254 20.6035 32.6948 20.6035 26.6125C20.6035 20.5301 25.6764 15.5995 31.9342 15.5995C38.192 15.5995 43.2649 20.5301 43.2649 26.6125Z" fill="white"/>
<path d="M77.2331 31.6985C75.7519 33.63 73.3846 34.8786 70.7184 34.8786C66.2328 34.8786 62.5966 31.3443 62.5966 26.9845C62.5966 22.6247 66.2328 19.0905 70.7184 19.0905C73.4134 19.0905 75.8017 20.3671 77.2777 22.3317C77.7627 21.3404 78.3971 20.4308 79.1522 19.6307C77.0784 17.3832 74.0688 15.969 70.7184 15.969C64.4605 15.969 59.3877 20.8996 59.3877 26.982C59.3877 33.0643 64.4605 37.9949 70.7184 37.9949C74.0295 37.9949 77.0077 36.6138 79.0788 34.4148C78.3342 33.607 77.7103 32.6923 77.2331 31.696" fill="white"/>
<path d="M103.743 15.5817H99.9287V37.5261H103.743V15.5817Z" fill="white"/>
<path d="M102.776 26.4265C102.776 32.5088 97.7028 37.4394 91.4449 37.4394C85.1871 37.4394 80.1143 32.5088 80.1143 26.4265C80.1143 20.3441 85.1871 15.4135 91.4449 15.4135C97.7028 15.4135 102.776 20.3441 102.776 26.4265Z" fill="white"/>
<path d="M103.68 6.82894C89.2246 10.3555 84.9409 -1.26641 54.9389 2.12003C49.5017 2.73412 32.1177 8.3731 32.1177 8.3731C36.3831 5.86575 51.3499 1.10588 54.8629 0.698183C58.022 0.331255 70.2388 -1.44478 84.7809 2.63984C84.7809 2.63984 84.7836 2.63984 84.7888 2.63984C86.0498 2.99658 87.3265 3.39154 88.6164 3.84001C97.952 7.07101 103.68 6.82639 103.68 6.82639" fill="white"/>
<path d="M95.5293 10.2383C101.1 10.2383 103.801 8.51579 103.801 8.51579C104.529 11.3977 103.586 12.315 95.5293 10.2383Z" fill="white"/>
<path d="M57.6183 11.1786C57.6183 12.817 56.2524 14.1446 54.5667 14.1446C52.881 14.1446 51.5151 12.817 51.5151 11.1786C51.5151 9.54013 52.881 8.21257 54.5667 8.21257C56.2524 8.21257 57.6183 9.54013 57.6183 11.1786Z" fill="white"/>
</g>
<defs>
<clipPath id="clip0_259_5839">
<rect width="104" height="38" fill="white"/>
</clipPath>
</defs>
</svg>
