<svg width="20" height="20" viewBox="0 0 20 20" fill="none" xmlns="http://www.w3.org/2000/svg">
<path d="M13.0364 11.1391C14.1393 10.4627 14.9943 9.43696 15.4705 8.21873C15.9467 7.00049 16.018 5.65689 15.6734 4.39349C15.3287 3.1301 14.5872 2.01648 13.5623 1.22304C12.5373 0.429587 11.2854 0 9.99802 0C8.71064 0 7.4587 0.429587 6.43376 1.22304C5.40881 2.01648 4.66731 3.1301 4.3227 4.39349C3.97808 5.65689 4.04933 7.00049 4.52555 8.21873C5.00177 9.43696 5.85673 10.4627 6.95962 11.1391C5.18307 11.7038 3.59397 12.7568 2.36732 14.1823C1.14068 15.6079 0.324077 17.3505 0.00744572 19.2184C-0.0182971 19.3908 0.0232867 19.5666 0.123283 19.7081C0.223278 19.8496 0.373727 19.9455 0.542374 19.9754C0.711022 20.0053 0.884445 19.9666 1.02547 19.8678C1.16649 19.769 1.26388 19.6178 1.29676 19.4467C1.6574 17.363 2.72731 15.4754 4.31858 14.1154C5.90985 12.7553 7.92073 12.0099 9.99802 12.0099C12.0753 12.0099 14.0862 12.7553 15.6775 14.1154C17.2687 15.4754 18.3386 17.363 18.6993 19.4467C18.7255 19.6015 18.8046 19.7419 18.9225 19.8432C19.0404 19.9444 19.1897 19.9999 19.3439 20C19.3818 20 19.4196 19.9967 19.4568 19.99C19.5416 19.9751 19.6227 19.9433 19.6955 19.8964C19.7682 19.8496 19.8311 19.7886 19.8807 19.7169C19.9302 19.6452 19.9654 19.5643 19.9842 19.4788C20.003 19.3932 20.005 19.3047 19.9902 19.2184C19.6735 17.3503 18.8566 15.6075 17.6297 14.182C16.4027 12.7565 14.8133 11.7035 13.0364 11.1391ZM5.41669 6.00126C5.41669 5.07836 5.68538 4.17619 6.18878 3.40883C6.69219 2.64147 7.40769 2.04339 8.24482 1.69021C9.08195 1.33703 10.0031 1.24463 10.8918 1.42467C11.7805 1.60472 12.5968 2.04914 13.2375 2.70173C13.8782 3.35431 14.3146 4.18576 14.4913 5.09092C14.6681 5.99608 14.5774 6.93431 14.2306 7.78696C13.8839 8.6396 13.2967 9.36837 12.5433 9.8811C11.7899 10.3938 10.9041 10.6675 9.99802 10.6675C8.78298 10.6675 7.6177 10.1759 6.75853 9.30079C5.89937 8.4257 5.41669 7.23883 5.41669 6.00126Z" fill="white"/>
</svg>
